SplineFontDB: 3.0
FontName: Kavivanar-Regular
FullName: Kavivanar
FamilyName: Kavivanar
Weight: Book
Copyright: Copyright (c) 2015, Tharique Azeez (http://thariqueazeez.com|zeezat@gmail.com)
Version: 1.88
ItalicAngle: 0
UnderlinePosition: 0
UnderlineWidth: 0
Ascent: 800
Descent: 200
InvalidEm: 0
sfntRevision: 0x0001e3d7
LayerCount: 2
Layer: 0 1 "Back" 1
Layer: 1 1 "Fore" 0
PreferredKerning: 4
XUID: [1021 555 -2101310570 31471]
StyleMap: 0x0040
FSType: 0
OS2Version: 1
OS2_WeightWidthSlopeOnly: 0
OS2_UseTypoMetrics: 0
CreationTime: 1459486720
ModificationTime: 1490623113
PfmFamily: 17
TTFWeight: 400
TTFWidth: 5
LineGap: 0
VLineGap: 0
Panose: 2 0 5 3 0 0 0 0 0 0
OS2TypoAscent: 1065
OS2TypoAOffset: 0
OS2TypoDescent: -417
OS2TypoDOffset: 0
OS2TypoLinegap: 0
OS2WinAscent: 1065
OS2WinAOffset: 0
OS2WinDescent: 417
OS2WinDOffset: 0
HheadAscent: 1065
HheadAOffset: 0
HheadDescent: -417
HheadDOffset: 0
OS2SubXSize: 650
OS2SubYSize: 699
OS2SubXOff: 0
OS2SubYOff: 140
OS2SupXSize: 650
OS2SupYSize: 699
OS2SupXOff: 0
OS2SupYOff: 479
OS2StrikeYSize: 49
OS2StrikeYPos: 258
OS2Vendor: '    '
OS2CodePages: 00000093.00000000
OS2UnicodeRanges: 801080ef.4000204b.00000000.00000000
Lookup: 4 0 0 "'akhn' Akhand lookup 0" { "'akhn' Akhand lookup 0 subtable"  } ['akhn' ('taml' <'dflt' > 'tml2' <'dflt' > ) ]
Lookup: 4 0 0 "'abvs' Above Base Substitutions lookup 1" { "'abvs' Above Base Substitutions lookup 1 subtable"  } ['abvs' ('taml' <'dflt' > 'tml2' <'dflt' > ) ]
Lookup: 4 0 0 "'psts' Post Base Substitutions lookup 2" { "'psts' Post Base Substitutions lookup 2 subtable"  } ['psts' ('taml' <'dflt' > 'tml2' <'dflt' > ) ]
Lookup: 4 0 0 "'psts' Post Base Substitutions lookup 3" { "'psts' Post Base Substitutions lookup 3 subtable"  } ['psts' ('taml' <'dflt' > 'tml2' <'dflt' > ) ]
Lookup: 6 0 0 "'psts' Post Base Substitutions lookup 4" { "'psts' Post Base Substitutions lookup 4 contextual 0"  "'psts' Post Base Substitutions lookup 4 contextual 1"  } ['psts' ('taml' <'dflt' > 'tml2' <'dflt' > ) ]

StartChar: .notdef
Encoding: 256 -1 0
GlifName: _notdef
Width: 347
Flags: W
LayerCount: 2
Fore
SplineSet
115 638 m 2,0,-1
 337 636 l 2,1,2
 343 636 343 636 342 630 c 2,3,-1
 288 13 l 2,4,5
 285 1 285 1 276 -9 c 128,-1,6
 267 -19 267 -19 255 -19 c 2,7,-1
 29 -19 l 2,8,9
 23 -19 23 -19 24 -13 c 2,10,-1
 82 606 l 2,11,12
 85 618 85 618 94.5 628 c 128,-1,13
 104 638 104 638 115 638 c 2,0,-1
117 600 m 1,14,-1
 63 19 l 1,15,-1
 253 19 l 1,16,-1
 303 598 l 1,17,-1
 117 600 l 1,14,-1
EndSplineSet
Validated: 1
EndChar

StartChar: exclam
Encoding: 260 33 4
GlifName: exclam
Width: 199
GlyphClass: 2
Flags: W
LayerCount: 2
Fore
SplineSet
144 722 m 128,-1,1
 156 738 156 738 169 746.5 c 128,-1,2
 182 755 182 755 190 757 c 0,3,4
 208 762 208 762 207 746 c 2,5,-1
 151 172 l 2,6,7
 150 160 150 160 138 144 c 128,-1,8
 126 128 126 128 113 119.5 c 128,-1,9
 100 111 100 111 92 109 c 0,10,11
 74 104 74 104 75 120 c 2,12,-1
 131 694 l 2,13,0
 132 706 132 706 144 722 c 128,-1,1
102 -19 m 128,-1,15
 83 -19 83 -19 70.5 -9 c 128,-1,16
 58 1 58 1 56.5 23 c 128,-1,17
 55 45 55 45 69 56 c 128,-1,18
 83 67 83 67 102 67 c 128,-1,19
 121 67 121 67 135 56 c 128,-1,20
 149 45 149 45 149 24 c 128,-1,21
 149 3 149 3 135 -8 c 128,-1,14
 121 -19 121 -19 102 -19 c 128,-1,15
EndSplineSet
Validated: 33
EndChar

StartChar: quotedbl
Encoding: 261 34 5
GlifName: quotedbl
Width: 237
GlyphClass: 2
Flags: W
LayerCount: 2
Fore
SplineSet
95 676 m 128,-1,1
 107 692 107 692 120 700.5 c 128,-1,2
 133 709 133 709 141 711 c 0,3,4
 159 716 159 716 158 700 c 2,5,-1
 138 492 l 2,6,7
 137 480 137 480 125 464 c 128,-1,8
 113 448 113 448 100 439.5 c 128,-1,9
 87 431 87 431 79 429 c 0,10,11
 61 424 61 424 62 440 c 2,12,-1
 82 648 l 2,13,0
 83 660 83 660 95 676 c 128,-1,1
212 682 m 128,-1,15
 224 698 224 698 237 706.5 c 128,-1,16
 250 715 250 715 258 717 c 0,17,18
 276 722 276 722 275 706 c 2,19,-1
 256 496 l 2,20,21
 255 485 255 485 243 468.5 c 128,-1,22
 231 452 231 452 218 443.5 c 128,-1,23
 205 435 205 435 197 433 c 0,24,25
 179 428 179 428 180 444 c 2,26,-1
 199 654 l 2,27,14
 200 666 200 666 212 682 c 128,-1,15
EndSplineSet
Validated: 1
EndChar

StartChar: numbersign
Encoding: 262 35 6
GlifName: numbersign
Width: 566
GlyphClass: 2
Flags: W
LayerCount: 2
Fore
SplineSet
313 752.5 m 128,-1,1
 328 761 328 761 336.5 757.5 c 128,-1,2
 345 754 345 754 341 741 c 2,3,-1
 274 501 l 1,4,-1
 432 499 l 1,5,-1
 491 700 l 2,6,7
 495 713 495 713 508.5 728.5 c 128,-1,8
 522 744 522 744 537.5 752.5 c 128,-1,9
 553 761 553 761 561 757 c 128,-1,10
 569 753 569 753 565 740 c 2,11,-1
 494 499 l 1,12,-1
 594 498 l 2,13,14
 609 498 609 498 602 479 c 0,15,16
 594 454 594 454 571.5 438 c 128,-1,17
 549 422 549 422 538 422 c 2,18,-1
 471 422 l 1,19,-1
 432 288 l 1,20,-1
 562 288 l 2,21,22
 577 288 577 288 570 269 c 0,23,24
 562 244 562 244 539.5 228 c 128,-1,25
 517 212 517 212 506 212 c 2,26,-1
 409 212 l 1,27,-1
 353 20 l 2,28,29
 349 7 349 7 335.5 -8.5 c 128,-1,30
 322 -24 322 -24 306.5 -32.5 c 128,-1,31
 291 -41 291 -41 283 -37 c 128,-1,32
 275 -33 275 -33 279 -20 c 2,33,-1
 347 212 l 1,34,35
 270 212 270 212 194 212 c 1,36,-1
 141 21 l 2,37,38
 137 8 137 8 123.5 -8 c 128,-1,39
 110 -24 110 -24 95 -32 c 128,-1,40
 80 -40 80 -40 71.5 -37 c 128,-1,41
 63 -34 63 -34 67 -21 c 2,42,-1
 132 212 l 1,43,44
 81 212 81 212 30 212 c 0,45,46
 15 212 15 212 22 231 c 0,47,48
 30 256 30 256 52.5 272 c 128,-1,49
 75 288 75 288 86 288 c 2,50,-1
 153 288 l 1,51,-1
 191 425 l 1,52,-1
 72 426 l 2,53,54
 57 426 57 426 64 445 c 0,55,56
 72 470 72 470 94.5 486 c 128,-1,57
 117 502 117 502 128 502 c 2,58,-1
 212 501 l 1,59,-1
 267 699 l 2,60,61
 271 712 271 712 284.5 728 c 128,-1,0
 298 744 298 744 313 752.5 c 128,-1,1
410 423 m 1,62,-1
 253 424 l 1,63,-1
 215 288 l 1,64,65
 292 288 292 288 370 288 c 1,66,-1
 410 423 l 1,62,-1
EndSplineSet
Validated: 1
EndChar

StartChar: dollar
Encoding: 263 36 7
GlifName: dollar
Width: 624
GlyphClass: 2
Flags: W
LayerCount: 2
Fore
SplineSet
373 800 m 128,-1,1
 385 816 385 816 398 824.5 c 128,-1,2
 411 833 411 833 420 835 c 0,3,4
 438 839 438 839 436 823 c 2,5,-1
 428 750 l 1,6,7
 479 736 479 736 523 703 c 0,8,9
 585 659 585 659 621 591 c 0,10,11
 628 578 628 578 605 550 c 0,12,13
 586 528 586 528 571 523 c 0,14,15
 551 516 551 516 547 524 c 0,16,17
 509 585 509 585 454 631 c 0,18,19
 436 642 436 642 418 651 c 1,20,-1
 392 406 l 1,21,22
 422 395 422 395 430 392 c 2,23,-1
 439 388 l 2,24,25
 498 360 498 360 525 335 c 0,26,27
 575 288 575 288 585 221 c 0,28,29
 595 151 595 151 548 82 c 0,30,31
 522 43 522 43 484 14 c 0,32,33
 418 -36 418 -36 344 -41 c 1,34,-1
 342 -65 l 2,35,36
 341 -77 341 -77 329 -92.5 c 128,-1,37
 317 -108 317 -108 304 -116.5 c 128,-1,38
 291 -125 291 -125 282 -127 c 0,39,40
 264 -131 264 -131 266 -115 c 2,41,-1
 274 -37 l 1,42,43
 201 -24 201 -24 140 24 c 128,-1,44
 79 72 79 72 45 142 c 0,45,46
 38 156 38 156 62 183 c 0,47,48
 81 205 81 205 95 210 c 0,49,50
 114 216 114 216 119 209 c 0,51,52
 156 147 156 147 209 97 c 1,53,54
 245 73 245 73 284 56 c 1,55,-1
 314 335 l 2,56,57
 311 336 311 336 301.5 339.5 c 128,-1,58
 292 343 292 343 258 355 c 0,59,60
 222 368 222 368 190 392 c 0,61,62
 144 425 144 425 124.5 470.5 c 128,-1,63
 105 516 105 516 115 571 c 0,64,65
 126 628 126 628 176 679 c 0,66,67
 256 760 256 760 359 759 c 1,68,-1
 360 773 l 2,69,0
 361 784 361 784 373 800 c 128,-1,1
350 676 m 1,70,71
 337 679 337 679 325 682 c 0,72,73
 286 683 286 683 247 675 c 1,74,75
 226 666 226 666 209 654 c 1,76,77
 197 636 197 636 190 613 c 1,78,79
 188 574 188 574 199 536 c 1,80,81
 222 495 222 495 259 464 c 1,82,83
 290 445 290 445 324 430 c 1,84,-1
 350 676 l 1,70,71
353 37 m 1,85,86
 399 35 399 35 444 45 c 1,87,88
 472 59 472 59 492 78 c 1,89,90
 509 118 509 118 508 165 c 1,91,92
 492 220 492 220 455 263 c 1,93,94
 421 290 421 290 382 310 c 1,95,-1
 353 37 l 1,85,86
EndSplineSet
Validated: 33
EndChar

StartChar: percent
Encoding: 264 37 8
GlifName: percent
Width: 778
GlyphClass: 2
Flags: W
LayerCount: 2
Fore
SplineSet
769.5 708 m 128,-1,1
 776 703 776 703 770.5 689 c 128,-1,2
 765 675 765 675 751 660 c 2,3,-1
 121 -2 l 2,4,5
 107 -17 107 -17 92 -24 c 128,-1,6
 77 -31 77 -31 70.5 -26 c 128,-1,7
 64 -21 64 -21 69.5 -7 c 128,-1,8
 75 7 75 7 89 22 c 2,9,-1
 719 684 l 2,10,11
 733 699 733 699 748 706 c 128,-1,0
 763 713 763 713 769.5 708 c 128,-1,1
283 697 m 0,12,13
 437 645 437 645 344 467 c 0,14,15
 326 433 326 433 297 400 c 128,-1,16
 268 367 268 367 232 351.5 c 128,-1,17
 196 336 196 336 170.5 339 c 128,-1,18
 145 342 145 342 116 355 c 0,19,20
 7 407 7 407 58 530 c 0,21,22
 82 589 82 589 116 630 c 0,23,24
 196 725 196 725 283 697 c 0,12,13
219 623 m 0,25,26
 175 637 175 637 160 618 c 0,27,28
 144 599 144 599 128 562 c 0,29,30
 91 472 91 472 182 429 c 0,31,32
 208 417 208 417 228.5 415.5 c 128,-1,33
 249 414 249 414 257 419 c 2,34,-1
 264 423 l 2,35,36
 270 430 270 430 278 445 c 0,37,38
 347 579 347 579 219 623 c 0,25,26
697 333 m 0,39,40
 851 281 851 281 758 103 c 0,41,42
 740 69 740 69 711 36 c 128,-1,43
 682 3 682 3 646 -12.5 c 128,-1,44
 610 -28 610 -28 584.5 -25 c 128,-1,45
 559 -22 559 -22 530 -9 c 0,46,47
 421 43 421 43 472 166 c 0,48,49
 496 225 496 225 530 266 c 0,50,51
 610 361 610 361 697 333 c 0,39,40
633 259 m 0,52,53
 589 273 589 273 574 254 c 0,54,55
 558 235 558 235 542 198 c 0,56,57
 505 108 505 108 596 65 c 0,58,59
 622 53 622 53 642.5 51.5 c 128,-1,60
 663 50 663 50 671 55 c 2,61,-1
 678 59 l 2,62,63
 684 66 684 66 692 81 c 0,64,65
 761 215 761 215 633 259 c 0,52,53
EndSplineSet
Validated: 33
EndChar

StartChar: ampersand
Encoding: 265 38 9
GlifName: ampersand
Width: 687
GlyphClass: 2
Flags: W
LayerCount: 2
Fore
SplineSet
474 90 m 1,0,1
 334 239 334 239 261 350 c 1,2,3
 198 333 198 333 159 305 c 128,-1,4
 120 277 120 277 117 207 c 0,5,6
 110 26 110 26 333 38 c 0,7,8
 424 43 424 43 474 90 c 1,0,1
326 430 m 1,9,10
 378 445 378 445 406.5 459 c 128,-1,11
 435 473 435 473 447 485 c 0,12,13
 449 488 449 488 449 491 c 0,14,15
 474 575 474 575 447 613 c 128,-1,16
 420 651 420 651 337 644 c 0,17,18
 288 640 288 640 262 626 c 1,19,20
 254 603 254 603 267 553 c 0,21,22
 282 499 282 499 326 430 c 1,9,10
530 176 m 1,23,24
 560 243 560 243 575 338 c 0,25,26
 577 350 577 350 589.5 366 c 128,-1,27
 602 382 602 382 617.5 391.5 c 128,-1,28
 633 401 633 401 643 399.5 c 128,-1,29
 653 398 653 398 651 386 c 0,30,31
 627 237 627 237 565 139 c 1,32,33
 613 89 613 89 666 35 c 0,34,35
 672 29 672 29 666 14.5 c 128,-1,36
 660 0 660 0 645.5 -14.5 c 128,-1,37
 631 -29 631 -29 616 -35 c 128,-1,38
 601 -41 601 -41 596 -35 c 0,39,40
 546 15 546 15 501 61 c 1,41,42
 406 -31 406 -31 281 -38 c 0,43,44
 34 -52 34 -52 41 153 c 0,45,46
 43 208 43 208 73 263 c 0,47,48
 120 349 120 349 231 399 c 1,49,50
 192 468 192 468 184 505.5 c 128,-1,51
 176 543 176 543 182.5 570 c 128,-1,52
 189 597 189 597 207 624 c 0,53,54
 242 675 242 675 288 695 c 128,-1,55
 334 715 334 715 389 720 c 0,56,57
 485 728 485 728 519.5 680.5 c 128,-1,58
 554 633 554 633 523 531 c 0,59,60
 508 484 508 484 461 444 c 128,-1,61
 414 404 414 404 359 381 c 1,62,63
 424 291 424 291 530 176 c 1,23,24
EndSplineSet
Validated: 33
EndChar

StartChar: quotesingle
Encoding: 266 39 10
GlifName: quotesingle
Width: 130
GlyphClass: 2
Flags: W
LayerCount: 2
Fore
SplineSet
105.5 680 m 128,-1,1
 118 696 118 696 130.5 704.5 c 128,-1,2
 143 713 143 713 151.5 715 c 128,-1,3
 160 717 160 717 164.5 714 c 128,-1,4
 169 711 169 711 168 703 c 2,5,-1
 145 491 l 2,6,7
 144 479 144 479 131.5 463.5 c 128,-1,8
 119 448 119 448 106.5 439.5 c 128,-1,9
 94 431 94 431 85.5 429 c 128,-1,10
 77 427 77 427 72.5 430 c 128,-1,11
 68 433 68 433 69 441 c 2,12,-1
 92 653 l 2,13,0
 93 664 93 664 105.5 680 c 128,-1,1
EndSplineSet
Validated: 1
EndChar

StartChar: parenleft
Encoding: 267 40 11
GlifName: parenleft
Width: 311
GlyphClass: 2
Flags: W
LayerCount: 2
Fore
SplineSet
262.5 -65.5 m 128,-1,1
 249 -81 249 -81 233.5 -89.5 c 128,-1,2
 218 -98 218 -98 210 -95 c 0,3,4
 6 -21 6 -21 34 284 c 0,5,6
 50 462 50 462 112 574 c 0,7,8
 151 643 151 643 210 691.5 c 128,-1,9
 269 740 269 740 333 757 c 0,10,11
 346 761 346 761 349 752.5 c 128,-1,12
 352 744 352 744 343.5 729 c 128,-1,13
 335 714 335 714 319.5 700.5 c 128,-1,14
 304 687 304 687 291 683 c 0,15,16
 247 671 247 671 222.5 651 c 128,-1,17
 198 631 198 631 176 592 c 0,18,19
 125 500 125 500 110 336 c 0,20,21
 84 49 84 49 274 -21 c 0,22,23
 282 -24 282 -24 279 -37 c 128,-1,0
 276 -50 276 -50 262.5 -65.5 c 128,-1,1
EndSplineSet
Validated: 33
EndChar

StartChar: parenright
Encoding: 268 41 12
GlifName: parenright
Width: 323
GlyphClass: 2
Flags: W
LayerCount: 2
Fore
SplineSet
96 728 m 128,-1,1
 109 743 109 743 124.5 752 c 128,-1,2
 140 761 140 761 148 757 c 0,3,4
 352 677 352 677 326 354 c 0,5,6
 303 77 303 77 152 -41 c 0,7,8
 93 -87 93 -87 30 -103 c 0,9,10
 17 -106 17 -106 14.5 -97.5 c 128,-1,11
 12 -89 12 -89 20.5 -74 c 128,-1,12
 29 -59 29 -59 45 -45.5 c 128,-1,13
 61 -32 61 -32 74 -29 c 0,14,15
 118 -18 118 -18 142 1 c 128,-1,16
 166 20 166 20 187 56 c 0,17,18
 237 143 237 143 250 302 c 0,19,20
 275 608 275 608 84 683 c 0,21,22
 76 686 76 686 79.5 699.5 c 128,-1,0
 83 713 83 713 96 728 c 128,-1,1
EndSplineSet
Validated: 33
EndChar

StartChar: asterisk
Encoding: 269 42 13
GlifName: asterisk
Width: 383
GlyphClass: 2
Flags: W
LayerCount: 2
Fore
SplineSet
221.5 677 m 128,-1,1
 233 693 233 693 246 701.5 c 128,-1,2
 259 710 259 710 267 713 c 0,3,4
 286 718 286 718 285 702 c 2,5,-1
 277 561 l 1,6,-1
 409 627 l 2,7,8
 424 634 424 634 431 630 c 128,-1,9
 438 626 438 626 433 612 c 128,-1,10
 428 598 428 598 414 583 c 128,-1,11
 400 568 400 568 385 560 c 2,12,-1
 318 526 l 1,13,-1
 416 473 l 2,14,15
 423 469 423 469 419 455 c 128,-1,16
 415 441 415 441 401.5 426 c 128,-1,17
 388 411 388 411 372.5 403 c 128,-1,18
 357 395 357 395 350 399 c 2,19,-1
 270 442 l 1,20,-1
 267 380 l 2,21,22
 266 369 266 369 254.5 353 c 128,-1,23
 243 337 243 337 230 328.5 c 128,-1,24
 217 320 217 320 209 317 c 0,25,26
 190 312 190 312 191 328 c 2,27,-1
 199 467 l 1,28,-1
 67 401 l 2,29,30
 52 394 52 394 45 398 c 128,-1,31
 38 402 38 402 43 415.5 c 128,-1,32
 48 429 48 429 62 444.5 c 128,-1,33
 76 460 76 460 91 467 c 2,34,-1
 160 502 l 1,35,-1
 60 557 l 2,36,37
 53 561 53 561 57 575 c 128,-1,38
 61 589 61 589 74.5 604 c 128,-1,39
 88 619 88 619 103.5 627 c 128,-1,40
 119 635 119 635 126 630 c 2,41,-1
 205 587 l 1,42,-1
 209 650 l 2,43,0
 210 661 210 661 221.5 677 c 128,-1,1
EndSplineSet
Validated: 1
EndChar

StartChar: plus
Encoding: 270 43 14
GlifName: plus
Width: 399
GlyphClass: 2
Flags: W
LayerCount: 2
Fore
SplineSet
215 504.5 m 128,-1,1
 227 520 227 520 239.5 529 c 128,-1,2
 252 538 252 538 261 540 c 0,3,4
 279 545 279 545 278 529 c 2,5,-1
 265 370 l 1,6,-1
 413 372 l 2,7,8
 428 372 428 372 423 353 c 0,9,10
 415 328 415 328 392 312 c 128,-1,11
 369 296 369 296 359 296 c 2,12,-1
 259 295 l 1,13,-1
 250 186 l 2,14,15
 249 175 249 175 237 159 c 128,-1,16
 225 143 225 143 212.5 134 c 128,-1,17
 200 125 200 125 191 123 c 0,18,19
 173 118 173 118 174 134 c 2,20,-1
 187 294 l 1,21,-1
 37 292 l 2,22,23
 22 292 22 292 27 311 c 0,24,25
 35 336 35 336 58 352 c 128,-1,26
 81 368 81 368 91 368 c 2,27,-1
 193 369 l 1,28,-1
 202 477 l 2,29,0
 203 489 203 489 215 504.5 c 128,-1,1
EndSplineSet
Validated: 1
EndChar

StartChar: comma
Encoding: 271 44 15
GlifName: comma
Width: 206
GlyphClass: 2
Flags: W
LayerCount: 2
Fore
SplineSet
95 117.5 m 128,-1,1
 110 131 110 131 123.5 135 c 128,-1,2
 137 139 137 139 140 131 c 0,3,4
 193 5 193 5 74 -117 c 0,5,6
 60 -132 60 -132 45 -138.5 c 128,-1,7
 30 -145 30 -145 24 -139.5 c 128,-1,8
 18 -134 18 -134 24 -119.5 c 128,-1,9
 30 -105 30 -105 45 -90 c 0,10,11
 60 -74 60 -74 69.5 -53.5 c 128,-1,12
 79 -33 79 -33 80.5 -1.5 c 128,-1,13
 82 30 82 30 66 65 c 0,14,15
 63 73 63 73 71.5 88.5 c 128,-1,0
 80 104 80 104 95 117.5 c 128,-1,1
EndSplineSet
Validated: 33
EndChar

StartChar: hyphen
Encoding: 272 45 16
GlifName: hyphen
Width: 336
GlyphClass: 2
Flags: W
LayerCount: 2
Fore
SplineSet
30 193 m 0,0,1
 33 202 33 202 42 215 c 128,-1,2
 51 228 51 228 67 239 c 128,-1,3
 83 250 83 250 94 250 c 2,4,-1
 325 249 l 2,5,6
 340 249 340 249 333 230 c 0,7,8
 325 205 325 205 302.5 189 c 128,-1,9
 280 173 280 173 269 173 c 2,10,-1
 38 174 l 2,11,12
 24 174 24 174 30 193 c 0,0,1
EndSplineSet
Validated: 1
EndChar

StartChar: period
Encoding: 273 46 17
GlifName: period
Width: 201
GlyphClass: 2
Flags: W
LayerCount: 2
Fore
SplineSet
74 91 m 0,0,1
 113 136 113 136 146 89 c 0,2,3
 174 50 174 50 141 13 c 0,4,5
 102 -31 102 -31 74 13.5 c 128,-1,6
 46 58 46 58 74 91 c 0,0,1
EndSplineSet
Validated: 33
EndChar

StartChar: slash
Encoding: 274 47 18
GlifName: slash
Width: 307
GlyphClass: 2
Flags: W
LayerCount: 2
Fore
SplineSet
330.5 741 m 128,-1,1
 345 748 345 748 352 743 c 128,-1,2
 359 738 359 738 354 724 c 2,3,-1
 90 6 l 2,4,5
 85 -8 85 -8 70.5 -23 c 128,-1,6
 56 -38 56 -38 41.5 -45 c 128,-1,7
 27 -52 27 -52 20 -47 c 128,-1,8
 13 -42 13 -42 18 -28 c 2,9,-1
 282 690 l 2,10,11
 287 704 287 704 301.5 719 c 128,-1,0
 316 734 316 734 330.5 741 c 128,-1,1
EndSplineSet
Validated: 1
EndChar

StartChar: zero
Encoding: 275 48 19
GlifName: zero
Width: 602
GlyphClass: 2
Flags: W
LayerCount: 2
Fore
SplineSet
403 759 m 0,0,1
 621 733 621 733 577 349 c 0,2,3
 566 256 566 256 544.5 188.5 c 128,-1,4
 523 121 523 121 481 67 c 0,5,6
 388 -54 388 -54 255 -38 c 0,7,8
 48 -14 48 -14 85 333 c 0,9,10
 97 443 97 443 120.5 520 c 128,-1,11
 144 597 144 597 190 656 c 0,12,13
 281 774 281 774 403 759 c 0,0,1
344 683 m 0,14,15
 270 692 270 692 239 651 c 0,16,17
 216 621 216 621 193.5 550 c 128,-1,18
 171 479 171 479 161 383 c 0,19,20
 126 59 126 59 313 38 c 0,21,22
 397 28 397 28 432 72 c 0,23,24
 453 99 453 99 472.5 158.5 c 128,-1,25
 492 218 492 218 501 299 c 0,26,27
 543 659 543 659 344 683 c 0,14,15
EndSplineSet
Validated: 33
EndChar

StartChar: one
Encoding: 276 49 20
GlifName: one
Width: 243
GlyphClass: 2
Flags: W
LayerCount: 2
Fore
SplineSet
75.5 585 m 128,-1,1
 70 591 70 591 76.5 606 c 128,-1,2
 83 621 83 621 98 635 c 2,3,-1
 200 735 l 1,4,-1
 223 756 l 2,5,6
 253 778 253 778 251 746 c 2,7,-1
 191 26 l 2,8,9
 190 15 190 15 178 -1 c 128,-1,10
 166 -17 166 -17 153.5 -26 c 128,-1,11
 141 -35 141 -35 132 -37 c 0,12,13
 114 -42 114 -42 115 -26 c 2,14,-1
 171 651 l 1,15,-1
 124 605 l 2,16,17
 109 591 109 591 95 585 c 128,-1,0
 81 579 81 579 75.5 585 c 128,-1,1
EndSplineSet
Validated: 1
EndChar

StartChar: two
Encoding: 277 50 21
GlifName: two
Width: 593
GlyphClass: 2
Flags: W
LayerCount: 2
Fore
SplineSet
50 15 m 1,0,-1
 379 336 l 1,1,2
 553 539 553 539 494 619 c 0,3,4
 456 671 456 671 333 682 c 0,5,6
 259 688 259 688 227 645 c 128,-1,7
 195 602 195 602 172 524 c 0,8,9
 168 511 168 511 154.5 495 c 128,-1,10
 141 479 141 479 126 471 c 128,-1,11
 111 463 111 463 102.5 466.5 c 128,-1,12
 94 470 94 470 98 483 c 0,13,14
 127 582 127 582 175 646 c 128,-1,15
 223 710 223 710 279.5 736.5 c 128,-1,16
 336 763 336 763 394 758 c 0,17,18
 658 736 658 736 553 514 c 0,19,20
 512 428 512 428 416 316 c 0,21,22
 413 312 413 312 409 309 c 2,23,-1
 131 39 l 1,24,25
 224 39 224 39 527 38 c 0,26,27
 542 38 542 38 535 19 c 0,28,29
 527 -6 527 -6 504.5 -22 c 128,-1,30
 482 -38 482 -38 471 -38 c 0,31,32
 61 -37 61 -37 37 -38 c 0,33,34
 36 -38 36 -38 47 2 c 2,35,-1
 50 15 l 1,0,-1
EndSplineSet
Validated: 33
EndChar

StartChar: three
Encoding: 278 51 22
GlifName: three
Width: 568
GlyphClass: 2
Flags: W
LayerCount: 2
Fore
SplineSet
131 558.5 m 128,-1,1
 117 553 117 553 111.5 559 c 128,-1,2
 106 565 106 565 115.5 586.5 c 128,-1,3
 125 608 125 608 144 634 c 0,4,5
 234 759 234 759 393 758 c 0,6,7
 601 757 601 757 544 552 c 0,8,9
 515 446 515 446 435 383 c 1,10,11
 563 340 563 340 533 191 c 0,12,13
 519 124 519 124 483 74 c 0,14,15
 402 -39 402 -39 261 -38 c 0,16,17
 75 -37 75 -37 64 123 c 0,18,19
 63 133 63 133 74 149 c 128,-1,20
 85 165 85 165 97.5 175 c 128,-1,21
 110 185 110 185 119 188 c 0,22,23
 139 195 139 195 140 181 c 0,24,25
 150 39 150 39 317 38 c 0,26,27
 353 38 353 38 379 45 c 0,28,29
 417 56 417 56 432.5 77.5 c 128,-1,30
 448 99 448 99 457 145 c 0,31,32
 476 235 476 235 423 280.5 c 128,-1,33
 370 326 370 326 241 324 c 0,34,35
 238 324 238 324 236.5 324.5 c 128,-1,36
 235 325 235 325 234 325 c 0,37,38
 220 326 220 326 227 345 c 0,39,40
 236 371 236 371 258.5 386.5 c 128,-1,41
 281 402 281 402 292 401 c 0,42,43
 355 397 355 397 391 411.5 c 128,-1,44
 427 426 427 426 442.5 447 c 128,-1,45
 458 468 458 468 470 510 c 0,46,47
 493 595 493 595 461 638 c 128,-1,48
 429 681 429 681 337 682 c 0,49,50
 276 682 276 682 242.5 667 c 128,-1,51
 209 652 209 652 198.5 637.5 c 128,-1,52
 188 623 188 623 181.5 608 c 128,-1,53
 175 593 175 593 160 578.5 c 128,-1,0
 145 564 145 564 131 558.5 c 128,-1,1
EndSplineSet
Validated: 33
EndChar

StartChar: four
Encoding: 279 52 23
GlifName: four
Width: 606
GlyphClass: 2
Flags: W
LayerCount: 2
Fore
SplineSet
362 225 m 1,0,-1
 398 606 l 1,1,-1
 155 225 l 1,2,-1
 362 225 l 1,0,-1
433 225 m 1,3,-1
 558 225 l 2,4,5
 573 225 573 225 566 206 c 0,6,7
 558 181 558 181 535.5 165 c 128,-1,8
 513 149 513 149 502 149 c 2,9,-1
 426 149 l 1,10,-1
 414 26 l 2,11,12
 413 15 413 15 401 -1.5 c 128,-1,13
 389 -18 389 -18 376 -26.5 c 128,-1,14
 363 -35 363 -35 355 -37 c 0,15,16
 337 -42 337 -42 338 -26 c 2,17,-1
 355 149 l 1,18,-1
 76 149 l 2,19,20
 63 149 63 149 65.5 161 c 128,-1,21
 68 173 68 173 75 182 c 2,22,-1
 415 715 l 2,23,24
 444 761 444 761 470 754 c 0,25,26
 476 752 476 752 482 746 c 1,27,-1
 433 225 l 1,3,-1
EndSplineSet
Validated: 33
EndChar

StartChar: five
Encoding: 280 53 24
GlifName: five
Width: 600
GlyphClass: 2
Flags: W
LayerCount: 2
Fore
SplineSet
94 168.5 m 128,-1,1
 109 181 109 181 122 184 c 128,-1,2
 135 187 135 187 138 178 c 0,3,4
 180 28 180 28 330 38 c 0,5,6
 426 44 426 44 459 88 c 0,7,8
 468 100 468 100 478.5 131.5 c 128,-1,9
 489 163 489 163 492 206 c 0,10,11
 502 356 502 356 419 393 c 128,-1,12
 336 430 336 430 158 357 c 0,13,14
 146 352 146 352 140 355.5 c 128,-1,15
 134 359 134 359 136 369 c 2,16,-1
 200 697 l 2,17,18
 208 735 208 735 239 752 c 0,19,20
 251 759 251 759 266 758 c 2,21,-1
 572 758 l 2,22,23
 587 758 587 758 580 739 c 0,24,25
 572 714 572 714 549.5 698 c 128,-1,26
 527 682 527 682 516 682 c 2,27,-1
 264 682 l 1,28,-1
 216 438 l 1,29,30
 400 508 400 508 489 462.5 c 128,-1,31
 578 417 578 417 568 256.5 c 128,-1,32
 558 96 558 96 436 13 c 0,33,34
 370 -33 370 -33 278 -38 c 0,35,36
 109 -49 109 -49 62 116 c 0,37,38
 60 125 60 125 69.5 140.5 c 128,-1,0
 79 156 79 156 94 168.5 c 128,-1,1
EndSplineSet
Validated: 33
EndChar

StartChar: six
Encoding: 281 54 25
GlifName: six
Width: 596
GlyphClass: 2
Flags: W
LayerCount: 2
Fore
SplineSet
153 289 m 0,0,1
 149 38 149 38 332 38 c 0,2,3
 370 38 370 38 399 46 c 0,4,5
 441 58 441 58 455.5 78.5 c 128,-1,6
 470 99 470 99 480 136 c 0,7,8
 543 376 543 376 330 386 c 0,9,10
 226 391 226 391 172 320 c 0,11,12
 163 308 163 308 159 300 c 128,-1,13
 155 292 155 292 153 289 c 0,0,1
157 364 m 1,14,15
 258 468 258 468 386 462 c 0,16,17
 625 450 625 450 554 178 c 0,18,19
 539 122 539 122 508 78 c 0,20,21
 424 -38 424 -38 276 -38 c 0,22,23
 30 -38 30 -38 87 359 c 0,24,25
 124 622 124 622 262 716 c 0,26,27
 313 751 313 751 363 758 c 0,28,29
 557 784 557 784 590 624 c 0,30,31
 592 615 592 615 582 599 c 128,-1,32
 572 583 572 583 556.5 571 c 128,-1,33
 541 559 541 559 528.5 556.5 c 128,-1,34
 516 554 516 554 514 563 c 0,35,36
 485 705 485 705 313 682 c 0,37,38
 280 677 280 677 263.5 666 c 128,-1,39
 247 655 247 655 232 632 c 0,40,41
 176 547 176 547 157 364 c 1,14,15
EndSplineSet
Validated: 33
EndChar

StartChar: seven
Encoding: 282 55 26
GlifName: seven
Width: 536
GlyphClass: 2
Flags: W
LayerCount: 2
Fore
SplineSet
105 701 m 0,0,1
 108 710 108 710 117 723 c 128,-1,2
 126 736 126 736 142 747 c 128,-1,3
 158 758 158 758 169 758 c 2,4,-1
 558 758 l 2,5,6
 566 758 566 758 567.5 750 c 128,-1,7
 569 742 569 742 564 732 c 2,8,-1
 213 12 l 2,9,10
 206 -3 206 -3 190.5 -17 c 128,-1,11
 175 -31 175 -31 161.5 -36 c 128,-1,12
 148 -41 148 -41 143 -34 c 128,-1,13
 138 -27 138 -27 145 -12 c 2,14,-1
 484 682 l 1,15,-1
 113 682 l 2,16,17
 99 682 99 682 105 701 c 0,0,1
EndSplineSet
Validated: 1
EndChar

StartChar: eight
Encoding: 283 56 27
GlifName: eight
Width: 582
GlyphClass: 2
Flags: W
LayerCount: 2
Fore
SplineSet
382 753 m 0,0,1
 581 756 581 756 555 528 c 0,2,3
 545 440 545 440 476 380 c 1,4,5
 578 332 578 332 550 186 c 0,6,7
 539 126 539 126 504 78 c 0,8,9
 419 -39 419 -39 253 -38 c 0,10,11
 56 -37 56 -37 62 119 c 0,12,13
 65 222 65 222 115 291 c 0,14,15
 145 332 145 332 183 358 c 1,16,17
 124 399 124 399 129 491.5 c 128,-1,18
 134 584 134 584 178 646 c 0,19,20
 251 751 251 751 382 753 c 0,0,1
328 677 m 0,21,22
 295 676 295 676 271 669 c 0,23,24
 240 660 240 660 232 648 c 0,25,26
 209 616 209 616 205 546 c 0,27,28
 198 412 198 412 345 403 c 0,29,30
 358 403 358 403 371 403 c 128,-1,31
 384 403 384 403 407 406 c 0,32,33
 449 411 449 411 461 422 c 0,34,35
 466 427 466 427 471.5 444.5 c 128,-1,36
 477 462 477 462 479 478 c 0,37,38
 503 680 503 680 328 677 c 0,21,22
283 327 m 0,39,40
 247 327 247 327 219 319 c 0,41,42
 179 308 179 308 168.5 292.5 c 128,-1,43
 158 277 158 277 148.5 245.5 c 128,-1,44
 139 214 139 214 138 173 c 0,45,46
 133 39 133 39 309 38 c 0,47,48
 354 38 354 38 387 47 c 0,49,50
 437 60 437 60 452 80 c 128,-1,51
 467 100 467 100 474 140 c 0,52,53
 507 310 507 310 328 325 c 0,54,55
 305 324 305 324 283 327 c 0,39,40
EndSplineSet
Validated: 33
EndChar

StartChar: nine
Encoding: 284 57 28
GlifName: nine
Width: 573
GlyphClass: 2
Flags: W
LayerCount: 2
Fore
SplineSet
483 401 m 1,0,1
 516 681 516 681 287 682 c 0,2,3
 226 682 226 682 208 657 c 0,4,5
 196 640 196 640 184.5 600.5 c 128,-1,6
 173 561 173 561 170 508 c 0,7,8
 160 345 160 345 315 328 c 0,9,10
 419 316 419 316 471 384 c 0,11,12
 477 392 477 392 483 401 c 1,0,1
471 325 m 1,13,14
 374 238 374 238 257 252 c 0,15,16
 83 272 83 272 94 456 c 0,17,18
 98 519 98 519 111 566.5 c 128,-1,19
 124 614 124 614 155 657 c 0,20,21
 229 759 229 759 343 758 c 0,22,23
 626 757 626 757 547 375 c 0,24,25
 485 74 485 74 344 -9 c 0,26,27
 295 -38 295 -38 251 -38 c 0,28,29
 116 -38 116 -38 51 44 c 0,30,31
 46 50 46 50 53 65.5 c 128,-1,32
 60 81 60 81 74.5 95 c 128,-1,33
 89 109 89 109 103.5 114.5 c 128,-1,34
 118 120 118 120 123 114 c 0,35,36
 183 38 183 38 307 38 c 0,37,38
 337 38 337 38 351.5 47 c 128,-1,39
 366 56 366 56 380 76 c 0,40,41
 434 150 434 150 471 325 c 1,13,14
EndSplineSet
Validated: 33
EndChar

StartChar: colon
Encoding: 285 58 29
GlifName: colon
Width: 223
GlyphClass: 2
Flags: W
LayerCount: 2
Fore
SplineSet
91 164 m 0,0,1
 130 209 130 209 163 162 c 0,2,3
 191 123 191 123 158 86 c 0,4,5
 119 42 119 42 91 86.5 c 128,-1,6
 63 131 63 131 91 164 c 0,0,1
116 464 m 0,7,8
 155 509 155 509 188 462 c 0,9,10
 216 423 216 423 183 386 c 0,11,12
 144 342 144 342 116 386.5 c 128,-1,13
 88 431 88 431 116 464 c 0,7,8
EndSplineSet
Validated: 33
EndChar

StartChar: semicolon
Encoding: 286 59 30
GlifName: semicolon
Width: 206
GlyphClass: 2
Flags: W
LayerCount: 2
Fore
SplineSet
95 117.5 m 128,-1,1
 110 131 110 131 123.5 135 c 128,-1,2
 137 139 137 139 140 131 c 0,3,4
 193 5 193 5 74 -117 c 0,5,6
 60 -132 60 -132 45 -138.5 c 128,-1,7
 30 -145 30 -145 24 -139.5 c 128,-1,8
 18 -134 18 -134 24 -119.5 c 128,-1,9
 30 -105 30 -105 45 -90 c 0,10,11
 60 -74 60 -74 69.5 -53.5 c 128,-1,12
 79 -33 79 -33 80.5 -1.5 c 128,-1,13
 82 30 82 30 66 65 c 0,14,15
 63 73 63 73 71.5 88.5 c 128,-1,0
 80 104 80 104 95 117.5 c 128,-1,1
116 464 m 0,16,17
 155 509 155 509 188 462 c 0,18,19
 216 423 216 423 183 386 c 0,20,21
 144 342 144 342 116 386.5 c 128,-1,22
 88 431 88 431 116 464 c 0,16,17
EndSplineSet
Validated: 33
EndChar

StartChar: less
Encoding: 287 60 31
GlifName: less
Width: 517
GlyphClass: 2
Flags: W
LayerCount: 2
Fore
SplineSet
534 418.5 m 128,-1,1
 527 404 527 404 512 389.5 c 128,-1,2
 497 375 497 375 483 370 c 2,3,-1
 174 255 l 1,4,-1
 502 118 l 2,5,6
 510 115 510 115 506 101.5 c 128,-1,7
 502 88 502 88 488.5 73 c 128,-1,8
 475 58 475 58 459.5 49 c 128,-1,9
 444 40 444 40 436 44 c 2,10,-1
 39 209 l 2,11,12
 8 222 8 222 89 282 c 1,13,-1
 517 442 l 2,14,15
 531 447 531 447 536 440 c 128,-1,0
 541 433 541 433 534 418.5 c 128,-1,1
EndSplineSet
Validated: 33
EndChar

StartChar: equal
Encoding: 288 61 32
GlifName: equal
Width: 380
GlyphClass: 2
Flags: W
LayerCount: 2
Fore
SplineSet
51 262 m 0,0,1
 54 271 54 271 63 284 c 128,-1,2
 72 297 72 297 88 308 c 128,-1,3
 104 319 104 319 115 319 c 2,4,-1
 370 319 l 2,5,6
 385 319 385 319 378 300 c 0,7,8
 370 275 370 275 347.5 259 c 128,-1,9
 325 243 325 243 314 243 c 2,10,-1
 59 243 l 2,11,12
 45 243 45 243 51 262 c 0,0,1
41 143 m 0,13,14
 44 152 44 152 53 165 c 128,-1,15
 62 178 62 178 78 189 c 128,-1,16
 94 200 94 200 105 200 c 2,17,-1
 360 199 l 2,18,19
 375 199 375 199 368 180 c 0,20,21
 360 155 360 155 337.5 139 c 128,-1,22
 315 123 315 123 304 123 c 2,23,-1
 49 124 l 2,24,25
 35 124 35 124 41 143 c 0,13,14
EndSplineSet
Validated: 1
EndChar

StartChar: greater
Encoding: 289 62 33
GlifName: greater
Width: 487
GlyphClass: 2
Flags: W
LayerCount: 2
Fore
SplineSet
41.5 421.5 m 128,-1,1
 55 437 55 437 70.5 445.5 c 128,-1,2
 86 454 86 454 94 450 c 2,3,-1
 487 283 l 1,4,5
 494 252 494 252 466 227 c 0,6,7
 455 217 455 217 438 210 c 2,8,-1
 18 43 l 2,9,10
 4 37 4 37 -1.5 44 c 128,-1,11
 -7 51 -7 51 -0.5 65.5 c 128,-1,12
 6 80 6 80 21 94.5 c 128,-1,13
 36 109 36 109 50 115 c 2,14,-1
 357 236 l 1,15,-1
 28 376 l 2,16,17
 20 379 20 379 24 392.5 c 128,-1,0
 28 406 28 406 41.5 421.5 c 128,-1,1
EndSplineSet
Validated: 33
EndChar

StartChar: question
Encoding: 290 63 34
GlifName: question
Width: 554
GlyphClass: 2
Flags: W
LayerCount: 2
Fore
SplineSet
153.5 533 m 128,-1,1
 142 517 142 517 129 508 c 128,-1,2
 116 499 116 499 107 497 c 0,3,4
 88 492 88 492 90 508 c 0,5,6
 96 596 96 596 143 657 c 0,7,8
 201 732 201 732 278 751 c 0,9,10
 354 770 354 770 429 758 c 0,11,12
 567 743 567 743 554 546 c 0,13,14
 548 463 548 463 509.5 400 c 128,-1,15
 471 337 471 337 412 301 c 128,-1,16
 353 265 353 265 287 252 c 1,17,-1
 286 207 l 2,18,19
 286 196 286 196 274.5 180 c 128,-1,20
 263 164 263 164 250 155 c 128,-1,21
 237 146 237 146 229 143 c 0,22,23
 210 137 210 137 210 153 c 2,24,-1
 212 255 l 2,25,26
 212 278 212 278 228.5 294.5 c 128,-1,27
 245 311 245 311 260 315 c 2,28,-1
 276 320 l 1,29,30
 350 325 350 325 391 344 c 128,-1,31
 432 363 432 363 446 383 c 0,32,33
 473 422 473 422 478 493 c 0,34,35
 490 669 490 669 371 682 c 0,36,37
 313 690 313 690 272 682 c 0,38,39
 205 669 205 669 192 652 c 0,40,41
 184 642 184 642 176 617.5 c 128,-1,42
 168 593 168 593 166 560 c 0,43,0
 165 549 165 549 153.5 533 c 128,-1,1
222 84 m 128,-1,45
 234 100 234 100 246.5 109 c 128,-1,46
 259 118 259 118 268 121 c 0,47,48
 287 126 287 126 286 111 c 2,49,-1
 282 27 l 2,50,51
 281 16 281 16 269.5 0 c 128,-1,52
 258 -16 258 -16 245.5 -25 c 128,-1,53
 233 -34 233 -34 224 -37 c 0,54,55
 205 -42 205 -42 206 -27 c 2,56,-1
 210 57 l 2,57,44
 210 68 210 68 222 84 c 128,-1,45
EndSplineSet
Validated: 33
EndChar

StartChar: at
Encoding: 291 64 35
GlifName: at
Width: 831
GlyphClass: 2
Flags: W
LayerCount: 2
Fore
SplineSet
586 429 m 1,0,1
 601 448 601 448 617.5 458 c 128,-1,2
 634 468 634 468 642.5 465.5 c 128,-1,3
 651 463 651 463 648 450 c 2,4,-1
 583 169 l 1,5,6
 575 110 575 110 632 106 c 0,7,8
 674 103 674 103 695 116 c 0,9,10
 705 126 705 126 717 159.5 c 128,-1,11
 729 193 729 193 734 235 c 0,12,13
 755 403 755 403 682.5 483 c 128,-1,14
 610 563 610 563 442 556 c 0,15,16
 340 551 340 551 274 510 c 0,17,18
 175 449 175 449 139 264 c 0,19,20
 94 29 94 29 242 -49 c 0,21,22
 431 -150 431 -150 606 -57 c 0,23,24
 621 -49 621 -49 629 -53 c 128,-1,25
 637 -57 637 -57 632.5 -70.5 c 128,-1,26
 628 -84 628 -84 614.5 -99.5 c 128,-1,27
 601 -115 601 -115 586 -123 c 0,28,29
 381 -232 381 -232 176 -123 c 0,30,31
 15 -38 15 -38 63 212.5 c 128,-1,32
 111 463 111 463 286 571 c 0,33,34
 377 627 377 627 496 632 c 0,35,36
 675 640 675 640 754 553 c 128,-1,37
 833 466 833 466 810 285 c 0,38,39
 801 213 801 213 773.5 155 c 128,-1,40
 746 97 746 97 690.5 61 c 128,-1,41
 635 25 635 25 574.5 29.5 c 128,-1,42
 514 34 514 34 507 84 c 1,43,44
 396 -29 396 -29 280 21 c 0,45,46
 181 64 181 64 234 252 c 0,47,48
 262 349 262 349 339 406 c 0,49,50
 386 441 386 441 433 453 c 0,51,52
 519 475 519 475 586 429 c 1,0,1
554 324 m 2,53,54
 553 324 553 324 553 325 c 0,55,56
 481 402 481 402 391 379 c 0,57,58
 360 371 360 371 347 362 c 0,59,60
 322 343 322 343 308 292 c 0,61,62
 263 131 263 131 347 94.5 c 128,-1,63
 431 58 431 58 485 120 c 0,64,65
 499 136 499 136 507.5 149 c 128,-1,66
 516 162 516 162 517 163 c 2,67,-1
 554 324 l 2,53,54
EndSplineSet
Validated: 33
EndChar

StartChar: A
Encoding: 292 65 36
GlifName: A_
Width: 650
GlyphClass: 2
Flags: W
LayerCount: 2
Fore
SplineSet
70 -35.5 m 128,-1,1
 56 -41 56 -41 50.5 -34.5 c 128,-1,2
 45 -28 45 -28 52 -14 c 2,3,-1
 382 706 l 1,4,-1
 412 741 l 1,5,6
 449 776 449 776 454 751 c 2,7,-1
 604 31 l 2,8,9
 606 22 606 22 596 6 c 128,-1,10
 586 -10 586 -10 570.5 -22.5 c 128,-1,11
 555 -35 555 -35 542.5 -37.5 c 128,-1,12
 530 -40 530 -40 528 -31 c 2,13,-1
 481 198 l 2,14,15
 480 198 480 198 478 198 c 2,16,-1
 205 198 l 1,17,-1
 120 14 l 2,18,19
 113 -1 113 -1 98.5 -15.5 c 128,-1,0
 84 -30 84 -30 70 -35.5 c 128,-1,1
465 274 m 1,20,-1
 394 612 l 1,21,-1
 240 274 l 1,22,-1
 465 274 l 1,20,-1
EndSplineSet
Validated: 33
EndChar

StartChar: B
Encoding: 293 66 37
GlifName: B_
Width: 600
GlyphClass: 2
Flags: W
LayerCount: 2
Fore
SplineSet
479 377 m 1,0,1
 501 363 501 363 530.5 328.5 c 128,-1,2
 560 294 560 294 569.5 244.5 c 128,-1,3
 579 195 579 195 560 149.5 c 128,-1,4
 541 104 541 104 506 66 c 0,5,6
 427 -19 427 -19 291 -38 c 0,7,8
 196 -50 196 -50 71 -38 c 0,9,10
 61 -37 61 -37 62 -26 c 2,11,-1
 124 694 l 1,12,13
 136 737 136 737 166 753 c 0,14,15
 178 759 178 759 191 758 c 0,16,17
 286 749 286 749 365 733 c 128,-1,18
 444 717 444 717 486 686 c 0,19,20
 566 627 566 627 568 546 c 0,21,22
 569 458 569 458 479 377 c 1,0,1
472.5 87.5 m 128,-1,24
 480 95 480 95 490.5 121 c 128,-1,25
 501 147 501 147 493.5 187.5 c 128,-1,26
 486 228 486 228 450.5 269 c 128,-1,27
 415 310 415 310 395 312 c 0,28,29
 363 314 363 314 315.5 314 c 128,-1,30
 268 314 268 314 163 318 c 1,31,-1
 139 37 l 1,32,33
 351 18 351 18 447 69 c 0,34,23
 465 80 465 80 472.5 87.5 c 128,-1,24
170 402 m 1,35,-1
 343 394 l 2,36,37
 380 392 380 392 410 390 c 0,38,39
 439 392 439 392 466 419 c 128,-1,40
 493 446 493 446 492 485 c 0,41,42
 490 560 490 560 426 608 c 0,43,44
 379 643 379 643 291 660 c 0,45,46
 249 668 249 668 194 675 c 1,47,-1
 170 402 l 1,35,-1
EndSplineSet
Validated: 33
EndChar

StartChar: C
Encoding: 294 67 38
GlifName: C_
Width: 674
GlyphClass: 2
Flags: W
LayerCount: 2
Fore
SplineSet
630 515 m 128,-1,1
 618 499 618 499 605 490.5 c 128,-1,2
 592 482 592 482 584 480 c 0,3,4
 566 475 566 475 567 491 c 0,5,6
 571 533 571 533 553.5 573.5 c 128,-1,7
 536 614 536 614 501 641 c 128,-1,8
 466 668 466 668 423.5 676 c 128,-1,9
 381 684 381 684 341 673 c 0,10,11
 216 639 216 639 167 428 c 0,12,13
 130 269 130 269 187 163 c 0,14,15
 219 103 219 103 276 69.5 c 128,-1,16
 333 36 333 36 397.5 38 c 128,-1,17
 462 40 462 40 502 68 c 128,-1,18
 542 96 542 96 559 142 c 0,19,20
 565 156 565 156 579.5 171 c 128,-1,21
 594 186 594 186 608.5 192.5 c 128,-1,22
 623 199 623 199 629.5 193.5 c 128,-1,23
 636 188 636 188 631 174 c 0,24,25
 614 132 614 132 581.5 90.5 c 128,-1,26
 549 49 549 49 506 19 c 0,27,28
 430 -35 430 -35 350.5 -37.5 c 128,-1,29
 271 -40 271 -40 209.5 -4 c 128,-1,30
 148 32 148 32 114 95 c 0,31,32
 52 211 52 211 93 384 c 0,33,34
 139 583 139 583 271 688 c 0,35,36
 376 771 376 771 483 752 c 0,37,38
 532 743 532 743 570 713 c 128,-1,39
 608 683 608 683 628 638 c 128,-1,40
 648 593 648 593 643 543 c 0,41,0
 642 531 642 531 630 515 c 128,-1,1
EndSplineSet
Validated: 33
EndChar

StartChar: D
Encoding: 295 68 39
GlifName: D_
Width: 643
GlyphClass: 2
Flags: W
LayerCount: 2
Fore
SplineSet
51 -26 m 2,0,-1
 121 694 l 2,1,2
 127 732 127 732 158 750 c 0,3,4
 170 757 170 757 185 758 c 0,5,6
 639 785 639 785 627 387 c 0,7,8
 622 237 622 237 543.5 132.5 c 128,-1,9
 465 28 465 28 345 -10 c 128,-1,10
 225 -48 225 -48 60 -38 c 0,11,12
 50 -38 50 -38 51 -26 c 2,0,-1
128 37 m 1,13,14
 274 29 274 29 367 59.5 c 128,-1,15
 460 90 460 90 495 138 c 0,16,17
 546 207 546 207 551 333 c 0,18,19
 556 507 556 507 467 594.5 c 128,-1,20
 378 682 378 682 191 684 c 1,21,-1
 128 37 l 1,13,14
EndSplineSet
Validated: 33
EndChar

StartChar: E
Encoding: 296 69 40
GlifName: E_
Width: 576
GlyphClass: 2
Flags: W
LayerCount: 2
Fore
SplineSet
581 758 m 2,0,1
 591 758 591 758 591 748 c 0,2,3
 591 737 591 737 579.5 721 c 128,-1,4
 568 705 568 705 552 693.5 c 128,-1,5
 536 682 536 682 525 682 c 2,6,-1
 188 682 l 1,7,-1
 164 402 l 1,8,9
 334 402 334 402 505 402 c 0,10,11
 520 402 520 402 513 383 c 0,12,13
 505 358 505 358 482.5 342 c 128,-1,14
 460 326 460 326 449 326 c 0,15,16
 303 326 303 326 157 326 c 1,17,-1
 133 38 l 1,18,19
 325 38 325 38 518 38 c 0,20,21
 533 38 533 38 526 19 c 0,22,23
 518 -6 518 -6 495.5 -22 c 128,-1,24
 473 -38 473 -38 462 -38 c 2,25,-1
 69 -38 l 2,26,27
 62 -39 62 -39 58.5 -35.5 c 128,-1,28
 55 -32 55 -32 56 -24 c 2,29,-1
 117 694 l 2,30,31
 118 705 118 705 130 722 c 0,32,33
 152 751 152 751 176 757 c 0,34,35
 181 758 181 758 183 758 c 128,-1,36
 185 758 185 758 187 758 c 2,37,-1
 581 758 l 2,0,1
EndSplineSet
Validated: 1
EndChar

StartChar: F
Encoding: 297 70 41
GlifName: F_
Width: 581
GlyphClass: 2
Flags: W
LayerCount: 2
Fore
SplineSet
117 694 m 2,0,1
 118 705 118 705 135 728 c 128,-1,2
 152 751 152 751 176 757 c 0,3,4
 181 758 181 758 183 758 c 128,-1,5
 185 758 185 758 187 758 c 2,6,-1
 581 758 l 2,7,8
 596 758 596 758 589 739 c 0,9,10
 581 714 581 714 558.5 698 c 128,-1,11
 536 682 536 682 525 682 c 2,12,-1
 188 682 l 1,13,-1
 164 402 l 1,14,15
 334 402 334 402 505 402 c 0,16,17
 520 402 520 402 513 383 c 0,18,19
 505 358 505 358 482.5 342 c 128,-1,20
 460 326 460 326 449 326 c 0,21,22
 303 326 303 326 157 326 c 1,23,-1
 132 28 l 2,24,25
 133 7 133 7 102 -20 c 0,26,27
 91 -30 91 -30 77.5 -35.5 c 128,-1,28
 64 -41 64 -41 59.5 -36.5 c 128,-1,29
 55 -32 55 -32 56 -24 c 2,30,-1
 117 694 l 2,0,1
EndSplineSet
Validated: 33
EndChar

StartChar: G
Encoding: 298 71 42
GlifName: G_
Width: 637
GlyphClass: 2
Flags: W
LayerCount: 2
Fore
SplineSet
554 59 m 1,0,1
 457 -37 457 -37 337 -38 c 0,2,3
 267 -38 267 -38 207 -3 c 128,-1,4
 147 32 147 32 114 95 c 0,5,6
 77 165 77 165 77 256 c 0,7,8
 77 315 77 315 93 384 c 0,9,10
 137 578 137 578 260 682 c 0,11,12
 349 757 349 757 444 757 c 0,13,14
 511 757 511 757 558 723 c 0,15,16
 644 661 644 661 644 562 c 0,17,18
 644 553 644 553 643 542 c 128,-1,19
 642 531 642 531 630 515 c 128,-1,20
 618 499 618 499 605 490.5 c 128,-1,21
 592 482 592 482 583.5 480 c 128,-1,22
 575 478 575 478 570.5 481 c 128,-1,23
 566 484 566 484 567 491.5 c 128,-1,24
 568 499 568 499 568 506 c 0,25,26
 568 543 568 543 550.5 581.5 c 128,-1,27
 533 620 533 620 495 647 c 0,28,29
 447 681 447 681 389 681 c 0,30,31
 321 681 321 681 274 641 c 0,32,33
 253 623 253 623 231 589 c 0,34,35
 190 524 190 524 171.5 445 c 128,-1,36
 153 366 153 366 153 311 c 0,37,38
 153 227 153 227 186 165 c 0,39,40
 253 38 253 38 392 38 c 0,41,42
 460 38 460 38 508 73 c 0,43,44
 542 97 542 97 559 142 c 0,45,46
 560 145 560 145 563 148 c 2,47,-1
 577 299 l 1,48,-1
 340 302 l 2,49,50
 325 302 325 302 332 321 c 0,51,52
 340 346 340 346 362.5 362 c 128,-1,53
 385 378 385 378 396 378 c 2,54,-1
 644 375 l 2,55,56
 655 375 655 375 654 363 c 2,57,-1
 622 26 l 2,58,59
 621 15 621 15 609 -1.5 c 128,-1,60
 597 -18 597 -18 584 -26.5 c 128,-1,61
 571 -35 571 -35 563 -37 c 0,62,63
 545 -42 545 -42 546 -26 c 2,64,-1
 554 59 l 1,0,1
EndSplineSet
Validated: 1
EndChar

StartChar: H
Encoding: 299 72 43
GlifName: H_
Width: 578
GlyphClass: 2
Flags: W
LayerCount: 2
Fore
SplineSet
128 721.5 m 128,-1,1
 140 737 140 737 153 746 c 128,-1,2
 166 755 166 755 174 757 c 0,3,4
 192 762 192 762 191 746 c 2,5,-1
 162 400 l 1,6,-1
 480 400 l 1,7,-1
 505 694 l 2,8,9
 506 705 506 705 518 721 c 128,-1,10
 530 737 530 737 543 746 c 128,-1,11
 556 755 556 755 564 757 c 0,12,13
 582 762 582 762 581 746 c 2,14,-1
 520 26 l 2,15,16
 519 15 519 15 507 -1 c 128,-1,17
 495 -17 495 -17 482 -26 c 128,-1,18
 469 -35 469 -35 461 -37 c 0,19,20
 443 -42 443 -42 444 -26 c 2,21,-1
 474 324 l 1,22,-1
 155 324 l 1,23,-1
 130 26 l 2,24,25
 129 15 129 15 117 -1 c 128,-1,26
 105 -17 105 -17 92 -26 c 128,-1,27
 79 -35 79 -35 71 -37 c 0,28,29
 53 -42 53 -42 54 -26 c 2,30,-1
 115 694 l 2,31,0
 116 706 116 706 128 721.5 c 128,-1,1
EndSplineSet
Validated: 1
EndChar

StartChar: I
Encoding: 300 73 44
GlifName: I_
Width: 247
GlyphClass: 2
Flags: W
LayerCount: 2
Fore
SplineSet
146 721.5 m 128,-1,1
 158 737 158 737 171 746 c 128,-1,2
 184 755 184 755 192 757 c 0,3,4
 210 762 210 762 209 746 c 2,5,-1
 148 26 l 2,6,7
 147 15 147 15 135 -1 c 128,-1,8
 123 -17 123 -17 110 -26 c 128,-1,9
 97 -35 97 -35 89 -37 c 0,10,11
 71 -42 71 -42 72 -26 c 2,12,-1
 133 694 l 2,13,0
 134 706 134 706 146 721.5 c 128,-1,1
EndSplineSet
Validated: 1
EndChar

StartChar: J
Encoding: 301 74 45
GlifName: J_
Width: 484
GlyphClass: 2
Flags: W
LayerCount: 2
Fore
SplineSet
431.5 722 m 128,-1,1
 444 738 444 738 456.5 746.5 c 128,-1,2
 469 755 469 755 477.5 757 c 128,-1,3
 486 759 486 759 490.5 756 c 128,-1,4
 495 753 495 753 494 745 c 2,5,-1
 430 173 l 2,6,7
 423 104 423 104 387 55 c 0,8,9
 320 -39 320 -39 206 -38 c 0,10,11
 37 -37 37 -37 30 122 c 0,12,13
 30 132 30 132 40.5 148 c 128,-1,14
 51 164 51 164 64 173.5 c 128,-1,15
 77 183 77 183 86 186 c 0,16,17
 105 193 105 193 106 178 c 0,18,19
 113 39 113 39 262 38 c 0,20,21
 313 38 313 38 333 53 c 0,22,23
 339 60 339 60 345.5 82 c 128,-1,24
 352 104 352 104 354 123 c 2,25,-1
 418 695 l 2,26,0
 419 706 419 706 431.5 722 c 128,-1,1
EndSplineSet
Validated: 33
EndChar

StartChar: K
Encoding: 302 75 46
GlifName: K_
Width: 580
GlyphClass: 2
Flags: W
LayerCount: 2
Fore
SplineSet
106 722 m 128,-1,1
 118 738 118 738 131 746.5 c 128,-1,2
 144 755 144 755 152 757 c 0,3,4
 170 762 170 762 169 746 c 2,5,-1
 132 329 l 1,6,-1
 486 729 l 2,7,8
 499 744 499 744 514.5 752.5 c 128,-1,9
 530 761 530 761 538 757.5 c 128,-1,10
 546 754 546 754 542 740.5 c 128,-1,11
 538 727 538 727 524 711 c 2,12,-1
 302 460 l 1,13,-1
 530 33 l 2,14,15
 534 26 534 26 526 10.5 c 128,-1,16
 518 -5 518 -5 503 -18.5 c 128,-1,17
 488 -32 488 -32 474 -36.5 c 128,-1,18
 460 -41 460 -41 456 -33 c 2,19,-1
 234 383 l 1,20,-1
 126 261 l 1,21,-1
 105 26 l 2,22,23
 104 15 104 15 92 -1 c 128,-1,24
 80 -17 80 -17 67 -26 c 128,-1,25
 54 -35 54 -35 46 -37 c 0,26,27
 28 -42 28 -42 29 -26 c 2,28,-1
 93 694 l 2,29,0
 94 706 94 706 106 722 c 128,-1,1
EndSplineSet
Validated: 1
EndChar

StartChar: L
Encoding: 303 76 47
GlifName: L_
Width: 541
GlyphClass: 2
Flags: W
LayerCount: 2
Fore
SplineSet
66 -38 m 2,0,1
 55 -38 55 -38 56 -26 c 2,2,-1
 117 694 l 2,3,4
 118 705 118 705 130 721 c 128,-1,5
 142 737 142 737 155 746 c 128,-1,6
 168 755 168 755 176 757 c 0,7,8
 194 762 194 762 193 746 c 2,9,-1
 133 38 l 1,10,-1
 485 38 l 2,11,12
 500 38 500 38 493 19 c 0,13,14
 485 -6 485 -6 462.5 -22 c 128,-1,15
 440 -38 440 -38 429 -38 c 2,16,-1
 66 -38 l 2,0,1
EndSplineSet
Validated: 1
EndChar

StartChar: M
Encoding: 304 77 48
GlifName: M_
Width: 735
GlyphClass: 2
Flags: W
LayerCount: 2
Fore
SplineSet
674 -1.5 m 128,-1,1
 662 -17 662 -17 649 -26 c 128,-1,2
 636 -35 636 -35 628 -37 c 0,3,4
 610 -42 610 -42 611 -26 c 2,5,-1
 664 591 l 1,6,-1
 417 156 l 2,7,8
 396 125 396 125 380.5 114 c 128,-1,9
 365 103 365 103 358.5 104.5 c 128,-1,10
 352 106 352 106 348 116 c 2,11,-1
 172 551 l 1,12,-1
 117 25 l 2,13,14
 116 13 116 13 104 -2.5 c 128,-1,15
 92 -18 92 -18 79 -26.5 c 128,-1,16
 66 -35 66 -35 58 -37 c 0,17,18
 40 -41 40 -41 41 -25 c 2,19,-1
 116 695 l 2,20,21
 117 707 117 707 136 721 c 128,-1,22
 155 735 155 735 173 744 c 2,23,-1
 191 753 l 1,24,-1
 403 227 l 1,25,-1
 679 712 l 2,26,27
 703 753 703 753 734 751 c 0,28,29
 741 751 741 751 749 746 c 1,30,-1
 687 26 l 2,31,0
 686 14 686 14 674 -1.5 c 128,-1,1
EndSplineSet
Validated: 33
EndChar

StartChar: N
Encoding: 305 78 49
GlifName: N_
Width: 607
GlyphClass: 2
Flags: W
LayerCount: 2
Fore
SplineSet
117 -2 m 128,-1,1
 105 -18 105 -18 92 -26.5 c 128,-1,2
 79 -35 79 -35 71 -37 c 0,3,4
 53 -42 53 -42 54 -26 c 2,5,-1
 124 694 l 1,6,7
 162 741 162 741 178.5 750.5 c 128,-1,8
 195 760 195 760 199 753 c 2,9,-1
 495 153 l 1,10,-1
 542 694 l 2,11,12
 543 705 543 705 555 721.5 c 128,-1,13
 567 738 567 738 580 746.5 c 128,-1,14
 593 755 593 755 601 757 c 0,15,16
 619 762 619 762 618 746 c 2,17,-1
 555 26 l 2,18,19
 554 14 554 14 535 -1 c 128,-1,20
 516 -16 516 -16 498 -24 c 2,21,-1
 480 -33 l 1,22,-1
 183 570 l 1,23,-1
 130 26 l 2,24,0
 129 14 129 14 117 -2 c 128,-1,1
EndSplineSet
Validated: 1
EndChar

StartChar: O
Encoding: 306 79 50
GlifName: O_
Width: 673
GlyphClass: 2
Flags: W
LayerCount: 2
Fore
SplineSet
432 758 m 0,0,1
 694 750 694 750 656 363 c 0,2,3
 639 193 639 193 567 94 c 0,4,5
 466 -43 466 -43 304 -38 c 0,6,7
 41 -30 41 -30 76 327 c 0,8,9
 85 423 85 423 107.5 495 c 128,-1,10
 130 567 130 567 174 625 c 0,11,12
 275 763 275 763 432 758 c 0,0,1
376 682 m 0,13,14
 270 685 270 685 225 624 c 0,15,16
 201 591 201 591 180.5 527 c 128,-1,17
 160 463 160 463 152 379 c 0,18,19
 119 46 119 46 360 38 c 0,20,21
 470 34 470 34 515 95 c 0,22,23
 537 125 537 125 555 181.5 c 128,-1,24
 573 238 573 238 580 311 c 0,25,26
 616 674 616 674 376 682 c 0,13,14
EndSplineSet
Validated: 33
EndChar

StartChar: P
Encoding: 307 80 51
GlifName: P_
Width: 569
GlyphClass: 2
Flags: W
LayerCount: 2
Fore
SplineSet
117 694 m 2,0,1
 118 705 118 705 135 728 c 0,2,3
 156 756 156 756 181 758 c 1,4,5
 297 801 297 801 406 757 c 0,6,7
 482 727 482 727 526.5 660.5 c 128,-1,8
 571 594 571 594 560 513 c 0,9,10
 554 467 554 467 526 418.5 c 128,-1,11
 498 370 498 370 451 331 c 0,12,13
 376 268 376 268 277 248 c 0,14,15
 214 236 214 236 150 243 c 1,16,-1
 132 28 l 2,17,18
 133 7 133 7 102 -20 c 0,19,20
 91 -30 91 -30 77.5 -35.5 c 128,-1,21
 64 -41 64 -41 59.5 -36.5 c 128,-1,22
 55 -32 55 -32 56 -24 c 2,23,-1
 117 694 l 2,0,1
189 698 m 1,24,-1
 158 328 l 1,25,26
 243 308 243 308 319.5 322.5 c 128,-1,27
 396 337 396 337 436 371 c 128,-1,28
 476 405 476 405 485 469 c 128,-1,29
 494 533 494 533 453.5 593.5 c 128,-1,30
 413 654 413 654 351.5 678 c 128,-1,31
 290 702 290 702 251.5 702 c 128,-1,32
 213 702 213 702 189 698 c 1,24,-1
EndSplineSet
Validated: 33
EndChar

StartChar: Q
Encoding: 308 81 52
GlifName: Q_
Width: 668
GlyphClass: 2
Flags: W
LayerCount: 2
Fore
SplineSet
432 758 m 0,0,1
 694 750 694 750 656 363 c 0,2,3
 636 164 636 164 536 57 c 1,4,-1
 636 -97 l 2,5,6
 641 -104 641 -104 633.5 -119 c 128,-1,7
 626 -134 626 -134 611 -148 c 128,-1,8
 596 -162 596 -162 582 -167 c 128,-1,9
 568 -172 568 -172 564 -165 c 2,10,-1
 459 -3 l 1,11,12
 390 -40 390 -40 304 -38 c 0,13,14
 41 -30 41 -30 76 327 c 0,15,16
 85 423 85 423 107.5 495 c 128,-1,17
 130 567 130 567 174 625 c 0,18,19
 275 763 275 763 432 758 c 0,0,1
376 682 m 0,20,21
 270 685 270 685 225 624 c 0,22,23
 201 591 201 591 180.5 527 c 128,-1,24
 160 463 160 463 152 379 c 0,25,26
 119 46 119 46 360 38 c 0,27,28
 398 37 398 37 428 43 c 1,29,-1
 412 69 l 2,30,31
 407 76 407 76 414.5 91 c 128,-1,32
 422 106 422 106 437 120 c 128,-1,33
 452 134 452 134 466 139 c 128,-1,34
 480 144 480 144 484 137 c 2,35,-1
 513 93 l 1,36,37
 536 122 536 122 554.5 180 c 128,-1,38
 573 238 573 238 580 311 c 0,39,40
 616 674 616 674 376 682 c 0,20,21
EndSplineSet
Validated: 33
EndChar

StartChar: R
Encoding: 309 82 53
GlifName: R_
Width: 597
GlyphClass: 2
Flags: W
LayerCount: 2
Fore
SplineSet
319 259 m 1,0,1
 260 241 260 241 216.5 241 c 128,-1,2
 173 241 173 241 150 243 c 1,3,-1
 132 26 l 2,4,5
 131 15 131 15 119 -1 c 128,-1,6
 107 -17 107 -17 94 -26 c 128,-1,7
 81 -35 81 -35 73 -37 c 0,8,9
 55 -42 55 -42 56 -26 c 2,10,-1
 117 694 l 2,11,12
 118 705 118 705 130 722 c 0,13,14
 155 755 155 755 180 758 c 1,15,16
 239 782 239 782 301.5 782 c 128,-1,17
 364 782 364 782 419 757 c 0,18,19
 491 724 491 724 526.5 666 c 128,-1,20
 562 608 562 608 562 545 c 0,21,22
 562 426 562 426 451 331 c 0,23,24
 429 312 429 312 405 298 c 1,25,-1
 517 33 l 2,26,27
 520 25 520 25 511.5 9.5 c 128,-1,28
 503 -6 503 -6 488 -19.5 c 128,-1,29
 473 -33 473 -33 459.5 -37 c 128,-1,30
 446 -41 446 -41 443 -33 c 2,31,-1
 319 259 l 1,0,1
381 340 m 1,32,33
 486 382 486 382 486 490 c 0,34,35
 486 545 486 545 453.5 599 c 128,-1,36
 421 653 421 653 362 679.5 c 128,-1,37
 303 706 303 706 245 706 c 0,38,39
 216 706 216 706 189 700 c 1,40,-1
 158 328 l 1,41,42
 262 303 262 303 357 332 c 1,43,44
 371 341 371 341 381 340 c 1,32,33
EndSplineSet
Validated: 33
EndChar

StartChar: S
Encoding: 310 83 54
GlifName: S_
Width: 624
GlyphClass: 2
Flags: W
LayerCount: 2
Fore
SplineSet
594 539.5 m 128,-1,1
 579 526 579 526 565 521.5 c 128,-1,2
 551 517 551 517 547 524 c 0,3,4
 513 589 513 589 453 632 c 128,-1,5
 393 675 393 675 325 682 c 0,6,7
 283 686 283 686 251.5 676.5 c 128,-1,8
 220 667 220 667 207.5 654 c 128,-1,9
 195 641 195 641 189 607.5 c 128,-1,10
 183 574 183 574 200 534 c 128,-1,11
 217 494 217 494 254 467.5 c 128,-1,12
 291 441 291 441 345 422 c 0,13,14
 348 421 348 421 384 408.5 c 128,-1,15
 420 396 420 396 439 388 c 0,16,17
 568 333 568 333 584 225 c 0,18,19
 595 153 595 153 549 84 c 0,20,21
 523 44 523 44 485 15 c 0,22,23
 390 -57 390 -57 278 -38 c 0,24,25
 203 -25 203 -25 141 23.5 c 128,-1,26
 79 72 79 72 45 142 c 0,27,28
 41 150 41 150 49.5 165 c 128,-1,29
 58 180 58 180 73 193.5 c 128,-1,30
 88 207 88 207 101.5 211.5 c 128,-1,31
 115 216 115 216 119 208 c 0,32,33
 152 142 152 142 210.5 96 c 128,-1,34
 269 50 269 50 332.5 39 c 128,-1,35
 396 28 396 28 437.5 42.5 c 128,-1,36
 479 57 479 57 492 77 c 0,37,38
 516 114 516 114 508 167 c 0,39,40
 494 262 494 262 374 314 c 0,41,42
 356 322 356 322 320 333 c 0,43,44
 227 365 227 365 186 395 c 128,-1,45
 145 425 145 425 125 470.5 c 128,-1,46
 105 516 105 516 115.5 571 c 128,-1,47
 126 626 126 626 175 678 c 0,48,49
 264 770 264 770 383 758 c 0,50,51
 458 750 458 750 521.5 704.5 c 128,-1,52
 585 659 585 659 621 591 c 0,53,54
 625 584 625 584 617 568.5 c 128,-1,0
 609 553 609 553 594 539.5 c 128,-1,1
EndSplineSet
Validated: 33
EndChar

StartChar: T
Encoding: 311 84 55
GlifName: T_
Width: 527
GlyphClass: 2
Flags: W
LayerCount: 2
Fore
SplineSet
34 701 m 0,0,1
 37 710 37 710 46 723 c 128,-1,2
 55 736 55 736 71 747 c 128,-1,3
 87 758 87 758 98 758 c 2,4,-1
 551 758 l 2,5,6
 566 758 566 758 559 739 c 0,7,8
 551 714 551 714 528.5 698 c 128,-1,9
 506 682 506 682 495 682 c 2,10,-1
 340 682 l 1,11,-1
 284 26 l 2,12,13
 283 15 283 15 271 -1 c 128,-1,14
 259 -17 259 -17 246 -26 c 128,-1,15
 233 -35 233 -35 225 -37 c 0,16,17
 207 -42 207 -42 208 -26 c 2,18,-1
 268 682 l 1,19,-1
 42 682 l 2,20,21
 28 682 28 682 34 701 c 0,0,1
EndSplineSet
Validated: 1
EndChar

StartChar: U
Encoding: 312 85 56
GlifName: U_
Width: 620
GlyphClass: 2
Flags: W
LayerCount: 2
Fore
SplineSet
569 722 m 128,-1,1
 581 738 581 738 594 746.5 c 128,-1,2
 607 755 607 755 615 757 c 0,3,4
 633 762 633 762 632 746 c 2,5,-1
 581 180 l 2,6,7
 581 177 581 177 580 174 c 0,8,9
 564 123 564 123 533 81 c 0,10,11
 479 9 479 9 409.5 -16.5 c 128,-1,12
 340 -42 340 -42 255 -38 c 0,13,14
 50 -26 50 -26 76 175 c 1,15,-1
 118 694 l 2,16,17
 119 705 119 705 131 721 c 128,-1,18
 143 737 143 737 155.5 746 c 128,-1,19
 168 755 168 755 177 757 c 0,20,21
 195 762 195 762 194 746 c 2,22,-1
 152 225 l 1,23,24
 129 48 129 48 313 38 c 0,25,26
 385 34 385 34 427 49.5 c 128,-1,27
 469 65 469 65 482.5 83 c 128,-1,28
 496 101 496 101 505 131 c 1,29,-1
 556 694 l 2,30,0
 557 706 557 706 569 722 c 128,-1,1
EndSplineSet
Validated: 33
EndChar

StartChar: V
Encoding: 313 86 57
GlifName: V_
Width: 613
GlyphClass: 2
Flags: W
LayerCount: 2
Fore
SplineSet
108.5 742 m 128,-1,1
 124 755 124 755 136.5 757.5 c 128,-1,2
 149 760 149 760 152 751 c 2,3,-1
 317 111 l 1,4,-1
 561 704 l 2,5,6
 567 718 567 718 581.5 733 c 128,-1,7
 596 748 596 748 610.5 754.5 c 128,-1,8
 625 761 625 761 631 755.5 c 128,-1,9
 637 750 637 750 631 736 c 2,10,-1
 335 16 l 2,11,12
 325 -9 325 -9 307 -20.5 c 128,-1,13
 289 -32 289 -32 276 -32 c 2,14,-1
 262 -31 l 1,15,-1
 76 689 l 2,16,17
 74 698 74 698 83.5 713.5 c 128,-1,0
 93 729 93 729 108.5 742 c 128,-1,1
EndSplineSet
Validated: 1
EndChar

StartChar: W
Encoding: 314 87 58
GlifName: W_
Width: 899
GlyphClass: 2
Flags: W
LayerCount: 2
Fore
SplineSet
916.5 754 m 128,-1,1
 931 761 931 761 938 756.5 c 128,-1,2
 945 752 945 752 940 738 c 2,3,-1
 678 18 l 1,4,-1
 645 -17 l 2,5,6
 608 -51 608 -51 604 -31 c 2,7,-1
 488 485 l 1,8,-1
 297 16 l 1,9,-1
 265 -19 l 2,10,11
 228 -54 228 -54 224 -30 c 2,12,-1
 84 690 l 2,13,14
 82 699 82 699 92 715 c 128,-1,15
 102 731 102 731 117.5 743 c 128,-1,16
 133 755 133 755 145.5 757.5 c 128,-1,17
 158 760 158 760 160 751 c 2,18,-1
 282 121 l 1,19,-1
 471 586 l 2,20,21
 481 610 481 610 499 622 c 128,-1,22
 517 634 517 634 530 633 c 2,23,-1
 544 633 l 1,24,-1
 658 126 l 1,25,-1
 868 702 l 2,26,27
 873 716 873 716 887.5 731.5 c 128,-1,0
 902 747 902 747 916.5 754 c 128,-1,1
EndSplineSet
Validated: 33
EndChar

StartChar: X
Encoding: 315 88 59
GlifName: X_
Width: 644
GlyphClass: 2
Flags: W
LayerCount: 2
Fore
SplineSet
130 738 m 128,-1,1
 145 752 145 752 158.5 756.5 c 128,-1,2
 172 761 172 761 177 754 c 2,3,-1
 369 425 l 1,4,-1
 598 723 l 2,5,6
 610 739 610 739 625.5 749 c 128,-1,7
 641 759 641 759 649.5 758 c 128,-1,8
 658 757 658 757 659 752 c 0,9,10
 663 740 663 740 646 718 c 2,11,-1
 391 386 l 1,12,-1
 597 34 l 2,13,14
 601 27 601 27 593 11.5 c 128,-1,15
 585 -4 585 -4 570 -18 c 128,-1,16
 555 -32 555 -32 541.5 -36.5 c 128,-1,17
 528 -41 528 -41 523 -34 c 2,18,-1
 327 303 l 1,19,-1
 92 -2 l 2,20,21
 80 -18 80 -18 64.5 -28.5 c 128,-1,22
 49 -39 49 -39 40.5 -38 c 128,-1,23
 32 -37 32 -37 31 -32 c 0,24,25
 27 -20 27 -20 44 2 c 2,26,-1
 304 342 l 1,27,-1
 103 686 l 2,28,29
 99 693 99 693 107 708.5 c 128,-1,0
 115 724 115 724 130 738 c 128,-1,1
EndSplineSet
Validated: 33
EndChar

StartChar: Y
Encoding: 316 89 60
GlifName: Y_
Width: 539
GlyphClass: 2
Flags: W
LayerCount: 2
Fore
SplineSet
68 739.5 m 128,-1,1
 83 753 83 753 96.5 757 c 128,-1,2
 110 761 110 761 114 753 c 2,3,-1
 308 333 l 1,4,-1
 545 714 l 2,5,6
 555 729 555 729 570.5 742 c 128,-1,7
 586 755 586 755 598.5 757.5 c 128,-1,8
 611 760 611 760 613 750.5 c 128,-1,9
 615 741 615 741 605 726 c 2,10,-1
 326 277 l 1,11,-1
 304 26 l 2,12,13
 303 15 303 15 291 -1 c 128,-1,14
 279 -17 279 -17 266 -26 c 128,-1,15
 253 -35 253 -35 245 -37 c 0,16,17
 227 -42 227 -42 228 -26 c 2,18,-1
 251 230 l 1,19,-1
 40 687 l 2,20,21
 36 695 36 695 44.5 710.5 c 128,-1,0
 53 726 53 726 68 739.5 c 128,-1,1
EndSplineSet
Validated: 1
EndChar

StartChar: Z
Encoding: 317 90 61
GlifName: Z_
Width: 627
GlyphClass: 2
Flags: W
LayerCount: 2
Fore
SplineSet
134 701 m 0,0,1
 137 710 137 710 146 723 c 128,-1,2
 155 736 155 736 171 747 c 128,-1,3
 187 758 187 758 198 758 c 2,4,-1
 636 758 l 2,5,6
 651 758 651 758 645 739 c 0,7,8
 642 730 642 730 634 719 c 2,9,-1
 130 38 l 1,10,-1
 584 38 l 2,11,12
 599 38 599 38 592 19 c 0,13,14
 584 -6 584 -6 561.5 -22 c 128,-1,15
 539 -38 539 -38 528 -38 c 2,16,-1
 48 -38 l 2,17,18
 30 -38 30 -38 42 -13 c 0,19,20
 45 -6 45 -6 50 1 c 2,21,-1
 554 682 l 1,22,-1
 142 682 l 2,23,24
 128 682 128 682 134 701 c 0,0,1
EndSplineSet
Validated: 1
EndChar

StartChar: bracketleft
Encoding: 318 91 62
GlifName: bracketleft
Width: 363
GlyphClass: 2
Flags: W
LayerCount: 2
Fore
SplineSet
335 739 m 0,0,1
 332 730 332 730 323 717.5 c 128,-1,2
 314 705 314 705 298 693.5 c 128,-1,3
 282 682 282 682 271 682 c 2,4,-1
 185 682 l 1,5,-1
 128 38 l 1,6,-1
 291 38 l 2,7,8
 306 38 306 38 299 19 c 0,9,10
 291 -6 291 -6 268.5 -22 c 128,-1,11
 246 -38 246 -38 235 -38 c 2,12,-1
 61 -38 l 2,13,14
 49 -38 49 -38 51 -26 c 2,15,-1
 115 694 l 2,16,17
 117 719 117 719 133.5 735 c 128,-1,18
 150 751 150 751 165 755 c 2,19,-1
 181 758 l 1,20,-1
 327 758 l 2,21,22
 341 758 341 758 335 739 c 0,0,1
EndSplineSet
Validated: 1
EndChar

StartChar: backslash
Encoding: 319 92 63
GlifName: backslash
Width: 314
GlyphClass: 2
Flags: W
LayerCount: 2
Fore
SplineSet
112.5 742.5 m 128,-1,1
 128 755 128 755 140.5 757.5 c 128,-1,2
 153 760 153 760 155 751 c 2,3,-1
 297 30 l 2,4,5
 299 21 299 21 289 5.5 c 128,-1,6
 279 -10 279 -10 263.5 -22.5 c 128,-1,7
 248 -35 248 -35 235.5 -37.5 c 128,-1,8
 223 -40 223 -40 221 -30 c 2,9,-1
 79 690 l 2,10,11
 77 699 77 699 87 714.5 c 128,-1,0
 97 730 97 730 112.5 742.5 c 128,-1,1
EndSplineSet
Validated: 1
EndChar

StartChar: bracketright
Encoding: 320 93 64
GlifName: bracketright
Width: 338
GlyphClass: 2
Flags: W
LayerCount: 2
Fore
SplineSet
118 701 m 0,0,1
 121 710 121 710 130 723 c 128,-1,2
 139 736 139 736 155 747 c 128,-1,3
 171 758 171 758 182 758 c 2,4,-1
 334 758 l 2,5,6
 345 758 345 758 344 746 c 2,7,-1
 284 26 l 1,8,9
 275 -14 275 -14 245 -31 c 0,10,11
 233 -38 233 -38 218 -38 c 2,12,-1
 64 -38 l 2,13,14
 49 -38 49 -38 56 -19 c 0,15,16
 64 6 64 6 86.5 22 c 128,-1,17
 109 38 109 38 120 38 c 2,18,-1
 213 38 l 1,19,-1
 267 682 l 1,20,-1
 126 682 l 2,21,22
 112 682 112 682 118 701 c 0,0,1
EndSplineSet
Validated: 1
EndChar

StartChar: asciicircum
Encoding: 321 94 65
GlifName: asciicircum
Width: 488
GlyphClass: 2
Flags: W
LayerCount: 2
Fore
SplineSet
78 20.5 m 128,-1,1
 64 15 64 15 58.5 21.5 c 128,-1,2
 53 28 53 28 59 42 c 2,3,-1
 261 489 l 1,4,-1
 291 523 l 2,5,6
 327 559 327 559 334 534 c 2,7,-1
 456 81 l 2,8,9
 458 72 458 72 448.5 56.5 c 128,-1,10
 439 41 439 41 423.5 28.5 c 128,-1,11
 408 16 408 16 395.5 13 c 128,-1,12
 383 10 383 10 380 19 c 2,13,-1
 278 400 l 1,14,-1
 129 70 l 2,15,16
 122 56 122 56 107 41 c 128,-1,0
 92 26 92 26 78 20.5 c 128,-1,1
EndSplineSet
Validated: 33
EndChar

StartChar: underscore
Encoding: 322 95 66
GlifName: underscore
Width: 404
GlyphClass: 2
Flags: W
LayerCount: 2
Fore
SplineSet
10 -19 m 0,0,1
 13 -10 13 -10 22 3 c 128,-1,2
 31 16 31 16 47 27 c 128,-1,3
 63 38 63 38 74 38 c 2,4,-1
 375 38 l 2,5,6
 390 38 390 38 383 19 c 0,7,8
 375 -6 375 -6 352.5 -22 c 128,-1,9
 330 -38 330 -38 319 -38 c 2,10,-1
 18 -38 l 2,11,12
 4 -38 4 -38 10 -19 c 0,0,1
EndSplineSet
Validated: 1
EndChar

StartChar: grave
Encoding: 323 96 67
GlifName: grave
Width: 244
GlyphClass: 2
Flags: W
LayerCount: 2
Fore
SplineSet
109 751 m 128,-1,1
 124 765 124 765 138 770.5 c 128,-1,2
 152 776 152 776 157 769 c 2,3,-1
 266 619 l 2,4,5
 271 612 271 612 264 597.5 c 128,-1,6
 257 583 257 583 242 569 c 128,-1,7
 227 555 227 555 213 549.5 c 128,-1,8
 199 544 199 544 194 551 c 2,9,-1
 85 701 l 2,10,11
 80 708 80 708 87 722.5 c 128,-1,0
 94 737 94 737 109 751 c 128,-1,1
EndSplineSet
Validated: 1
EndChar

StartChar: a
Encoding: 324 97 68
GlifName: a
Width: 516
GlyphClass: 2
Flags: W
LayerCount: 2
Fore
SplineSet
509 60.5 m 128,-1,1
 511 51 511 51 500.5 35 c 128,-1,2
 490 19 490 19 465 -1 c 128,-1,3
 440 -21 440 -21 412 -32 c 0,4,5
 357 -54 357 -54 344 -12 c 0,6,7
 338 5 338 5 339 51 c 1,8,9
 287 -12 287 -12 234 -31 c 128,-1,10
 181 -50 181 -50 135 -37 c 0,11,12
 -8 3 -8 3 49 293 c 0,13,14
 68 389 68 389 116 451 c 0,15,16
 198 557 198 557 317 541 c 0,17,18
 367 535 367 535 395 504 c 1,19,20
 418 535 418 535 443 541 c 0,21,22
 451 543 451 543 455.5 539.5 c 128,-1,23
 460 536 460 536 459 528 c 0,24,25
 401 105 401 105 418 52 c 0,26,27
 426 28 426 28 444 37 c 0,28,29
 452 41 452 41 467 53.5 c 128,-1,30
 482 66 482 66 494.5 68 c 128,-1,0
 507 70 507 70 509 60.5 c 128,-1,1
344 151 m 1,31,32
 351 231 351 231 354 253 c 0,33,34
 380 449 380 449 257 465 c 0,35,36
 227 469 227 469 205 464 c 0,37,38
 175 458 175 458 164 445 c 0,39,40
 139 413 139 413 123 331 c 128,-1,41
 107 249 107 249 109 186 c 0,42,43
 115 62 115 62 197 39 c 0,44,45
 260 21 260 21 294 62 c 0,46,47
 319 92 319 92 344 151 c 1,31,32
EndSplineSet
Validated: 33
EndChar

StartChar: b
Encoding: 325 98 69
GlifName: b
Width: 510
GlyphClass: 2
Flags: W
LayerCount: 2
Fore
SplineSet
260 -38 m 0,0,1
 175 -38 175 -38 129 20 c 1,2,3
 126 10 126 10 115.5 -3.5 c 128,-1,4
 105 -17 105 -17 92 -26 c 128,-1,5
 79 -35 79 -35 71 -37 c 0,6,7
 53 -42 53 -42 54 -26 c 2,8,-1
 124 773 l 2,9,10
 125 784 125 784 137 800 c 128,-1,11
 149 816 149 816 162 825 c 128,-1,12
 175 834 175 834 183 836 c 0,13,14
 201 841 201 841 200 825 c 2,15,-1
 171 492 l 1,16,17
 225 542 225 542 290 541 c 0,18,19
 417 540 417 540 464 465 c 128,-1,20
 511 390 511 390 480 254.5 c 128,-1,21
 449 119 449 119 401 51 c 0,22,23
 369 7 369 7 330.5 -15.5 c 128,-1,24
 292 -38 292 -38 260 -38 c 0,0,1
150 251 m 2,25,26
 150 250 150 250 150 249 c 0,27,28
 167 38 167 38 316 38 c 0,29,30
 337 38 337 38 340.5 41.5 c 128,-1,31
 344 45 344 45 346 48 c 2,32,-1
 348 51 l 2,33,34
 379 94 379 94 403 198 c 0,35,36
 433 332 433 332 391.5 398 c 128,-1,37
 350 464 350 464 234 465 c 0,38,39
 205 465 205 465 191 456 c 1,40,41
 178 440 178 440 168 391.5 c 128,-1,42
 158 343 158 343 157 320.5 c 128,-1,43
 156 298 156 298 153 292 c 2,44,-1
 150 251 l 2,25,26
EndSplineSet
Validated: 33
EndChar

StartChar: c
Encoding: 326 99 70
GlifName: c
Width: 519
GlyphClass: 2
Flags: W
LayerCount: 2
Fore
SplineSet
438.5 113 m 128,-1,1
 454 123 454 123 463.5 121 c 128,-1,2
 473 119 473 119 471 107 c 0,3,4
 464 68 464 68 441 37.5 c 128,-1,5
 418 7 418 7 393.5 -10 c 128,-1,6
 369 -27 369 -27 347 -33 c 0,7,8
 297 -45 297 -45 262 -38 c 0,9,10
 30 -15 30 -15 73 231 c 0,11,12
 111 444 111 444 237 516 c 0,13,14
 286 544 286 544 332 546 c 0,15,16
 493 552 493 552 499 393 c 0,17,18
 499 383 499 383 488.5 367 c 128,-1,19
 478 351 478 351 465 341.5 c 128,-1,20
 452 332 452 332 443 329 c 0,21,22
 424 322 424 322 423 337 c 0,23,24
 417 475 417 475 278 469 c 0,25,26
 234 467 234 467 216 451 c 0,27,28
 172 410 172 410 150.5 289.5 c 128,-1,29
 129 169 129 169 171.5 109 c 128,-1,30
 214 49 214 49 320 38 c 0,31,32
 365 34 365 34 391 43 c 1,33,34
 394 50 394 50 395.5 61 c 128,-1,35
 397 72 397 72 410 87.5 c 128,-1,0
 423 103 423 103 438.5 113 c 128,-1,1
EndSplineSet
Validated: 33
EndChar

StartChar: d
Encoding: 327 100 71
GlifName: d
Width: 491
GlyphClass: 2
Flags: W
LayerCount: 2
Fore
SplineSet
442 801.5 m 128,-1,1
 454 817 454 817 467 826 c 128,-1,2
 480 835 480 835 488 837 c 0,3,4
 506 842 506 842 505 826 c 2,5,-1
 437 26 l 2,6,7
 436 15 436 15 424 -1 c 128,-1,8
 412 -17 412 -17 399 -26 c 128,-1,9
 386 -35 386 -35 378 -37 c 0,10,11
 360 -42 360 -42 361 -26 c 2,12,-1
 368 53 l 1,13,14
 317 -10 317 -10 263 -30 c 128,-1,15
 209 -50 209 -50 163 -37 c 0,16,17
 21 4 21 4 77 293 c 0,18,19
 96 389 96 389 144 451 c 0,20,21
 227 557 227 557 345 541 c 0,22,23
 382 536 382 536 407 519 c 1,24,-1
 429 774 l 2,25,0
 430 786 430 786 442 801.5 c 128,-1,1
393 347 m 1,26,27
 380 454 380 454 285 465 c 0,28,29
 256 468 256 468 234 464 c 0,30,31
 202 458 202 458 192 445 c 0,32,33
 167 412 167 412 153 339 c 0,34,35
 101 73 101 73 225 39 c 0,36,37
 288 21 288 21 322 62 c 0,38,39
 348 93 348 93 374 155 c 0,40,41
 375 158 375 158 377 161 c 2,42,-1
 393 347 l 1,26,27
EndSplineSet
Validated: 33
EndChar

StartChar: e
Encoding: 328 101 72
GlifName: e
Width: 526
GlyphClass: 2
Flags: W
LayerCount: 2
Fore
SplineSet
143 234 m 1,0,1
 139 49 139 49 304 38 c 0,2,3
 339 35 339 35 367 40 c 0,4,5
 403 46 403 46 407 54 c 0,6,7
 415 69 415 69 430.5 83 c 128,-1,8
 446 97 446 97 459 101.5 c 128,-1,9
 472 106 472 106 477 98 c 0,10,11
 484 85 484 85 458 51 c 128,-1,12
 432 17 432 17 404.5 -2.5 c 128,-1,13
 377 -22 377 -22 351 -29 c 0,14,15
 293 -45 293 -45 246 -38 c 0,16,17
 49 -25 49 -25 69 211 c 0,18,19
 75 284 75 284 91 337.5 c 128,-1,20
 107 391 107 391 142 438 c 0,21,22
 222 546 222 546 341 541 c 0,23,24
 530 534 530 534 499 290 c 0,25,26
 490 250 490 250 459 233 c 0,27,28
 447 226 447 226 433 227 c 2,29,-1
 143 234 l 1,0,1
150 309 m 1,30,31
 157 311 157 311 161 311 c 2,32,-1
 427 305 l 1,33,34
 424 460 424 460 284 465 c 0,35,36
 216 468 216 468 193 436 c 0,37,38
 163 396 163 396 150 309 c 1,30,31
EndSplineSet
Validated: 33
EndChar

StartChar: f
Encoding: 329 102 73
GlifName: f
Width: 400
GlyphClass: 2
Flags: W
LayerCount: 2
Fore
SplineSet
396 611.5 m 128,-1,1
 381 597 381 597 366.5 591.5 c 128,-1,2
 352 586 352 586 347 592 c 0,3,4
 309 637 309 637 274 658.5 c 128,-1,5
 239 680 239 680 220 676 c 1,6,7
 211 646 211 646 207 576 c 2,8,-1
 200 501 l 1,9,10
 257 501 257 501 314 501 c 0,11,12
 329 501 329 501 322 482 c 0,13,14
 314 457 314 457 291.5 441 c 128,-1,15
 269 425 269 425 258 425 c 0,16,17
 225 425 225 425 193 425 c 1,18,-1
 155 26 l 2,19,20
 154 15 154 15 142 -1.5 c 128,-1,21
 130 -18 130 -18 117 -26.5 c 128,-1,22
 104 -35 104 -35 96 -37 c 0,23,24
 78 -42 78 -42 79 -26 c 2,25,-1
 122 425 l 1,26,27
 78 425 78 425 34 425 c 0,28,29
 19 425 19 425 26 444 c 0,30,31
 34 469 34 469 56.5 485 c 128,-1,32
 79 501 79 501 90 501 c 2,33,-1
 129 501 l 1,34,-1
 131 524 l 2,35,36
 131 527 131 527 132 542 c 128,-1,37
 133 557 133 557 133 560 c 128,-1,38
 133 563 133 563 134 575.5 c 128,-1,39
 135 588 135 588 135.5 591.5 c 128,-1,40
 136 595 136 595 137.5 605 c 128,-1,41
 139 615 139 615 140 619 c 128,-1,42
 141 623 141 623 143 631 c 128,-1,43
 145 639 145 639 148 644 c 0,44,45
 172 697 172 697 211 723.5 c 128,-1,46
 250 750 250 750 279 753 c 0,47,48
 337 758 337 758 419 662 c 0,49,50
 424 656 424 656 417.5 641 c 128,-1,0
 411 626 411 626 396 611.5 c 128,-1,1
EndSplineSet
Validated: 33
EndChar

StartChar: g
Encoding: 330 103 74
GlifName: g
Width: 508
GlyphClass: 2
Flags: W
LayerCount: 2
Fore
SplineSet
458 509 m 1,0,1
 478 534 478 534 493 538 c 0,2,3
 518 545 518 545 517 530 c 0,4,5
 497 205 497 205 487 135 c 0,6,7
 479 52 479 52 461 -8 c 128,-1,8
 443 -68 443 -68 402.5 -123.5 c 128,-1,9
 362 -179 362 -179 308 -206 c 128,-1,10
 254 -233 254 -233 199 -232 c 0,11,12
 86 -231 86 -231 44 -162 c 0,13,14
 40 -155 40 -155 47.5 -139.5 c 128,-1,15
 55 -124 55 -124 70 -110.5 c 128,-1,16
 85 -97 85 -97 99 -92 c 128,-1,17
 113 -87 113 -87 118 -94 c 0,18,19
 154 -155 154 -155 255 -156 c 0,20,21
 327 -157 327 -157 354 -118 c 0,22,23
 392 -65 392 -65 408 53 c 1,24,25
 356 -11 356 -11 302.5 -30.5 c 128,-1,26
 249 -50 249 -50 203 -37 c 0,27,28
 60 3 60 3 117 293 c 0,29,30
 136 389 136 389 184 451 c 0,31,32
 266 557 266 557 385 541 c 0,33,34
 430 535 430 535 458 509 c 1,0,1
419 165 m 0,35,36
 426 242 426 242 425 242 c 0,37,38
 421 245 421 245 422 253 c 0,39,40
 448 449 448 449 325 465 c 0,41,42
 295 469 295 469 273 464 c 0,43,44
 242 458 242 458 232 445 c 0,45,46
 207 413 207 413 191 331 c 128,-1,47
 175 249 175 249 177 186 c 0,48,49
 183 62 183 62 265 39 c 0,50,51
 328 21 328 21 362 62 c 0,52,53
 388 93 388 93 414 155 c 0,54,55
 416 160 416 160 419 165 c 0,35,36
EndSplineSet
Validated: 33
EndChar

StartChar: h
Encoding: 331 104 75
GlifName: h
Width: 495
GlyphClass: 2
Flags: W
LayerCount: 2
Fore
SplineSet
134 806 m 128,-1,1
 146 822 146 822 159 830.5 c 128,-1,2
 172 839 172 839 180 841 c 0,3,4
 198 846 198 846 197 830 c 2,5,-1
 163 455 l 1,6,7
 194 492 194 492 235.5 516.5 c 128,-1,8
 277 541 277 541 319 541 c 0,9,10
 490 543 490 543 465 306 c 1,11,-1
 441 26 l 2,12,13
 440 15 440 15 428 -1 c 128,-1,14
 416 -17 416 -17 403 -26 c 128,-1,15
 390 -35 390 -35 382 -37 c 0,16,17
 364 -42 364 -42 365 -26 c 2,18,-1
 389 254 l 1,19,20
 412 466 412 466 265 465 c 0,21,22
 236 465 236 465 222 457 c 0,23,24
 187 437 187 437 157 347 c 0,25,26
 155 341 155 341 151 334 c 2,27,-1
 123 26 l 2,28,29
 122 15 122 15 110 -1.5 c 128,-1,30
 98 -18 98 -18 85 -26.5 c 128,-1,31
 72 -35 72 -35 64 -37 c 0,32,33
 46 -42 46 -42 47 -26 c 2,34,-1
 121 778 l 2,35,0
 122 790 122 790 134 806 c 128,-1,1
EndSplineSet
Validated: 33
EndChar

StartChar: i
Encoding: 332 105 76
GlifName: i
Width: 190
GlyphClass: 2
Flags: W
LayerCount: 2
Fore
SplineSet
121 505 m 128,-1,1
 133 521 133 521 146 529.5 c 128,-1,2
 159 538 159 538 168 540 c 0,3,4
 186 544 186 544 184 529 c 2,5,-1
 131 25 l 2,6,7
 130 13 130 13 118 -2.5 c 128,-1,8
 106 -18 106 -18 93 -26.5 c 128,-1,9
 80 -35 80 -35 71 -37 c 0,10,11
 53 -41 53 -41 55 -25 c 2,12,-1
 108 478 l 2,13,0
 109 489 109 489 121 505 c 128,-1,1
125.5 677 m 128,-1,15
 137 693 137 693 150 702 c 128,-1,16
 163 711 163 711 172 713 c 0,17,18
 190 718 190 718 189 702 c 2,19,-1
 184 632 l 2,20,21
 183 621 183 621 171.5 605 c 128,-1,22
 160 589 160 589 147 580 c 128,-1,23
 134 571 134 571 125 569 c 0,24,25
 107 564 107 564 108 580 c 2,26,-1
 113 650 l 2,27,14
 114 661 114 661 125.5 677 c 128,-1,15
EndSplineSet
Validated: 1
EndChar

StartChar: j
Encoding: 333 106 77
GlifName: j
Width: 326
GlyphClass: 2
Flags: W
LayerCount: 2
Fore
SplineSet
46.5 -68.5 m 128,-1,1
 61 -54 61 -54 75.5 -47.5 c 128,-1,2
 90 -41 90 -41 96 -47 c 0,3,4
 144 -93 144 -93 179 -97 c 1,5,6
 187 -65 187 -65 192 -10 c 2,7,-1
 244 532 l 2,8,9
 245 544 245 544 257 559.5 c 128,-1,10
 269 575 269 575 282 584 c 128,-1,11
 295 593 295 593 303 595 c 0,12,13
 321 600 321 600 320 583 c 2,14,-1
 268 42 l 2,15,16
 268 37 268 37 266 10.5 c 128,-1,17
 264 -16 264 -16 263 -23.5 c 128,-1,18
 262 -31 262 -31 257.5 -52 c 128,-1,19
 253 -73 253 -73 247 -84 c 0,20,21
 212 -148 212 -148 159 -169 c 0,22,23
 137 -177 137 -177 122 -177 c 128,-1,24
 107 -177 107 -177 87 -166 c 0,25,26
 62 -152 62 -152 26 -117 c 0,27,28
 20 -111 20 -111 26 -97 c 128,-1,0
 32 -83 32 -83 46.5 -68.5 c 128,-1,1
265.5 706 m 128,-1,30
 277 722 277 722 290 731 c 128,-1,31
 303 740 303 740 312 742 c 0,32,33
 330 747 330 747 329 731 c 2,34,-1
 324 661 l 2,35,36
 323 650 323 650 311.5 634 c 128,-1,37
 300 618 300 618 287 609 c 128,-1,38
 274 600 274 600 265 598 c 0,39,40
 247 593 247 593 248 609 c 2,41,-1
 253 679 l 2,42,29
 254 690 254 690 265.5 706 c 128,-1,30
EndSplineSet
Validated: 1
EndChar

StartChar: k
Encoding: 334 107 78
GlifName: k
Width: 495
GlyphClass: 2
Flags: W
LayerCount: 2
Fore
SplineSet
138 806 m 128,-1,1
 150 822 150 822 163 830.5 c 128,-1,2
 176 839 176 839 184 841 c 0,3,4
 202 846 202 846 201 830 c 2,5,-1
 150 277 l 1,6,-1
 436 524 l 2,7,8
 451 537 451 537 464 540.5 c 128,-1,9
 477 544 477 544 480 535.5 c 128,-1,10
 483 527 483 527 474.5 511.5 c 128,-1,11
 466 496 466 496 450 483 c 2,12,-1
 263 321 l 1,13,-1
 469 34 l 2,14,15
 474 27 474 27 467 12.5 c 128,-1,16
 460 -2 460 -2 445 -16 c 128,-1,17
 430 -30 430 -30 416 -35.5 c 128,-1,18
 402 -41 402 -41 397 -34 c 2,19,-1
 189 256 l 1,20,21
 189 256 189 256 188 257 c 2,22,-1
 145 219 l 1,23,-1
 127 26 l 2,24,25
 126 15 126 15 114 -1.5 c 128,-1,26
 102 -18 102 -18 89 -26.5 c 128,-1,27
 76 -35 76 -35 68 -37 c 0,28,29
 50 -42 50 -42 51 -26 c 2,30,-1
 125 778 l 2,31,0
 126 790 126 790 138 806 c 128,-1,1
EndSplineSet
Validated: 1
EndChar

StartChar: l
Encoding: 335 108 79
GlifName: l
Width: 185
GlyphClass: 2
Flags: W
LayerCount: 2
Fore
SplineSet
138 806 m 128,-1,1
 150 822 150 822 163 830.5 c 128,-1,2
 176 839 176 839 184 841 c 0,3,4
 202 846 202 846 201 830 c 2,5,-1
 127 26 l 2,6,7
 126 15 126 15 114 -1.5 c 128,-1,8
 102 -18 102 -18 89 -26.5 c 128,-1,9
 76 -35 76 -35 68 -37 c 0,10,11
 50 -42 50 -42 51 -26 c 2,12,-1
 125 778 l 2,13,0
 126 790 126 790 138 806 c 128,-1,1
EndSplineSet
Validated: 1
EndChar

StartChar: m
Encoding: 336 109 80
GlifName: m
Width: 771
GlyphClass: 2
Flags: W
LayerCount: 2
Fore
SplineSet
121 505 m 128,-1,1
 133 521 133 521 146 529.5 c 128,-1,2
 159 538 159 538 168 540 c 0,3,4
 186 544 186 544 184 529 c 2,5,-1
 177 463 l 1,6,7
 205 495 205 495 245 518 c 128,-1,8
 285 541 285 541 327 541 c 0,9,10
 425 542 425 542 449 443 c 1,11,12
 484 489 484 489 529 515 c 128,-1,13
 574 541 574 541 616 541 c 0,14,15
 757 543 757 543 732 306 c 1,16,-1
 708 26 l 2,17,18
 707 15 707 15 695 -1 c 128,-1,19
 683 -17 683 -17 670 -26 c 128,-1,20
 657 -35 657 -35 649 -37 c 0,21,22
 631 -42 631 -42 632 -26 c 2,23,-1
 656 254 l 1,24,25
 679 466 679 466 562 465 c 0,26,27
 533 465 533 465 519 457 c 0,28,29
 485 437 485 437 456 352 c 1,30,31
 455 330 455 330 453 306 c 2,32,-1
 429 26 l 2,33,34
 428 15 428 15 416 -1 c 128,-1,35
 404 -17 404 -17 391 -26 c 128,-1,36
 378 -35 378 -35 370 -37 c 0,37,38
 352 -42 352 -42 353 -26 c 2,39,-1
 377 254 l 2,40,41
 379 277 379 277 379 289 c 128,-1,42
 379 301 379 301 380 305 c 0,43,44
 383 467 383 467 273 465 c 0,45,46
 244 465 244 465 230 457 c 0,47,48
 195 437 195 437 165 347 c 0,49,50
 165 346 165 346 165 344 c 2,51,-1
 131 25 l 2,52,53
 130 13 130 13 118 -2.5 c 128,-1,54
 106 -18 106 -18 93 -26.5 c 128,-1,55
 80 -35 80 -35 71 -37 c 0,56,57
 53 -41 53 -41 55 -25 c 2,58,-1
 108 478 l 2,59,0
 109 489 109 489 121 505 c 128,-1,1
EndSplineSet
Validated: 33
EndChar

StartChar: n
Encoding: 337 110 81
GlifName: n
Width: 502
GlyphClass: 2
Flags: W
LayerCount: 2
Fore
SplineSet
121 505 m 128,-1,1
 133 521 133 521 146 529.5 c 128,-1,2
 159 538 159 538 168 540 c 0,3,4
 186 544 186 544 184 529 c 2,5,-1
 177 463 l 1,6,7
 205 495 205 495 245 518 c 128,-1,8
 285 541 285 541 327 541 c 0,9,10
 498 543 498 543 473 306 c 1,11,-1
 449 26 l 2,12,13
 448 15 448 15 436 -1 c 128,-1,14
 424 -17 424 -17 411 -26 c 128,-1,15
 398 -35 398 -35 390 -37 c 0,16,17
 372 -42 372 -42 373 -26 c 2,18,-1
 397 254 l 1,19,20
 420 466 420 466 273 465 c 0,21,22
 244 465 244 465 230 457 c 0,23,24
 195 437 195 437 165 347 c 0,25,26
 165 346 165 346 165 344 c 2,27,-1
 131 25 l 2,28,29
 130 13 130 13 118 -2.5 c 128,-1,30
 106 -18 106 -18 93 -26.5 c 128,-1,31
 80 -35 80 -35 71 -37 c 0,32,33
 53 -41 53 -41 55 -25 c 2,34,-1
 108 478 l 2,35,0
 109 489 109 489 121 505 c 128,-1,1
EndSplineSet
Validated: 33
EndChar

StartChar: o
Encoding: 338 111 82
GlifName: o
Width: 538
GlyphClass: 2
Flags: W
LayerCount: 2
Fore
SplineSet
360 541 m 0,0,1
 544 525 544 525 508 240 c 0,2,3
 493 126 493 126 441 57 c 0,4,5
 361 -49 361 -49 242 -38 c 0,6,7
 40 -20 40 -20 71 222 c 0,8,9
 80 291 80 291 97.5 343 c 128,-1,10
 115 395 115 395 150 440 c 0,11,12
 235 552 235 552 360 541 c 0,0,1
302 465 m 0,13,14
 226 472 226 472 199 436 c 0,15,16
 184 417 184 417 169 373.5 c 128,-1,17
 154 330 154 330 147 272 c 0,18,19
 119 54 119 54 300 38 c 0,20,21
 369 32 369 32 391 61 c 0,22,23
 402 76 402 76 414 110.5 c 128,-1,24
 426 145 426 145 432 190 c 0,25,26
 466 451 466 451 302 465 c 0,13,14
EndSplineSet
Validated: 33
EndChar

StartChar: p
Encoding: 339 112 83
GlifName: p
Width: 526
GlyphClass: 2
Flags: W
LayerCount: 2
Fore
SplineSet
111 506.5 m 128,-1,1
 123 522 123 522 136 531 c 128,-1,2
 149 540 149 540 157 542 c 0,3,4
 175 547 175 547 174 531 c 2,5,-1
 170 485 l 1,6,7
 230 542 230 542 312 541 c 0,8,9
 560 539 560 539 492 239 c 0,10,11
 466 125 466 125 425 68 c 128,-1,12
 384 11 384 11 341 -13.5 c 128,-1,13
 298 -38 298 -38 260 -38 c 0,14,15
 175 -38 175 -38 129 20 c 1,16,17
 129 20 129 20 104 -268 c 0,18,19
 103 -279 103 -279 91 -295 c 128,-1,20
 79 -311 79 -311 66 -320 c 128,-1,21
 53 -329 53 -329 45 -331 c 0,22,23
 27 -336 27 -336 28 -320 c 2,24,-1
 98 479 l 2,25,0
 99 491 99 491 111 506.5 c 128,-1,1
150 252 m 2,26,27
 150 251 150 251 150 249 c 0,28,29
 167 38 167 38 316 38 c 0,30,31
 348 38 348 38 358 49 c 0,32,33
 393 85 393 85 420.5 207.5 c 128,-1,34
 448 330 448 330 408 397 c 128,-1,35
 368 464 368 464 256 465 c 0,36,37
 203 465 203 465 190.5 448 c 128,-1,38
 178 431 178 431 167.5 392.5 c 128,-1,39
 157 354 157 354 156 326.5 c 128,-1,40
 155 299 155 299 153 294 c 2,41,-1
 150 252 l 2,26,27
EndSplineSet
Validated: 33
EndChar

StartChar: q
Encoding: 340 113 84
GlifName: q
Width: 481
GlyphClass: 2
Flags: W
LayerCount: 2
Fore
SplineSet
415 509 m 1,0,1
 436 536 436 536 459 541 c 0,2,3
 477 546 477 546 476 530 c 2,4,-1
 408 -270 l 2,5,6
 407 -281 407 -281 395 -297 c 128,-1,7
 383 -313 383 -313 370.5 -322 c 128,-1,8
 358 -331 358 -331 349 -333 c 0,9,10
 331 -338 331 -338 332 -322 c 2,11,-1
 364 52 l 1,12,13
 312 -11 312 -11 259 -30.5 c 128,-1,14
 206 -50 206 -50 160 -37 c 0,15,16
 17 3 17 3 74 293 c 0,17,18
 93 389 93 389 141 451 c 0,19,20
 223 557 223 557 342 541 c 0,21,22
 387 536 387 536 415 509 c 1,0,1
380 245 m 2,23,24
 378 248 378 248 379 253 c 0,25,26
 405 449 405 449 282 465 c 0,27,28
 252 469 252 469 230 464 c 0,29,30
 200 458 200 458 189 445 c 0,31,32
 164 413 164 413 148 331 c 128,-1,33
 132 249 132 249 134 186 c 0,34,35
 140 62 140 62 222 39 c 0,36,37
 285 21 285 21 319 62 c 0,38,39
 345 93 345 93 371 155 c 0,40,41
 372 157 372 157 373 159 c 2,42,-1
 380 245 l 2,23,24
EndSplineSet
Validated: 33
EndChar

StartChar: r
Encoding: 341 114 85
GlifName: r
Width: 319
GlyphClass: 2
Flags: W
LayerCount: 2
Fore
SplineSet
121 505 m 128,-1,1
 133 521 133 521 146 529.5 c 128,-1,2
 159 538 159 538 168 540 c 0,3,4
 186 544 186 544 184 529 c 2,5,-1
 179 485 l 1,6,7
 256 550 256 550 338 541 c 0,8,9
 352 539 352 539 345 520 c 0,10,11
 335 494 335 494 312 479 c 128,-1,12
 289 464 289 464 280 465 c 0,13,14
 229 471 229 471 193 444 c 0,15,16
 176 431 176 431 169 383 c 2,17,-1
 131 25 l 2,18,19
 130 13 130 13 118 -2.5 c 128,-1,20
 106 -18 106 -18 93 -26.5 c 128,-1,21
 80 -35 80 -35 71 -37 c 0,22,23
 53 -41 53 -41 55 -25 c 2,24,-1
 92 325 l 2,25,26
 92 327 92 327 93 333 c 2,27,-1
 108 478 l 2,28,0
 109 489 109 489 121 505 c 128,-1,1
EndSplineSet
Validated: 33
EndChar

StartChar: s
Encoding: 342 115 86
GlifName: s
Width: 511
GlyphClass: 2
Flags: W
LayerCount: 2
Fore
SplineSet
441.5 359.5 m 128,-1,1
 426 346 426 346 413 343 c 128,-1,2
 400 340 400 340 397 348 c 0,3,4
 380 394 380 394 342.5 426.5 c 128,-1,5
 305 459 305 459 264 465 c 128,-1,6
 223 471 223 471 200 458 c 1,7,8
 180 416 180 416 211 369 c 0,9,10
 238 328 238 328 319 296 c 0,11,12
 374 274 374 274 392 264 c 0,13,14
 472 215 472 215 470 138 c 0,15,16
 468 77 468 77 412 21 c 0,17,18
 310 -80 310 -80 181 -17 c 0,19,20
 108 19 108 19 61 94 c 0,21,22
 57 101 57 101 64.5 116 c 128,-1,23
 72 131 72 131 87 145 c 128,-1,24
 102 159 102 159 116 164 c 128,-1,25
 130 169 130 169 134 162 c 0,26,27
 188 77 188 77 272 47 c 0,28,29
 326 28 326 28 369 42 c 0,30,31
 383 47 383 47 386 51 c 0,32,33
 399 73 399 73 391 108 c 0,34,35
 377 172 377 172 280 211 c 0,36,37
 276 213 276 213 257 220 c 0,38,39
 203 241 203 241 185 255 c 0,40,41
 94 321 94 321 125 413 c 0,42,43
 137 450 137 450 165 479 c 0,44,45
 236 553 236 553 319 541 c 0,46,47
 371 534 371 534 412 498.5 c 128,-1,48
 453 463 453 463 471 412 c 0,49,50
 474 404 474 404 465.5 388.5 c 128,-1,0
 457 373 457 373 441.5 359.5 c 128,-1,1
EndSplineSet
Validated: 33
EndChar

StartChar: t
Encoding: 343 116 87
GlifName: t
Width: 370
GlyphClass: 2
Flags: W
LayerCount: 2
Fore
SplineSet
343 74.5 m 128,-1,1
 345 65 345 65 335 49.5 c 128,-1,2
 325 34 325 34 296 10.5 c 128,-1,3
 267 -13 267 -13 232 -28 c 0,4,5
 163 -56 163 -56 129 -14 c 0,6,7
 97 23 97 23 112 127 c 1,8,-1
 138 428 l 1,9,-1
 62 428 l 2,10,11
 47 428 47 428 54 447 c 0,12,13
 62 472 62 472 84.5 488.5 c 128,-1,14
 107 505 107 505 118 505 c 2,15,-1
 145 505 l 1,16,-1
 160 676 l 2,17,18
 161 687 161 687 173 703 c 128,-1,19
 185 719 185 719 198 728 c 128,-1,20
 211 737 211 737 219 739 c 0,21,22
 237 744 237 744 236 728 c 2,23,-1
 217 505 l 1,24,25
 261 505 261 505 304 505 c 0,26,27
 319 505 319 505 312 485 c 0,28,29
 304 460 304 460 281.5 444 c 128,-1,30
 259 428 259 428 248 428 c 2,31,-1
 210 428 l 1,32,-1
 188 178 l 2,33,34
 188 177 188 177 188 176 c 0,35,36
 174 86 174 86 201 56 c 0,37,38
 226 25 226 25 262 41 c 0,39,40
 279 49 279 49 297.5 64 c 128,-1,41
 316 79 316 79 328.5 81.5 c 128,-1,0
 341 84 341 84 343 74.5 c 128,-1,1
EndSplineSet
Validated: 33
EndChar

StartChar: u
Encoding: 344 117 88
GlifName: u
Width: 509
GlyphClass: 2
Flags: W
LayerCount: 2
Fore
SplineSet
429 -2 m 128,-1,1
 417 -18 417 -18 404 -26.5 c 128,-1,2
 391 -35 391 -35 382 -37 c 0,3,4
 364 -41 364 -41 366 -25 c 2,5,-1
 373 40 l 1,6,7
 345 8 345 8 305 -15 c 128,-1,8
 265 -38 265 -38 223 -38 c 0,9,10
 52 -40 52 -40 77 198 c 1,11,-1
 101 477 l 2,12,13
 102 488 102 488 114 504.5 c 128,-1,14
 126 521 126 521 139 529.5 c 128,-1,15
 152 538 152 538 160 540 c 0,16,17
 178 545 178 545 177 529 c 2,18,-1
 153 249 l 1,19,20
 130 37 130 37 277 38 c 0,21,22
 306 38 306 38 320 46 c 0,23,24
 355 66 355 66 385 156 c 0,25,26
 385 157 385 157 385 159 c 2,27,-1
 419 478 l 2,28,29
 420 490 420 490 432 505.5 c 128,-1,30
 444 521 444 521 457 529.5 c 128,-1,31
 470 538 470 538 479 540 c 0,32,33
 497 544 497 544 495 529 c 2,34,-1
 442 25 l 2,35,0
 441 14 441 14 429 -2 c 128,-1,1
EndSplineSet
Validated: 33
EndChar

StartChar: v
Encoding: 345 118 89
GlifName: v
Width: 494
GlyphClass: 2
Flags: W
LayerCount: 2
Fore
SplineSet
101 525 m 128,-1,1
 116 538 116 538 129 540.5 c 128,-1,2
 142 543 142 543 145 535 c 2,3,-1
 265 107 l 1,4,-1
 426 488 l 2,5,6
 432 502 432 502 446.5 517 c 128,-1,7
 461 532 461 532 475.5 538 c 128,-1,8
 490 544 490 544 496 538.5 c 128,-1,9
 502 533 502 533 496 518 c 2,10,-1
 284 15 l 2,11,12
 269 -20 269 -20 234 -35 c 0,13,14
 214 -44 214 -44 211 -31 c 2,15,-1
 69 472 l 2,16,17
 67 481 67 481 76.5 496.5 c 128,-1,0
 86 512 86 512 101 525 c 128,-1,1
EndSplineSet
Validated: 1
EndChar

StartChar: w
Encoding: 346 119 90
GlifName: w
Width: 738
GlyphClass: 2
Flags: W
LayerCount: 2
Fore
SplineSet
404 414 m 0,0,1
 436 437 436 437 442 419 c 2,2,-1
 528 106 l 1,3,-1
 689 488 l 2,4,5
 695 502 695 502 709.5 517 c 128,-1,6
 724 532 724 532 738.5 538 c 128,-1,7
 753 544 753 544 759 538.5 c 128,-1,8
 765 533 765 533 759 518 c 2,9,-1
 546 13 l 1,10,-1
 516 -22 l 2,11,12
 480 -58 480 -58 473 -33 c 2,13,-1
 387 280 l 1,14,-1
 276 15 l 2,15,16
 269 -2 269 -2 255 -14 c 0,17,18
 222 -44 222 -44 208 -37 c 0,19,20
 203 -35 203 -35 203 -29 c 2,21,-1
 80 472 l 2,22,23
 78 481 78 481 87.5 497 c 128,-1,24
 97 513 97 513 112.5 525.5 c 128,-1,25
 128 538 128 538 140.5 540.5 c 128,-1,26
 153 543 153 543 156 534 c 2,27,-1
 259 111 l 1,28,-1
 369 373 l 2,29,30
 381 401 381 401 404 414 c 0,0,1
EndSplineSet
Validated: 33
EndChar

StartChar: x
Encoding: 347 120 91
GlifName: x
Width: 516
GlyphClass: 2
Flags: W
LayerCount: 2
Fore
SplineSet
97 520.5 m 128,-1,1
 112 534 112 534 126 539 c 128,-1,2
 140 544 140 544 144 537 c 2,3,-1
 295 298 l 1,4,-1
 469 509 l 2,5,6
 482 524 482 524 497.5 533.5 c 128,-1,7
 513 543 513 543 522 541 c 128,-1,8
 531 539 531 539 528.5 526 c 128,-1,9
 526 513 526 513 513 498 c 2,10,-1
 318 261 l 1,11,-1
 461 34 l 2,12,13
 465 27 465 27 458 12 c 128,-1,14
 451 -3 451 -3 436 -17 c 128,-1,15
 421 -31 421 -31 407 -36 c 128,-1,16
 393 -41 393 -41 389 -34 c 2,17,-1
 253 181 l 1,18,-1
 99 -5 l 2,19,20
 86 -20 86 -20 70.5 -30 c 128,-1,21
 55 -40 55 -40 46 -37.5 c 128,-1,22
 37 -35 37 -35 39.5 -22.5 c 128,-1,23
 42 -10 42 -10 55 5 c 2,24,-1
 230 218 l 1,25,-1
 72 469 l 2,26,27
 68 476 68 476 75 491.5 c 128,-1,0
 82 507 82 507 97 520.5 c 128,-1,1
EndSplineSet
Validated: 1
EndChar

StartChar: y
Encoding: 348 121 92
GlifName: y
Width: 528
GlyphClass: 2
Flags: W
LayerCount: 2
Fore
SplineSet
447.5 504 m 128,-1,1
 459 520 459 520 472 529 c 128,-1,2
 485 538 485 538 493 540 c 0,3,4
 512 545 512 545 511 530 c 0,5,6
 491 205 491 205 481 135 c 0,7,8
 473 52 473 52 455 -8 c 128,-1,9
 437 -68 437 -68 396.5 -123.5 c 128,-1,10
 356 -179 356 -179 302 -206 c 128,-1,11
 248 -233 248 -233 193 -232 c 0,12,13
 80 -231 80 -231 38 -162 c 0,14,15
 34 -155 34 -155 41.5 -139.5 c 128,-1,16
 49 -124 49 -124 64 -110.5 c 128,-1,17
 79 -97 79 -97 93 -92 c 128,-1,18
 107 -87 107 -87 112 -94 c 0,19,20
 148 -155 148 -155 249 -156 c 0,21,22
 321 -157 321 -157 348 -118 c 0,23,24
 385 -66 385 -66 401 48 c 1,25,26
 303 -70 303 -70 197 -36 c 0,27,28
 57 8 57 8 129 479 c 0,29,30
 131 491 131 491 143.5 506.5 c 128,-1,31
 156 522 156 522 168.5 530.5 c 128,-1,32
 181 539 181 539 189.5 540.5 c 128,-1,33
 198 542 198 542 202 538.5 c 128,-1,34
 206 535 206 535 205 528 c 0,35,36
 161 227 161 227 202 107 c 0,37,38
 222 50 222 50 260 38 c 0,39,40
 322 18 322 18 357 59 c 0,41,42
 384 90 384 90 410 154 c 0,43,44
 411 157 411 157 413 161 c 0,45,46
 422 263 422 263 435 477 c 0,47,0
 436 488 436 488 447.5 504 c 128,-1,1
EndSplineSet
Validated: 33
EndChar

StartChar: z
Encoding: 349 122 93
GlifName: z
Width: 530
GlyphClass: 2
Flags: W
LayerCount: 2
Fore
SplineSet
100 484 m 0,0,1
 103 493 103 493 112 506 c 128,-1,2
 121 519 121 519 137 530 c 128,-1,3
 153 541 153 541 164 541 c 2,4,-1
 500 541 l 2,5,6
 515 541 515 541 509 522 c 0,7,8
 506 513 506 513 496 501 c 2,9,-1
 142 38 l 1,10,-1
 472 38 l 2,11,12
 487 38 487 38 480 19 c 0,13,14
 472 -6 472 -6 449.5 -22 c 128,-1,15
 427 -38 427 -38 416 -38 c 2,16,-1
 58 -38 l 2,17,18
 46 -37 46 -37 47.5 -25 c 128,-1,19
 49 -13 49 -13 62 2 c 2,20,-1
 416 465 l 1,21,-1
 108 465 l 2,22,23
 94 465 94 465 100 484 c 0,0,1
EndSplineSet
Validated: 1
EndChar

StartChar: braceleft
Encoding: 350 123 94
GlifName: braceleft
Width: 298
GlyphClass: 2
Flags: W
LayerCount: 2
Fore
SplineSet
132 326 m 1,0,1
 160 298 160 298 155 284 c 0,2,3
 153 276 153 276 152 107 c 0,4,5
 151 39 151 39 188.5 6 c 128,-1,6
 226 -27 226 -27 298 -18 c 0,7,8
 314 -16 314 -16 309 -35 c 0,9,10
 304 -57 304 -57 280.5 -75 c 128,-1,11
 257 -93 257 -93 246 -94 c 0,12,13
 74 -107 74 -107 76 53 c 0,14,15
 79 248 79 248 80 286 c 1,16,-1
 35 298 l 2,17,18
 27 300 27 300 29 314 c 128,-1,19
 31 328 31 328 53 354 c 128,-1,20
 75 380 75 380 96 388 c 1,21,-1
 124 597 l 2,22,23
 124 600 124 600 125 600 c 0,24,25
 136 652 136 652 164 686 c 0,26,27
 219 752 219 752 274 756 c 0,28,29
 321 761 321 761 371 746 c 0,30,31
 380 743 380 743 377 730 c 128,-1,32
 374 717 374 717 361.5 701.5 c 128,-1,33
 349 686 349 686 333 677 c 128,-1,34
 317 668 317 668 309 670 c 0,35,36
 244 689 244 689 210 675 c 1,37,38
 201 658 201 658 200 646 c 2,39,-1
 164 379 l 1,40,-1
 132 326 l 1,0,1
EndSplineSet
Validated: 33
EndChar

StartChar: bar
Encoding: 351 124 95
GlifName: bar
Width: 193
GlyphClass: 2
Flags: W
LayerCount: 2
Fore
SplineSet
140 722 m 128,-1,1
 152 738 152 738 165 746.5 c 128,-1,2
 178 755 178 755 186 757 c 0,3,4
 204 762 204 762 203 746 c 2,5,-1
 123 -68 l 2,6,7
 122 -80 122 -80 110 -96 c 128,-1,8
 98 -112 98 -112 85 -120.5 c 128,-1,9
 72 -129 72 -129 64 -131 c 0,10,11
 46 -136 46 -136 47 -120 c 2,12,-1
 127 695 l 2,13,0
 128 706 128 706 140 722 c 128,-1,1
EndSplineSet
Validated: 1
EndChar

StartChar: braceright
Encoding: 352 125 96
GlifName: braceright
Width: 298
GlyphClass: 2
Flags: W
LayerCount: 2
Fore
SplineSet
218 299 m 1,0,1
 218 299 218 299 193 356 c 1,2,-1
 191 625 l 2,3,4
 190 637 190 637 184 655 c 1,5,6
 152 673 152 673 86 663 c 0,7,8
 77 662 77 662 62.5 673 c 128,-1,9
 48 684 48 684 37.5 701 c 128,-1,10
 27 718 27 718 25.5 731.5 c 128,-1,11
 24 745 24 745 33 746 c 0,12,13
 84 755 84 755 130 744 c 0,14,15
 185 733 185 733 231 660 c 0,16,17
 254 622 254 622 259 570 c 1,18,-1
 259 567 l 1,19,-1
 261 357 l 1,20,21
 281 346 281 346 299.5 317.5 c 128,-1,22
 318 289 318 289 318.5 275 c 128,-1,23
 319 261 319 261 311 260 c 2,24,-1
 264 253 l 1,25,26
 261 215 261 215 239 21 c 0,27,28
 221 -137 221 -137 52 -103 c 0,29,30
 41 -101 41 -101 20 -80.5 c 128,-1,31
 -1 -60 -1 -60 -3 -37 c 0,32,33
 -5 -17 -5 -17 10 -21 c 0,34,35
 80 -39 80 -39 121 -11 c 128,-1,36
 162 17 162 17 170 85 c 0,37,38
 190 253 190 253 189 261 c 0,39,40
 187 275 187 275 218 299 c 1,0,1
EndSplineSet
Validated: 33
EndChar

StartChar: asciitilde
Encoding: 353 126 97
GlifName: asciitilde
Width: 447
GlyphClass: 2
Flags: W
LayerCount: 2
Fore
SplineSet
444.5 467.5 m 128,-1,1
 460 477 460 477 470 475.5 c 128,-1,2
 480 474 480 474 477 458 c 128,-1,3
 474 442 474 442 471 429 c 0,4,5
 461 392 461 392 435.5 364.5 c 128,-1,6
 410 337 410 337 391.5 325.5 c 128,-1,7
 373 314 373 314 358 309 c 128,-1,8
 343 304 343 304 324 306 c 128,-1,9
 305 308 305 308 292.5 312 c 128,-1,10
 280 316 280 316 260 327 c 0,11,12
 234 342 234 342 189.5 373.5 c 128,-1,13
 145 405 145 405 113 408 c 1,14,-1
 100 373 l 2,15,16
 94 359 94 359 79.5 344 c 128,-1,17
 65 329 65 329 50.5 322.5 c 128,-1,18
 36 316 36 316 29.5 321 c 128,-1,19
 23 326 23 326 28 341 c 2,20,-1
 50 397 l 2,21,22
 59 420 59 420 85 445.5 c 128,-1,23
 111 471 111 471 129 477.5 c 128,-1,24
 147 484 147 484 160.5 484.5 c 128,-1,25
 174 485 174 485 185.5 483 c 128,-1,26
 197 481 197 481 210 474 c 0,27,28
 232 464 232 464 264 441 c 0,29,30
 348 381 348 381 395 386 c 1,31,32
 399 398 399 398 401.5 412 c 128,-1,33
 404 426 404 426 416.5 442 c 128,-1,0
 429 458 429 458 444.5 467.5 c 128,-1,1
EndSplineSet
Validated: 33
EndChar

StartChar: exclamdown
Encoding: 355 161 99
GlifName: exclamdown
Width: 198
GlyphClass: 2
Flags: W
LayerCount: 2
Fore
SplineSet
141 709 m 128,-1,1
 153 725 153 725 166 733 c 128,-1,2
 179 741 179 741 187 743 c 0,3,4
 205 747 205 747 203 731 c 2,5,-1
 193 653 l 2,6,7
 191 641 191 641 179 625 c 128,-1,8
 167 609 167 609 154 601 c 128,-1,9
 141 593 141 593 133 591 c 0,10,11
 115 587 115 587 117 603 c 2,12,-1
 127 681 l 2,13,0
 129 693 129 693 141 709 c 128,-1,1
120 541.5 m 128,-1,15
 132 557 132 557 145 566 c 128,-1,16
 158 575 158 575 166 577 c 0,17,18
 184 582 184 582 183 566 c 2,19,-1
 135 26 l 2,20,21
 134 15 134 15 122 -1 c 128,-1,22
 110 -17 110 -17 97 -26 c 128,-1,23
 84 -35 84 -35 76 -37 c 0,24,25
 58 -42 58 -42 59 -26 c 2,26,-1
 107 514 l 2,27,14
 108 526 108 526 120 541.5 c 128,-1,15
EndSplineSet
Validated: 1
EndChar

StartChar: cent
Encoding: 356 162 100
GlifName: cent
Width: 501
GlyphClass: 2
Flags: W
LayerCount: 2
Fore
SplineSet
286 595 m 128,-1,1
 298 611 298 611 311 620 c 128,-1,2
 324 629 324 629 332 631 c 0,3,4
 350 636 350 636 349 619 c 2,5,-1
 285 -71 l 2,6,7
 284 -82 284 -82 272 -99 c 0,8,9
 260 -115 260 -115 247 -123 c 0,10,11
 234 -132 234 -132 226 -134 c 0,12,13
 208 -139 208 -139 209 -123 c 2,14,-1
 273 568 l 2,15,0
 274 579 274 579 286 595 c 128,-1,1
438.5 113 m 128,-1,17
 454 123 454 123 463.5 121 c 128,-1,18
 473 119 473 119 471 107 c 0,19,20
 464 68 464 68 441 37.5 c 128,-1,21
 418 7 418 7 393.5 -10 c 128,-1,22
 369 -27 369 -27 347 -33 c 0,23,24
 297 -45 297 -45 262 -38 c 0,25,26
 30 -15 30 -15 73 231 c 0,27,28
 111 444 111 444 237 516 c 0,29,30
 286 544 286 544 332 546 c 0,31,32
 493 552 493 552 499 393 c 0,33,34
 499 383 499 383 488.5 367 c 128,-1,35
 478 351 478 351 465 341.5 c 128,-1,36
 452 332 452 332 443 329 c 0,37,38
 424 322 424 322 423 337 c 0,39,40
 417 475 417 475 278 469 c 0,41,42
 234 467 234 467 216 451 c 0,43,44
 172 410 172 410 150.5 289.5 c 128,-1,45
 129 169 129 169 171.5 109 c 128,-1,46
 214 49 214 49 320 38 c 0,47,48
 365 34 365 34 391 43 c 1,49,50
 394 50 394 50 395.5 61 c 128,-1,51
 397 72 397 72 410 87.5 c 128,-1,16
 423 103 423 103 438.5 113 c 128,-1,17
EndSplineSet
Validated: 37
EndChar

StartChar: sterling
Encoding: 357 163 101
GlifName: sterling
Width: 565
GlyphClass: 2
Flags: W
LayerCount: 2
Fore
SplineSet
493 19.5 m 128,-1,1
 472 0 472 0 456 -2 c 2,2,-1
 114 -38 l 2,3,4
 106 -39 106 -39 102.5 -33 c 128,-1,5
 99 -27 99 -27 103 -18 c 0,6,7
 144 94 144 94 154 303 c 1,8,-1
 54 302 l 2,9,10
 39 302 39 302 44 321 c 0,11,12
 52 346 52 346 75 362 c 128,-1,13
 98 378 98 378 108 378 c 2,14,-1
 156 379 l 1,15,16
 156 392 156 392 157 405 c 0,17,18
 158 497 158 497 172 559 c 0,19,20
 192 653 192 653 257 711 c 0,21,22
 309 758 309 758 368 758 c 0,23,24
 505 760 505 760 559 589 c 0,25,26
 562 580 562 580 552.5 564.5 c 128,-1,27
 543 549 543 549 527.5 536 c 128,-1,28
 512 523 512 523 499 520 c 128,-1,29
 486 517 486 517 483 526 c 0,30,31
 434 684 434 684 314 682 c 0,32,33
 288 682 288 682 276 674 c 0,34,35
 258 653 258 653 246 584.5 c 128,-1,36
 234 516 234 516 233.5 467 c 128,-1,37
 233 418 233 418 231 380 c 1,38,-1
 452 382 l 2,39,40
 467 382 467 382 462 363 c 0,41,42
 454 338 454 338 431 322 c 128,-1,43
 408 306 408 306 398 306 c 2,44,-1
 227 304 l 1,45,46
 215 142 215 142 183 40 c 1,47,-1
 506 74 l 2,48,49
 522 76 522 76 518 57.5 c 128,-1,0
 514 39 514 39 493 19.5 c 128,-1,1
EndSplineSet
Validated: 33
EndChar

StartChar: currency
Encoding: 358 164 102
GlifName: currency
Width: 495
GlyphClass: 2
Flags: W
LayerCount: 2
Fore
SplineSet
171 406 m 0,0,1
 161 392 161 392 144 386 c 128,-1,2
 127 380 127 380 122 385 c 2,3,-1
 38 468 l 2,4,5
 32 474 32 474 38 488 c 128,-1,6
 44 502 44 502 58 518 c 0,7,8
 72 532 72 532 88 538 c 0,9,10
 103 544 103 544 108 539 c 2,11,-1
 192 455 l 1,12,-1
 179 429 l 1,13,14
 174 409 174 409 171 406 c 0,0,1
378 405 m 0,15,16
 364 414 364 414 367 420 c 0,17,18
 375 434 375 434 390 448 c 2,19,-1
 471 522 l 2,20,21
 486 536 486 536 500 540 c 128,-1,22
 514 544 514 544 518 537 c 128,-1,23
 522 530 522 530 514 515 c 0,24,25
 507 500 507 500 491 485 c 2,26,-1
 410 412 l 2,27,28
 377 379 377 379 381 394 c 0,29,30
 383 402 383 402 378 405 c 0,15,16
376 193 m 0,31,32
 382 216 382 216 399 224 c 128,-1,33
 416 232 416 232 422 226 c 2,34,-1
 499 151 l 2,35,36
 505 146 505 146 499 132 c 0,37,38
 492 118 492 118 478 102 c 0,39,40
 464 88 464 88 449 81 c 128,-1,41
 434 74 434 74 429 81 c 2,42,-1
 352 156 l 2,43,44
 340 167 340 167 352 176 c 0,45,46
 376 192 376 192 376 193 c 0,31,32
165 192 m 0,47,48
 184 190 184 190 179 184 c 0,49,50
 160 157 160 157 158 155 c 2,51,-1
 86 85 l 2,52,53
 70 70 70 70 56 64 c 128,-1,54
 42 58 42 58 36 66 c 0,55,56
 30 72 30 72 41 89 c 0,57,58
 51 106 51 106 60 115 c 2,59,-1
 132 185 l 2,60,61
 162 211 162 211 161 205 c 0,62,63
 159 193 159 193 165 192 c 0,47,48
326 502 m 0,64,65
 480 491 480 491 450 298 c 0,66,67
 437 221 437 221 394 174 c 0,68,69
 326 102 326 102 226 110 c 0,70,71
 56 122 56 122 82 286 c 0,72,73
 90 333 90 333 104.5 368 c 128,-1,74
 119 403 119 403 149 434 c 0,75,76
 220 509 220 509 326 502 c 0,64,65
277 450 m 0,77,78
 213 455 213 455 190 431 c 0,79,80
 177 418 177 418 164.5 388.5 c 128,-1,81
 152 359 152 359 146 320 c 0,82,83
 123 172 123 172 275 161 c 0,84,85
 333 157 333 157 352 177 c 0,86,87
 361 187 361 187 371 210.5 c 128,-1,88
 381 234 381 234 386 264 c 0,89,90
 415 441 415 441 277 450 c 0,77,78
EndSplineSet
Validated: 37
EndChar

StartChar: yen
Encoding: 359 165 103
GlifName: yen
Width: 630
GlyphClass: 2
Flags: W
LayerCount: 2
Fore
SplineSet
89 236 m 0,0,1
 92 245 92 245 102 258 c 0,2,3
 111 271 111 271 127 282 c 128,-1,4
 143 293 143 293 153 293 c 2,5,-1
 461 295 l 2,6,7
 476 295 476 295 471 276 c 0,8,9
 463 251 463 251 440 235 c 128,-1,10
 417 219 417 219 407 219 c 2,11,-1
 99 217 l 2,12,13
 83 217 83 217 89 236 c 0,0,1
82 140 m 0,14,15
 85 149 85 149 94 162 c 128,-1,16
 103 175 103 175 119 186 c 128,-1,17
 135 197 135 197 146 197 c 2,18,-1
 452 193 l 2,19,20
 467 193 467 193 460 174 c 0,21,22
 452 149 452 149 429 133 c 128,-1,23
 406 117 406 117 396 117 c 2,24,-1
 90 121 l 2,25,26
 76 121 76 121 82 140 c 0,14,15
68 739.5 m 128,-1,28
 83 753 83 753 96.5 757 c 128,-1,29
 110 761 110 761 114 753 c 2,30,-1
 308 333 l 1,31,-1
 545 714 l 2,32,33
 555 729 555 729 570.5 742 c 128,-1,34
 586 755 586 755 598.5 757.5 c 128,-1,35
 611 760 611 760 613 750.5 c 128,-1,36
 615 741 615 741 605 726 c 2,37,-1
 326 277 l 1,38,-1
 304 26 l 2,39,40
 303 15 303 15 291 -1 c 128,-1,41
 279 -17 279 -17 266 -26 c 128,-1,42
 253 -35 253 -35 245 -37 c 0,43,44
 227 -42 227 -42 228 -26 c 2,45,-1
 251 230 l 1,46,-1
 40 687 l 2,47,48
 36 695 36 695 44.5 710.5 c 128,-1,27
 53 726 53 726 68 739.5 c 128,-1,28
EndSplineSet
Validated: 5
EndChar

StartChar: brokenbar
Encoding: 360 166 104
GlifName: brokenbar
Width: 193
GlyphClass: 2
Flags: W
LayerCount: 2
Fore
SplineSet
132 722 m 128,-1,1
 144 738 144 738 157 746.5 c 128,-1,2
 170 755 170 755 178 757 c 0,3,4
 196 762 196 762 195 746 c 2,5,-1
 167 433 l 2,6,7
 166 422 166 422 154 406 c 128,-1,8
 142 390 142 390 129 381 c 128,-1,9
 116 372 116 372 108 370 c 0,10,11
 90 365 90 365 91 381 c 2,12,-1
 119 694 l 2,13,0
 120 706 120 706 132 722 c 128,-1,1
90 220 m 128,-1,15
 102 236 102 236 115 244.5 c 128,-1,16
 128 253 128 253 136 255 c 0,17,18
 154 259 154 259 153 244 c 2,19,-1
 119 -92 l 2,20,21
 118 -104 118 -104 106 -120 c 128,-1,22
 94 -136 94 -136 81 -144.5 c 128,-1,23
 68 -153 68 -153 60 -155 c 0,24,25
 42 -159 42 -159 43 -144 c 2,26,-1
 77 192 l 2,27,14
 78 204 78 204 90 220 c 128,-1,15
EndSplineSet
Validated: 1
EndChar

StartChar: section
Encoding: 361 167 105
GlifName: section
Width: 466
GlyphClass: 2
Flags: W
LayerCount: 2
Fore
SplineSet
164 443 m 1,0,-1
 139 456 l 2,1,2
 136 457 136 457 129 473 c 128,-1,3
 122 489 122 489 117 509 c 0,4,5
 105 558 105 558 138 610 c 0,6,7
 189 691 189 691 302.5 710.5 c 128,-1,8
 416 730 416 730 463 627 c 0,9,10
 467 619 467 619 458.5 603.5 c 128,-1,11
 450 588 450 588 435 574.5 c 128,-1,12
 420 561 420 561 406.5 557 c 128,-1,13
 393 553 393 553 389 561 c 0,14,15
 348 651 348 651 254 634 c 0,16,17
 216 628 216 628 195 616 c 1,18,19
 184 584 184 584 208 529 c 1,20,-1
 423 419 l 2,21,22
 425 418 425 418 427 415 c 0,23,24
 475 328 475 328 396 238 c 1,25,-1
 425 225 l 2,26,27
 429 223 429 223 430 219 c 0,28,29
 438 183 438 183 439 158 c 0,30,31
 443 98 443 98 406 45 c 0,32,33
 346 -38 346 -38 239 -38 c 0,34,35
 71 -40 71 -40 56 97 c 0,36,37
 55 107 55 107 65.5 122.5 c 128,-1,38
 76 138 76 138 89 148 c 128,-1,39
 102 158 102 158 111 162 c 0,40,41
 131 169 131 169 132 155 c 0,42,43
 144 36 144 36 293 38 c 0,44,45
 332 38 332 38 354 48 c 1,46,47
 369 83 369 83 355 153 c 1,48,-1
 111 265 l 2,49,50
 108 266 108 266 107 269 c 0,51,52
 87 309 87 309 112 366 c 0,53,54
 129 403 129 403 164 443 c 1,0,-1
357 256 m 1,55,56
 383 291 383 291 354 346 c 1,57,-1
 201 425 l 1,58,59
 186 408 186 408 177 388.5 c 128,-1,60
 168 369 168 369 180 338 c 1,61,-1
 357 256 l 1,55,56
EndSplineSet
Validated: 33
EndChar

StartChar: dieresis
Encoding: 362 168 106
GlifName: dieresis
Width: 399
GlyphClass: 2
Flags: W
LayerCount: 2
Fore
SplineSet
114 650 m 0,0,1
 113 672 113 672 127 687 c 128,-1,2
 141 702 141 702 160 702 c 128,-1,3
 179 702 179 702 193 687 c 128,-1,4
 207 672 207 672 207 650 c 128,-1,5
 207 628 207 628 193 613 c 128,-1,6
 179 598 179 598 160 598 c 128,-1,7
 141 598 141 598 127 613 c 128,-1,8
 113 628 113 628 114 650 c 0,0,1
272 646 m 0,9,10
 271 668 271 668 285 683 c 128,-1,11
 299 698 299 698 318 698 c 128,-1,12
 337 698 337 698 351 683 c 128,-1,13
 365 668 365 668 365 646 c 128,-1,14
 365 624 365 624 351 609 c 128,-1,15
 337 594 337 594 318 594 c 128,-1,16
 299 594 299 594 285 609 c 128,-1,17
 271 624 271 624 272 646 c 0,9,10
EndSplineSet
Validated: 33
EndChar

StartChar: copyright
Encoding: 363 169 107
GlifName: copyright
Width: 789
GlyphClass: 2
Flags: W
LayerCount: 2
Fore
SplineSet
594.28125 423.450195312 m 128,-1,1
 578.133430272 433.206856382 578.133430272 433.206856382 566.504581646 449.585041254 c 128,-1,2
 554.87573302 465.963226125 554.87573302 465.963226125 554.959960938 478.831054688 c 0,3,4
 555.084680812 497.764073945 555.084680812 497.764073945 549.513671875 515.450195312 c 0,5,6
 544.902233171 521.730844928 544.902233171 521.730844928 539.397460938 526.875 c 0,7,8
 522.868476855 535.166446355 522.868476855 535.166446355 503.59765625 539.927734375 c 0,9,10
 475.952318678 541.968665337 475.952318678 541.968665337 448.716796875 537.602539062 c 1,11,12
 387.640458858 513.324407147 387.640458858 513.324407147 343.885742188 466.947265625 c 1,13,14
 309.983332156 413.910316165 309.983332156 413.910316165 291.36328125 355.904296875 c 0,15,16
 282.362303074 315.378686369 282.362303074 315.378686369 281.438476562 274.372070312 c 1,17,18
 285.656662865 241.717740381 285.656662865 241.717740381 298.469726562 212.233398438 c 1,19,20
 311.587568254 196.560977596 311.587568254 196.560977596 329.70703125 184.060546875 c 1,21,22
 364.037186071 171.323012339 364.037186071 171.323012339 402.303710938 168.852539062 c 1,23,24
 448.922170466 174.661140714 448.922170466 174.661140714 490.8984375 195.216796875 c 1,25,26
 527.856482102 223.818108526 527.856482102 223.818108526 549.939453125 261.541015625 c 0,27,28
 555.227013504 270.574525569 555.227013504 270.574525569 570.100708008 267.424316406 c 128,-1,29
 584.974402512 264.274107243 584.974402512 264.274107243 600.232421875 250.889648438 c 128,-1,30
 615.490198006 237.504670577 615.490198006 237.504670577 622.707507649 221.275051133 c 128,-1,31
 629.924817292 205.045431689 629.924817292 205.045431689 624.63671875 196.01171875 c 0,32,33
 599.511567786 153.090863651 599.511567786 153.090863651 558.08203125 121.533203125 c 0,34,35
 557.099632766 120.784611379 557.099632766 120.784611379 555.958984375 120.215820312 c 0,36,37
 508.061274865 96.3067379205 508.061274865 96.3067379205 453.116210938 89.8603515625 c 0,38,39
 451.166399552 89.6302495977 451.166399552 89.6302495977 448.986328125 89.75 c 0,40,41
 394.099128952 92.7608429267 394.099128952 92.7608429267 342.637695312 113.645507812 c 0,42,43
 337.122138422 115.885393592 337.122138422 115.885393592 331.462890625 119.493164062 c 0,44,45
 277.493669936 153.900516997 277.493669936 153.900516997 240.073242188 203.991210938 c 0,46,47
 235.258105938 210.438202938 235.258105938 210.438202938 232.13671875 216.91796875 c 0,48,49
 208.584042906 265.809567161 208.584042906 265.809567161 202.551757812 317.114257812 c 0,50,51
 202.324262394 319.043906454 202.324262394 319.043906454 202.353515625 320.84375 c 0,52,53
 203.153418149 367.630034049 203.153418149 367.630034049 213.447265625 413.39453125 c 0,54,55
 213.613354362 414.131550019 213.613354362 414.131550019 213.834960938 414.827148438 c 0,56,57
 233.909755043 477.837545772 233.909755043 477.837545772 270.409179688 534.41796875 c 0,58,59
 271.023499119 535.370163868 271.023499119 535.370163868 271.790039062 536.1953125 c 0,60,61
 320.02969842 588.027786338 320.02969842 588.027786338 388.780273438 614.857421875 c 0,62,63
 390.33457128 615.464473981 390.33457128 615.464473981 392.109375 615.765625 c 0,64,65
 427.28870882 621.761226712 427.28870882 621.761226712 463.356445312 618.567382812 c 0,66,67
 465.65997657 618.362579417 465.65997657 618.362579417 468.127929688 617.7890625 c 0,68,69
 507.153868667 608.735695934 507.153868667 608.735695934 542.635742188 588.521484375 c 0,70,71
 548.409200721 585.231570344 548.409200721 585.231570344 554 580.724609375 c 0,72,73
 591.143402058 550.778902385 591.143402058 550.778902385 615.119140625 512.11328125 c 0,74,75
 618.640867499 506.434150039 618.640867499 506.434150039 620.76171875 500.952148438 c 0,76,77
 634.246875985 466.111661632 634.246875985 466.111661632 634.016601562 431.065429688 c 0,78,79
 633.931640056 418.198155946 633.931640056 418.198155946 622.180297852 415.945922852 c 128,-1,0
 610.428955648 413.693689757 610.428955648 413.693689757 594.28125 423.450195312 c 128,-1,1
539.232421875 640.262695312 m 0,80,81
 270.868814771 725.007983719 270.868814771 725.007983719 158.448242188 415.590820312 c 0,82,83
 130.769373966 339.133743056 130.769373966 339.133743056 128.353673562 277.76464714 c 128,-1,84
 125.937973159 216.395551224 125.937973159 216.395551224 140.255375917 182.78222786 c 128,-1,85
 154.572778675 149.168904495 154.572778675 149.168904495 180.00390625 129.114257812 c 0,86,87
 226.468902461 92.4736781636 226.468902461 92.4736781636 317.057617188 72.7353515625 c 0,88,89
 572.888103955 15.6751644508 572.888103955 15.6751644508 689.922851562 281.337890625 c 0,90,91
 722.576842523 355.974724405 722.576842523 355.974724405 727.160436573 417.082657479 c 128,-1,92
 731.744030622 478.190590553 731.744030622 478.190590553 716.252649365 514.557316479 c 128,-1,93
 700.761268107 550.924042405 700.761268107 550.924042405 670.708984375 575.509765625 c 0,94,95
 624.457108218 613.349420966 624.457108218 613.349420966 539.232421875 640.262695312 c 0,80,81
512.766601562 715.73828125 m 0,96,97
 621.340940832 681.451238798 621.340940832 681.451238798 691.50390625 624.051757812 c 0,98,99
 759.542816742 568.388398995 759.542816742 568.388398995 787.218874002 500.187392589 c 128,-1,100
 814.894931262 431.986386183 814.894931262 431.986386183 807.63333954 364.518987619 c 128,-1,101
 800.371747818 297.051589055 800.371747818 297.051589055 766.083984375 218.680664062 c 0,102,103
 639.323655361 -69.0581387617 639.323655361 -69.0581387617 350.943359375 -4.7373046875 c 0,104,105
 235.42650719 20.4311539057 235.42650719 20.4311539057 161.866210938 78.4384765625 c 0,106,107
 112.499566023 117.367539188 112.499566023 117.367539188 84.5772012062 163.77422433 c 128,-1,108
 56.6548363889 210.180909472 56.6548363889 210.180909472 50.4062124901 261.575903844 c 128,-1,109
 44.1575885913 312.970898215 44.1575885913 312.970898215 52.0808938331 364.931511928 c 128,-1,110
 60.004199075 416.89212564 60.004199075 416.89212564 81.55078125 476.41015625 c 0,111,112
 203.940006961 813.262243786 203.940006961 813.262243786 512.766601562 715.73828125 c 0,96,97
EndSplineSet
Validated: 524321
EndChar

StartChar: ordfeminine
Encoding: 364 170 108
GlifName: ordfeminine
Width: 439
GlyphClass: 2
Flags: W
LayerCount: 2
Fore
SplineSet
102.5 274 m 128,-1,1
 90 272 90 272 88 281.5 c 128,-1,2
 86 291 86 291 96 307 c 0,3,4
 134 367 134 367 188 394.5 c 128,-1,5
 242 422 242 422 298 425 c 0,6,7
 423 433 423 433 405 240 c 2,8,-1
 385 26 l 2,9,10
 384 15 384 15 372 -1.5 c 128,-1,11
 360 -18 360 -18 347 -26.5 c 128,-1,12
 334 -35 334 -35 326 -37 c 0,13,14
 308 -42 308 -42 309 -26 c 2,15,-1
 314 29 l 1,16,17
 224 -50 224 -50 149 -38 c 0,18,19
 36 -20 36 -20 72 101 c 0,20,21
 82 134 82 134 108 166.5 c 128,-1,22
 134 199 134 199 167 219 c 0,23,24
 228 256 228 256 331 246 c 1,25,26
 326 354 326 354 246 349 c 0,27,28
 174 345 174 345 156 317 c 0,29,30
 146 302 146 302 130.5 289 c 128,-1,0
 115 276 115 276 102.5 274 c 128,-1,1
320 91 m 1,31,-1
 327 163 l 1,32,33
 195 181 195 181 151 154 c 0,34,35
 148 149 148 149 146 141 c 0,36,37
 119 52 119 52 209 38 c 0,38,39
 244 33 244 33 268.5 46.5 c 128,-1,40
 293 60 293 60 320 91 c 1,31,-1
EndSplineSet
Validated: 33
EndChar

StartChar: guillemotleft
Encoding: 365 171 109
GlifName: guillemotleft
Width: 439
GlyphClass: 2
Flags: W
LayerCount: 2
Fore
SplineSet
489 495 m 0,0,1
 495 493 495 493 496 485.5 c 128,-1,2
 497 478 497 478 486.5 462 c 128,-1,3
 476 446 476 446 461 434 c 2,4,-1
 317 322 l 1,5,-1
 459 183 l 2,6,7
 465 177 465 177 459 163 c 128,-1,8
 453 149 453 149 438.5 134.5 c 128,-1,9
 424 120 424 120 409.5 113.5 c 128,-1,10
 395 107 395 107 389 113 c 2,11,-1
 227 271 l 2,12,13
 207 290 207 290 259 330 c 2,14,-1
 455 482 l 2,15,16
 476 498 476 498 489 495 c 0,0,1
310 475.5 m 128,-1,18
 311 467 311 467 300.5 451 c 128,-1,19
 290 435 290 435 274 423 c 2,20,-1
 128 312 l 1,21,-1
 273 176 l 2,22,23
 279 170 279 170 273 155.5 c 128,-1,24
 267 141 267 141 252.5 126.5 c 128,-1,25
 238 112 238 112 223.5 105.5 c 128,-1,26
 209 99 209 99 203 104 c 2,27,-1
 37 260 l 1,28,29
 21 281 21 281 56 310 c 2,30,-1
 270 473 l 2,31,32
 292 489 292 489 300.5 486.5 c 128,-1,17
 309 484 309 484 310 475.5 c 128,-1,18
EndSplineSet
Validated: 33
EndChar

StartChar: logicalnot
Encoding: 366 172 110
GlifName: logicalnot
Width: 475
GlyphClass: 2
Flags: W
LayerCount: 2
Fore
SplineSet
43 318 m 0,0,1
 46 327 46 327 55 340 c 128,-1,2
 64 353 64 353 80 364 c 128,-1,3
 96 375 96 375 107 375 c 2,4,-1
 451 375 l 2,5,6
 462 375 462 375 461 363 c 2,7,-1
 446 180 l 2,8,9
 445 169 445 169 433 153 c 128,-1,10
 421 137 421 137 408.5 128 c 128,-1,11
 396 119 396 119 387 117 c 0,12,13
 369 112 369 112 370 128 c 2,14,-1
 384 299 l 1,15,-1
 51 299 l 2,16,17
 37 299 37 299 43 318 c 0,0,1
EndSplineSet
Validated: 1
EndChar

StartChar: registered
Encoding: 367 174 111
GlifName: registered
Width: 789
GlyphClass: 2
Flags: W
LayerCount: 2
Fore
SplineSet
454.120117188 419.9375 m 128,-1,1
 469.239919146 415.401705894 469.239919146 415.401705894 484.290554753 400.898402209 c 128,-1,2
 499.34119036 386.395098524 499.34119036 386.395098524 505.01171875 370.897460938 c 2,3,-1
 580.01171875 165.897460938 l 2,4,5
 585.681392532 150.399424867 585.681392532 150.399424867 578.840335325 142.463504798 c 128,-1,6
 571.999278119 134.527584728 571.999278119 134.527584728 556.879882812 139.063476562 c 128,-1,7
 541.759837266 143.599343743 541.759837266 143.599343743 526.708911557 158.102735742 c 128,-1,8
 511.657985849 172.606127742 511.657985849 172.606127742 505.98828125 188.103515625 c 2,9,-1
 430.98828125 393.104492188 l 2,10,11
 425.317905413 408.601712846 425.317905413 408.601712846 432.159273162 416.537564486 c 128,-1,0
 439.000640912 424.473416125 439.000640912 424.473416125 454.120117188 419.9375 c 128,-1,1
354.956054688 334.2265625 m 1,12,-1
 338.431640625 156.122070312 l 2,13,14
 337.299313292 143.915493773 337.299313292 143.915493773 324.817993164 142.731323242 c 128,-1,15
 312.336673036 141.547152711 312.336673036 141.547152711 296.228515625 152.118164062 c 128,-1,16
 280.120252861 162.689280167 280.120252861 162.689280167 269.278636102 179.179031768 c 128,-1,17
 258.437019343 195.668783369 258.437019343 195.668783369 259.569335938 207.875976562 c 2,18,-1
 295.569335938 595.876953125 l 2,19,20
 296.744826425 608.544291154 296.744826425 608.544291154 309.576171875 609.46875 c 0,21,22
 382.576607501 617.517786279 382.576607501 617.517786279 444.079223633 609.642578125 c 128,-1,23
 505.581839765 601.767369971 505.581839765 601.767369971 550.00390625 570.374023438 c 0,24,25
 592.918554353 540.046563921 592.918554353 540.046563921 605.833613185 503.210359667 c 128,-1,26
 618.748672017 466.374155412 618.748672017 466.374155412 612.100585938 433.900390625 c 0,27,28
 592.780943086 342.98002857 592.780943086 342.98002857 432.681640625 336.491210938 c 0,29,30
 376.537200309 334.331075146 376.537200309 334.331075146 354.956054688 334.2265625 c 1,12,-1
362.426757812 414.735351562 m 1,31,32
 372.140256286 415.081012094 372.140256286 415.081012094 383.342773438 415.510742188 c 0,33,34
 519.220269356 421.019383644 519.220269356 421.019383644 533.8984375 490.100585938 c 0,35,36
 537.039954053 505.445125456 537.039954053 505.445125456 535.02734375 516.46484375 c 1,37,38
 517.392255543 524.946091608 517.392255543 524.946091608 474.007216092 529.863759768 c 128,-1,39
 430.622176641 534.781427928 430.622176641 534.781427928 373.249023438 531.376953125 c 1,40,-1
 362.426757812 414.735351562 l 1,31,32
539.232421875 640.262695312 m 0,41,42
 270.868814771 725.007983719 270.868814771 725.007983719 158.448242188 415.590820312 c 0,43,44
 130.769373966 339.133743056 130.769373966 339.133743056 128.353673562 277.76464714 c 128,-1,45
 125.937973159 216.395551224 125.937973159 216.395551224 140.255375917 182.78222786 c 128,-1,46
 154.572778675 149.168904495 154.572778675 149.168904495 180.00390625 129.114257812 c 0,47,48
 226.468902461 92.4736781636 226.468902461 92.4736781636 317.057617188 72.7353515625 c 0,49,50
 572.888103955 15.6751644508 572.888103955 15.6751644508 689.922851562 281.337890625 c 0,51,52
 722.576842523 355.974724405 722.576842523 355.974724405 727.160436573 417.082657479 c 128,-1,53
 731.744030622 478.190590553 731.744030622 478.190590553 716.252649365 514.557316479 c 128,-1,54
 700.761268107 550.924042405 700.761268107 550.924042405 670.708984375 575.509765625 c 0,55,56
 624.457108218 613.349420966 624.457108218 613.349420966 539.232421875 640.262695312 c 0,41,42
512.766601562 715.73828125 m 0,57,58
 621.340940832 681.451238798 621.340940832 681.451238798 691.50390625 624.051757812 c 0,59,60
 759.542816742 568.388398995 759.542816742 568.388398995 787.218874002 500.187392589 c 128,-1,61
 814.894931262 431.986386183 814.894931262 431.986386183 807.63333954 364.518987619 c 128,-1,62
 800.371747818 297.051589055 800.371747818 297.051589055 766.083984375 218.680664062 c 0,63,64
 639.323655361 -69.0581387617 639.323655361 -69.0581387617 350.943359375 -4.7373046875 c 0,65,66
 235.42650719 20.4311539057 235.42650719 20.4311539057 161.866210938 78.4384765625 c 0,67,68
 112.499566023 117.367539188 112.499566023 117.367539188 84.5772012062 163.77422433 c 128,-1,69
 56.6548363889 210.180909472 56.6548363889 210.180909472 50.4062124901 261.575903844 c 128,-1,70
 44.1575885913 312.970898215 44.1575885913 312.970898215 52.0808938331 364.931511928 c 128,-1,71
 60.004199075 416.89212564 60.004199075 416.89212564 81.55078125 476.41015625 c 0,72,73
 203.940006961 813.262243786 203.940006961 813.262243786 512.766601562 715.73828125 c 0,57,58
EndSplineSet
Validated: 524325
EndChar

StartChar: macron
Encoding: 368 175 112
GlifName: macron
Width: 336
GlyphClass: 2
Flags: W
LayerCount: 2
Fore
SplineSet
82 625 m 0,0,1
 85 634 85 634 94 647 c 128,-1,2
 103 660 103 660 119 671 c 128,-1,3
 135 682 135 682 146 682 c 2,4,-1
 364 682 l 2,5,6
 379 682 379 682 372 663 c 0,7,8
 364 638 364 638 341.5 622 c 128,-1,9
 319 606 319 606 308 606 c 2,10,-1
 90 606 l 2,11,12
 76 606 76 606 82 625 c 0,0,1
EndSplineSet
Validated: 1
EndChar

StartChar: degree
Encoding: 369 176 113
GlifName: degree
Width: 224
GlyphClass: 2
Flags: W
LayerCount: 2
Fore
SplineSet
190 718 m 0,0,1
 290 721 290 721 287 609 c 0,2,3
 286 567 286 567 264 537.5 c 128,-1,4
 242 508 242 508 222 492.5 c 128,-1,5
 202 477 202 477 182 472 c 0,6,7
 151 464 151 464 119 465 c 0,8,9
 23 469 23 469 31 568 c 0,10,11
 34 610 34 610 58 644 c 0,12,13
 108 715 108 715 190 718 c 0,0,1
136 642 m 0,14,15
 121 641 121 641 110 638 c 1,16,17
 108 630 108 630 107 620 c 0,18,19
 101 545 101 545 175 541 c 0,20,21
 195 540 195 540 210 543 c 1,22,23
 211 549 211 549 211 555 c 0,24,25
 213 645 213 645 136 642 c 0,14,15
EndSplineSet
Validated: 33
EndChar

StartChar: plusminus
Encoding: 370 177 114
GlifName: plusminus
Width: 399
GlyphClass: 2
Flags: W
LayerCount: 2
Fore
SplineSet
256.5 495 m 128,-1,1
 260 493 260 493 260 489 c 2,2,-1
 249 353 l 1,3,-1
 379 353 l 2,4,5
 392 353 392 353 378 334 c 128,-1,6
 364 315 364 315 351 315 c 0,7,8
 298 315 298 315 246 315 c 1,9,-1
 237 211 l 2,10,11
 236 197 236 197 217 184 c 0,12,13
 206 177 206 177 202.5 179 c 128,-1,14
 199 181 199 181 199 185 c 2,15,-1
 210 315 l 1,16,17
 143 315 143 315 76 315 c 0,18,19
 63 315 63 315 77 334 c 128,-1,20
 91 353 91 353 104 353 c 2,21,-1
 213 353 l 1,22,-1
 222 463 l 2,23,24
 223 477 223 477 238 487 c 128,-1,0
 253 497 253 497 256.5 495 c 128,-1,1
58 130 m 128,-1,26
 72 149 72 149 85 149 c 2,27,-1
 364 151 l 2,28,29
 377 151 377 151 363 132 c 128,-1,30
 349 113 349 113 336 113 c 2,31,-1
 57 111 l 2,32,25
 44 111 44 111 58 130 c 128,-1,26
EndSplineSet
Validated: 1
EndChar

StartChar: twosuperior
Encoding: 371 178 115
GlifName: twosuperior
Width: 571
GlyphClass: 2
Flags: W
LayerCount: 2
Fore
SplineSet
235 577 m 0,0,1
 228 573 228 573 224 575.5 c 128,-1,2
 220 578 220 578 229 601 c 128,-1,3
 238 624 238 624 258 650 c 0,4,5
 305 710 305 710 362 701 c 0,6,7
 531 675 531 675 381 485 c 0,8,9
 377 481 377 481 373 477 c 2,10,-1
 275 393 l 1,11,-1
 429 398 l 2,12,13
 442 398 442 398 429 379 c 128,-1,14
 416 360 416 360 403 360 c 2,15,-1
 223 354 l 2,16,17
 199 354 199 354 233 383 c 2,18,-1
 362 494 l 1,19,20
 481 640 481 640 332 663 c 0,21,22
 299 668 299 668 284.5 649.5 c 128,-1,23
 270 631 270 631 261.5 608.5 c 128,-1,24
 253 586 253 586 235 577 c 0,0,1
EndSplineSet
Validated: 33
EndChar

StartChar: threesuperior
Encoding: 372 179 116
GlifName: threesuperior
Width: 358
GlyphClass: 2
Flags: W
LayerCount: 2
Fore
SplineSet
89 413 m 0,0,1
 86 424 86 424 100 435 c 0,2,3
 124 455 124 455 127 445 c 0,4,5
 145 373 145 373 221 371 c 0,6,7
 250 370 250 370 267.5 379.5 c 128,-1,8
 285 389 285 389 294.5 420.5 c 128,-1,9
 304 452 304 452 276 473.5 c 128,-1,10
 248 495 248 495 179 500 c 0,11,12
 178 500 178 500 185.5 509.5 c 128,-1,13
 193 519 193 519 200 529 c 2,14,-1
 207 538 l 1,15,16
 247 535 247 535 269 548 c 0,17,18
 281 555 281 555 286 582 c 0,19,20
 302 651 302 651 224 660 c 0,21,22
 187 664 187 664 172 649 c 0,23,24
 168 645 168 645 161 629.5 c 128,-1,25
 154 614 154 614 136 607 c 0,26,27
 129 604 129 604 126.5 607.5 c 128,-1,28
 124 611 124 611 132 627 c 128,-1,29
 140 643 140 643 160 663 c 0,30,31
 200 703 200 703 254 698 c 0,32,33
 343 688 343 688 324 605 c 0,34,35
 314 557 314 557 276 527 c 1,36,37
 351 504 351 504 331 439.5 c 128,-1,38
 311 375 311 375 258 347 c 0,39,40
 229 332 229 332 193 333 c 0,41,42
 108 335 108 335 89 413 c 0,0,1
EndSplineSet
Validated: 33
EndChar

StartChar: acute
Encoding: 373 180 117
GlifName: acute
Width: 229
GlyphClass: 2
Flags: W
LayerCount: 2
Fore
SplineSet
251.5 757.5 m 128,-1,1
 264 760 264 760 266.5 751 c 128,-1,2
 269 742 269 742 259 726 c 0,3,4
 212 649 212 649 156 598 c 0,5,6
 141 584 141 584 127 579.5 c 128,-1,7
 113 575 113 575 109 582.5 c 128,-1,8
 105 590 105 590 113 605.5 c 128,-1,9
 121 621 121 621 144 642 c 128,-1,10
 167 663 167 663 199 714 c 0,11,12
 208 729 208 729 223.5 742 c 128,-1,0
 239 755 239 755 251.5 757.5 c 128,-1,1
EndSplineSet
Validated: 1
EndChar

StartChar: mu
Encoding: 374 181 118
GlifName: mu
Width: 519
GlyphClass: 2
Flags: W
LayerCount: 2
Fore
SplineSet
429 -2 m 128,-1,1
 417 -18 417 -18 404 -26.5 c 128,-1,2
 391 -35 391 -35 382 -37 c 0,3,4
 364 -41 364 -41 366 -25 c 2,5,-1
 373 40 l 1,6,7
 345 8 345 8 305 -15 c 128,-1,8
 265 -38 265 -38 214 -38.5 c 128,-1,9
 163 -39 163 -39 127 -10 c 1,10,-1
 112 -160 l 2,11,12
 111 -172 111 -172 99 -188 c 128,-1,13
 87 -204 87 -204 74.5 -212.5 c 128,-1,14
 62 -221 62 -221 54 -223 c 0,15,16
 36 -228 36 -228 37 -212 c 2,17,-1
 82 254 l 1,18,-1
 101 477 l 2,19,20
 102 488 102 488 114 504.5 c 128,-1,21
 126 521 126 521 139 529.5 c 128,-1,22
 152 538 152 538 160 540 c 0,23,24
 178 545 178 545 177 529 c 2,25,-1
 153 249 l 1,26,27
 130 37 130 37 277 38 c 0,28,29
 306 38 306 38 320 46 c 0,30,31
 355 66 355 66 385 156 c 0,32,33
 385 157 385 157 385 159 c 2,34,-1
 419 478 l 2,35,36
 420 490 420 490 432 505.5 c 128,-1,37
 444 521 444 521 457 529.5 c 128,-1,38
 470 538 470 538 479 540 c 0,39,40
 497 544 497 544 495 529 c 2,41,-1
 442 25 l 2,42,0
 441 14 441 14 429 -2 c 128,-1,1
EndSplineSet
Validated: 33
EndChar

StartChar: paragraph
Encoding: 375 182 119
GlifName: paragraph
Width: 482
GlyphClass: 2
Flags: W
LayerCount: 2
Fore
SplineSet
527 720 m 1,0,-1
 511 628 l 1,1,-1
 438 628 l 1,2,-1
 381 0 l 1,3,-1
 317 0 l 1,4,-1
 351 386 l 1,5,-1
 293 386 l 1,6,-1
 253 0 l 1,7,-1
 175 0 l 1,8,-1
 215 378 l 1,9,-1
 67 505 l 1,10,11
 98 732 98 732 348 720 c 1,12,-1
 527 720 l 1,0,-1
EndSplineSet
Validated: 33
EndChar

StartChar: periodcentered
Encoding: 376 183 120
GlifName: periodcentered
Width: 173
GlyphClass: 2
Flags: W
LayerCount: 2
Fore
SplineSet
93 356 m 128,-1,1
 105 372 105 372 118 380.5 c 128,-1,2
 131 389 131 389 139 391 c 0,3,4
 157 396 157 396 156 380 c 2,5,-1
 146 278 l 2,6,7
 145 266 145 266 133 250 c 128,-1,8
 121 234 121 234 108 225.5 c 128,-1,9
 95 217 95 217 87 215 c 0,10,11
 69 210 69 210 70 226 c 2,12,-1
 80 328 l 2,13,0
 81 340 81 340 93 356 c 128,-1,1
EndSplineSet
Validated: 1
EndChar

StartChar: cedilla
Encoding: 377 184 121
GlifName: cedilla
Width: 190
GlyphClass: 2
Flags: W
LayerCount: 2
Fore
SplineSet
107.5 22 m 128,-1,1
 123 35 123 35 135.5 37.5 c 128,-1,2
 148 40 148 40 151 31 c 0,3,4
 182 -93 182 -93 82 -192 c 0,5,6
 67 -206 67 -206 52.5 -212 c 128,-1,7
 38 -218 38 -218 32.5 -212 c 128,-1,8
 27 -206 27 -206 33.5 -191.5 c 128,-1,9
 40 -177 40 -177 52 -165 c 128,-1,10
 64 -153 64 -153 71 -138 c 0,11,12
 93 -90 93 -90 75 -31 c 0,13,14
 73 -22 73 -22 82.5 -6.5 c 128,-1,0
 92 9 92 9 107.5 22 c 128,-1,1
EndSplineSet
Validated: 33
EndChar

StartChar: onesuperior
Encoding: 378 185 122
GlifName: onesuperior
Width: 254
GlyphClass: 2
Flags: W
LayerCount: 2
Fore
SplineSet
85 602 m 128,-1,1
 89 615 89 615 102.5 630.5 c 128,-1,2
 116 646 116 646 131 654 c 2,3,-1
 215 700 l 2,4,5
 229 707 229 707 237 705 c 128,-1,6
 245 703 245 703 244 694 c 2,7,-1
 214 386 l 2,8,9
 213 374 213 374 201 358 c 128,-1,10
 189 342 189 342 176 333.5 c 128,-1,11
 163 325 163 325 155 323 c 0,12,13
 137 318 137 318 138 334 c 2,14,-1
 166 619 l 1,15,-1
 113 590 l 2,16,17
 98 582 98 582 89.5 585.5 c 128,-1,0
 81 589 81 589 85 602 c 128,-1,1
EndSplineSet
Validated: 1
EndChar

StartChar: ordmasculine
Encoding: 379 186 123
GlifName: ordmasculine
Width: 464
GlyphClass: 2
Flags: W
LayerCount: 2
Fore
SplineSet
311 426 m 0,0,1
 475 418 475 418 433 202 c 0,2,3
 413 100 413 100 366 39 c 0,4,5
 292 -55 292 -55 198 -38 c 0,6,7
 23 -7 23 -7 64 195 c 0,8,9
 79 273 79 273 120 328 c 0,10,11
 195 431 195 431 311 426 c 0,0,1
255 350 m 0,12,13
 191 353 191 353 171 326 c 128,-1,14
 151 299 151 299 140 241 c 0,15,16
 104 65 104 65 258 38 c 0,17,18
 301 32 301 32 314 42 c 0,19,20
 325 52 325 52 337.5 84 c 128,-1,21
 350 116 350 116 358 155 c 0,22,23
 395 344 395 344 255 350 c 0,12,13
EndSplineSet
Validated: 33
EndChar

StartChar: guillemotright
Encoding: 380 187 124
GlifName: guillemotright
Width: 439
GlyphClass: 2
Flags: W
LayerCount: 2
Fore
SplineSet
49 462.5 m 128,-1,1
 63 477 63 477 78 483.5 c 128,-1,2
 93 490 93 490 99 485 c 2,3,-1
 275 329 l 2,4,5
 278 327 278 327 281 323.5 c 128,-1,6
 284 320 284 320 276.5 304 c 128,-1,7
 269 288 269 288 242 268 c 2,8,-1
 42 116 l 2,9,10
 15 95 15 95 5 106 c 0,11,12
 -4 115 -4 115 9 134.5 c 128,-1,13
 22 154 22 154 38 166 c 2,14,-1
 184 276 l 1,15,-1
 29 413 l 2,16,17
 23 418 23 418 29 433 c 128,-1,0
 35 448 35 448 49 462.5 c 128,-1,1
233.5 466.5 m 128,-1,19
 248 481 248 481 262.5 487.5 c 128,-1,20
 277 494 277 494 283 489 c 2,21,-1
 457 327 l 1,22,23
 484 311 484 311 423 265 c 2,24,-1
 225 119 l 2,25,26
 203 103 203 103 194.5 106.5 c 128,-1,27
 186 110 186 110 186 118.5 c 128,-1,28
 186 127 186 127 197 143 c 128,-1,29
 208 159 208 159 223 171 c 2,30,-1
 365 275 l 1,31,-1
 213 417 l 2,32,33
 207 423 207 423 213 437.5 c 128,-1,18
 219 452 219 452 233.5 466.5 c 128,-1,19
EndSplineSet
Validated: 33
EndChar

StartChar: onequarter
Encoding: 381 188 125
GlifName: onequarter
Width: 651
GlyphClass: 2
Flags: W
LayerCount: 2
Fore
SplineSet
106 602 m 128,-1,1
 110 615 110 615 124 630.5 c 128,-1,2
 138 646 138 646 153 654 c 2,3,-1
 223 692 l 2,4,5
 236 699 236 699 244 697.5 c 128,-1,6
 252 696 252 696 251 686 c 2,7,-1
 233 388 l 2,8,9
 232 377 232 377 220.5 361 c 128,-1,10
 209 345 209 345 196 336 c 128,-1,11
 183 327 183 327 175 325 c 0,12,13
 156 320 156 320 157 336 c 2,14,-1
 174 611 l 1,15,-1
 133 590 l 2,16,17
 118 582 118 582 110 585.5 c 128,-1,0
 102 589 102 589 106 602 c 128,-1,1
717 712.5 m 128,-1,19
 724 708 724 708 719 694 c 128,-1,20
 714 680 714 680 700 665 c 2,21,-1
 66 -11 l 2,22,23
 52 -26 52 -26 37 -33.5 c 128,-1,24
 22 -41 22 -41 15 -36.5 c 128,-1,25
 8 -32 8 -32 13 -18 c 128,-1,26
 18 -4 18 -4 32 11 c 2,27,-1
 666 687 l 2,28,29
 680 702 680 702 695 709.5 c 128,-1,18
 710 717 710 717 717 712.5 c 128,-1,19
485 125 m 1,30,-1
 494 224 l 1,31,-1
 409 126 l 1,32,-1
 485 125 l 1,30,-1
633 105 m 0,33,34
 630 96 630 96 621 83 c 128,-1,35
 612 70 612 70 596 59 c 128,-1,36
 580 48 580 48 569 48 c 2,37,-1
 549 48 l 1,38,-1
 547 26 l 2,39,40
 546 15 546 15 534 -1.5 c 128,-1,41
 522 -18 522 -18 509 -26.5 c 128,-1,42
 496 -35 496 -35 488 -37 c 0,43,44
 470 -42 470 -42 471 -26 c 2,45,-1
 478 49 l 1,46,-1
 321 50 l 2,47,48
 315 50 315 50 311 52 c 128,-1,49
 307 54 307 54 309.5 65.5 c 128,-1,50
 312 77 312 77 329 96 c 2,51,-1
 517 312 l 1,52,-1
 543 338 l 1,53,54
 578 367 578 367 575 330 c 2,55,-1
 556 125 l 1,56,-1
 625 124 l 2,57,58
 639 124 639 124 633 105 c 0,33,34
EndSplineSet
Validated: 33
EndChar

StartChar: onehalf
Encoding: 382 189 126
GlifName: onehalf
Width: 632
GlyphClass: 2
Flags: W
LayerCount: 2
Fore
SplineSet
103 604 m 128,-1,1
 107 617 107 617 120.5 632.5 c 128,-1,2
 134 648 134 648 149 656 c 2,3,-1
 233 702 l 2,4,5
 247 709 247 709 255 707 c 128,-1,6
 263 705 263 705 262 696 c 2,7,-1
 230 380 l 2,8,9
 229 368 229 368 217 352 c 128,-1,10
 205 336 205 336 192 327.5 c 128,-1,11
 179 319 179 319 171 317 c 0,12,13
 153 313 153 313 154 328 c 2,14,-1
 184 621 l 1,15,-1
 131 592 l 2,16,17
 116 584 116 584 107.5 587.5 c 128,-1,0
 99 591 99 591 103 604 c 128,-1,1
369 180.5 m 128,-1,19
 354 172 354 172 345.5 175 c 128,-1,20
 337 178 337 178 340 190 c 0,21,22
 355 249 355 249 389 291 c 0,23,24
 459 376 459 376 551 352 c 0,25,26
 580 344 580 344 596 330 c 0,27,28
 629 302 629 302 606 243 c 0,29,30
 581 180 581 180 507 107 c 2,31,-1
 448 49 l 1,32,-1
 597 51 l 2,33,34
 612 51 612 51 607 32 c 0,35,36
 599 7 599 7 576.5 -9 c 128,-1,37
 554 -25 554 -25 543 -25 c 2,38,-1
 353 -28 l 2,39,40
 314 -29 314 -29 359 18 c 2,41,-1
 480 136 l 2,42,43
 527 184 527 184 537.5 211 c 128,-1,44
 548 238 548 238 525 259 c 0,45,46
 512 270 512 270 482.5 278 c 128,-1,47
 453 286 453 286 431 277 c 1,48,49
 422 262 422 262 416.5 241.5 c 128,-1,50
 411 221 411 221 397.5 205 c 128,-1,18
 384 189 384 189 369 180.5 c 128,-1,19
686.5 708 m 128,-1,52
 693 703 693 703 687.5 689 c 128,-1,53
 682 675 682 675 668 660 c 2,54,-1
 40 -2 l 2,55,56
 26 -17 26 -17 11 -24 c 128,-1,57
 -4 -31 -4 -31 -10.5 -26 c 128,-1,58
 -17 -21 -17 -21 -11.5 -7 c 128,-1,59
 -6 7 -6 7 8 22 c 2,60,-1
 636 684 l 2,61,62
 650 699 650 699 665 706 c 128,-1,51
 680 713 680 713 686.5 708 c 128,-1,52
EndSplineSet
Validated: 33
EndChar

StartChar: threequarters
Encoding: 383 190 127
GlifName: threequarters
Width: 669
GlyphClass: 2
Flags: W
LayerCount: 2
Fore
SplineSet
686.5 708 m 128,-1,1
 693 703 693 703 687.5 689 c 128,-1,2
 682 675 682 675 668 660 c 2,3,-1
 40 -2 l 2,4,5
 26 -17 26 -17 11 -24 c 128,-1,6
 -4 -31 -4 -31 -10.5 -26 c 128,-1,7
 -17 -21 -17 -21 -11.5 -7 c 128,-1,8
 -6 7 -6 7 8 22 c 2,9,-1
 636 684 l 2,10,11
 650 699 650 699 665 706 c 128,-1,0
 680 713 680 713 686.5 708 c 128,-1,1
485 125 m 1,12,-1
 494 224 l 1,13,-1
 409 126 l 1,14,-1
 485 125 l 1,12,-1
633 105 m 0,15,16
 630 96 630 96 621 83 c 128,-1,17
 612 70 612 70 596 59 c 128,-1,18
 580 48 580 48 569 48 c 2,19,-1
 549 48 l 1,20,-1
 547 26 l 2,21,22
 546 15 546 15 534 -1.5 c 128,-1,23
 522 -18 522 -18 509 -26.5 c 128,-1,24
 496 -35 496 -35 488 -37 c 0,25,26
 470 -42 470 -42 471 -26 c 2,27,-1
 478 49 l 1,28,-1
 321 50 l 2,29,30
 315 50 315 50 311 52 c 128,-1,31
 307 54 307 54 309.5 65.5 c 128,-1,32
 312 77 312 77 329 96 c 2,33,-1
 517 312 l 1,34,-1
 543 338 l 1,35,36
 578 367 578 367 575 330 c 2,37,-1
 556 125 l 1,38,-1
 625 124 l 2,39,40
 639 124 639 124 633 105 c 0,15,16
129 590 m 128,-1,42
 114 583 114 583 107 588 c 128,-1,43
 100 593 100 593 107 611.5 c 128,-1,44
 114 630 114 630 129 651 c 0,45,46
 182 722 182 722 256 718 c 0,47,48
 355 711 355 711 340 622 c 0,49,50
 335 592 335 592 310 562 c 1,51,52
 360 539 360 539 344 455 c 0,53,54
 337 416 337 416 312 385 c 0,55,56
 255 310 255 310 167 318 c 0,57,58
 95 325 95 325 78 390 c 0,59,60
 76 399 76 399 85.5 414.5 c 128,-1,61
 95 430 95 430 110.5 443 c 128,-1,62
 126 456 126 456 138.5 458.5 c 128,-1,63
 151 461 151 461 154 452 c 0,64,65
 167 399 167 399 225 394 c 0,66,67
 249 392 249 392 265 396 c 1,68,69
 267 402 267 402 268 409 c 0,70,71
 283 490 283 490 216 494 c 0,72,73
 199 495 199 495 177 491 c 1,74,75
 178 491 178 491 201 529 c 128,-1,76
 224 567 224 567 225 567 c 0,77,78
 248 571 248 571 265 577 c 1,79,80
 273 637 273 637 198 642 c 0,81,82
 187 643 187 643 177 641 c 1,83,84
 171 627 171 627 157.5 612 c 128,-1,41
 144 597 144 597 129 590 c 128,-1,42
EndSplineSet
Validated: 33
EndChar

StartChar: AE
Encoding: 391 198 135
GlifName: A_E_
Width: 941
GlyphClass: 2
Flags: W
LayerCount: 2
Fore
SplineSet
29 -27 m 128,-1,1
 13 -38 13 -38 4 -38 c 128,-1,2
 -5 -38 -5 -38 -7 -33 c 0,3,4
 -12 -22 -12 -22 4 0 c 2,5,-1
 522 720 l 2,6,7
 533 736 533 736 549 747 c 128,-1,8
 565 758 565 758 574 758 c 128,-1,9
 583 758 583 758 585 753 c 0,10,11
 590 742 590 742 574 720 c 2,12,-1
 239 254 l 1,13,-1
 536 250 l 2,14,15
 551 250 551 250 544 231 c 0,16,17
 536 206 536 206 513 190 c 128,-1,18
 490 174 490 174 480 174 c 2,19,-1
 184 178 l 1,20,-1
 56 0 l 2,21,0
 45 -16 45 -16 29 -27 c 128,-1,1
981 758 m 2,22,23
 991 758 991 758 991 748 c 0,24,25
 991 737 991 737 979.5 721 c 128,-1,26
 968 705 968 705 952 693.5 c 128,-1,27
 936 682 936 682 925 682 c 2,28,-1
 588 682 l 1,29,-1
 564 402 l 1,30,31
 734 402 734 402 905 402 c 0,32,33
 920 402 920 402 913 383 c 0,34,35
 905 358 905 358 882.5 342 c 128,-1,36
 860 326 860 326 849 326 c 0,37,38
 703 326 703 326 557 326 c 1,39,-1
 533 38 l 1,40,41
 725 38 725 38 918 38 c 0,42,43
 933 38 933 38 926 19 c 0,44,45
 918 -6 918 -6 895.5 -22 c 128,-1,46
 873 -38 873 -38 862 -38 c 2,47,-1
 469 -38 l 2,48,49
 462 -39 462 -39 458.5 -35.5 c 128,-1,50
 455 -32 455 -32 456 -24 c 2,51,-1
 517 694 l 2,52,53
 518 705 518 705 530 722 c 0,54,55
 552 751 552 751 576 757 c 0,56,57
 581 758 581 758 583 758 c 128,-1,58
 585 758 585 758 587 758 c 2,59,-1
 981 758 l 2,22,23
EndSplineSet
Validated: 37
EndChar

StartChar: Eth
Encoding: 401 208 145
GlifName: E_th
Width: 683
GlyphClass: 2
Flags: W
LayerCount: 2
Fore
SplineSet
31 328 m 0,0,1
 34 337 34 337 43 350 c 128,-1,2
 52 363 52 363 68 374 c 128,-1,3
 84 385 84 385 95 385 c 2,4,-1
 349 385 l 2,5,6
 364 385 364 385 357 366 c 0,7,8
 349 341 349 341 327 325 c 0,9,10
 304 309 304 309 293 309 c 2,11,-1
 39 309 l 2,12,13
 25 309 25 309 31 328 c 0,0,1
89 -26 m 2,14,-1
 159 694 l 2,15,16
 165 732 165 732 196 750 c 0,17,18
 208 757 208 757 223 758 c 0,19,20
 677 785 677 785 665 387 c 0,21,22
 660 237 660 237 581.5 132.5 c 128,-1,23
 503 28 503 28 383 -10 c 128,-1,24
 263 -48 263 -48 98 -38 c 0,25,26
 88 -38 88 -38 89 -26 c 2,14,-1
166 37 m 1,27,28
 312 29 312 29 405 59.5 c 128,-1,29
 498 90 498 90 533 138 c 0,30,31
 584 207 584 207 589 333 c 0,32,33
 594 507 594 507 505 594.5 c 128,-1,34
 416 682 416 682 229 684 c 1,35,-1
 166 37 l 1,27,28
EndSplineSet
Validated: 37
EndChar

StartChar: multiply
Encoding: 408 215 152
GlifName: multiply
Width: 340
GlyphClass: 2
Flags: W
LayerCount: 2
Fore
SplineSet
330 344.5 m 128,-1,1
 335 338 335 338 328 323 c 128,-1,2
 321 308 321 308 306 294 c 2,3,-1
 237 227 l 1,4,-1
 312 144 l 2,5,6
 317 138 317 138 310.5 123 c 128,-1,7
 304 108 304 108 289.5 94 c 128,-1,8
 275 80 275 80 260.5 74 c 128,-1,9
 246 68 246 68 240 74 c 2,10,-1
 165 158 l 1,11,-1
 97 93 l 2,12,13
 82 79 82 79 68 73.5 c 128,-1,14
 54 68 54 68 49 74.5 c 128,-1,15
 44 81 44 81 51 96 c 128,-1,16
 58 111 58 111 73 125 c 2,17,-1
 138 188 l 1,18,-1
 63 270 l 2,19,20
 58 276 58 276 64.5 291 c 128,-1,21
 71 306 71 306 85.5 320 c 128,-1,22
 100 334 100 334 114.5 340 c 128,-1,23
 129 346 129 346 135 340 c 2,24,-1
 210 257 l 1,25,-1
 282 326 l 2,26,27
 297 340 297 340 311 345.5 c 128,-1,0
 325 351 325 351 330 344.5 c 128,-1,1
EndSplineSet
Validated: 1
EndChar

StartChar: Oslash
Encoding: 409 216 153
GlifName: O_slash
Width: 678
GlyphClass: 2
Flags: W
LayerCount: 2
Fore
SplineSet
634 798 m 128,-1,1
 647 801 647 801 649 793 c 0,2,3
 652 784 652 784 643 769 c 2,4,-1
 151 -77 l 2,5,6
 142 -92 142 -92 127 -106 c 0,7,8
 111 -119 111 -119 98 -122 c 128,-1,9
 85 -125 85 -125 83 -117 c 0,10,11
 80 -108 80 -108 89 -93 c 2,12,-1
 581 753 l 2,13,14
 590 768 590 768 605 782 c 0,15,0
 621 795 621 795 634 798 c 128,-1,1
432 758 m 0,16,17
 694 750 694 750 656 363 c 0,18,19
 639 193 639 193 567 94 c 0,20,21
 466 -43 466 -43 304 -38 c 0,22,23
 41 -30 41 -30 76 327 c 0,24,25
 85 423 85 423 107.5 495 c 128,-1,26
 130 567 130 567 174 625 c 0,27,28
 275 763 275 763 432 758 c 0,16,17
376 682 m 0,29,30
 270 685 270 685 225 624 c 0,31,32
 201 591 201 591 180.5 527 c 128,-1,33
 160 463 160 463 152 379 c 0,34,35
 119 46 119 46 360 38 c 0,36,37
 470 34 470 34 515 95 c 0,38,39
 537 125 537 125 555 181.5 c 128,-1,40
 573 238 573 238 580 311 c 0,41,42
 616 674 616 674 376 682 c 0,29,30
EndSplineSet
Validated: 37
EndChar

StartChar: Thorn
Encoding: 415 222 159
GlifName: T_horn
Width: 598
GlyphClass: 2
Flags: W
LayerCount: 2
Fore
SplineSet
141 722 m 128,-1,1
 153 738 153 738 166 746.5 c 128,-1,2
 179 755 179 755 187 757 c 0,3,4
 205 762 205 762 204 746 c 2,5,-1
 187 571 l 1,6,7
 395 590 395 590 497.5 546 c 128,-1,8
 600 502 600 502 590 390 c 0,9,10
 584 314 584 314 542 260.5 c 128,-1,11
 500 207 500 207 452 179 c 0,12,13
 349 118 349 118 147 139 c 1,14,-1
 136 26 l 2,15,16
 135 15 135 15 123 -1.5 c 128,-1,17
 111 -18 111 -18 98 -26.5 c 128,-1,18
 85 -35 85 -35 77 -37 c 0,19,20
 59 -42 59 -42 60 -26 c 2,21,-1
 128 694 l 2,22,0
 129 706 129 706 141 722 c 128,-1,1
181 498 m 1,23,-1
 155 222 l 1,24,25
 257 206 257 206 330 213 c 0,26,27
 462 226 462 226 489 261 c 0,28,29
 509 287 509 287 514 338 c 0,30,31
 522 432 522 432 427 472 c 0,32,33
 345 508 345 508 181 498 c 1,23,-1
EndSplineSet
Validated: 33
EndChar

StartChar: germandbls
Encoding: 416 223 160
GlifName: germandbls
Width: 556
GlyphClass: 2
Flags: W
LayerCount: 2
Fore
SplineSet
112 -1 m 128,-1,1
 100 -17 100 -17 87.5 -26 c 128,-1,2
 75 -35 75 -35 66 -37 c 0,3,4
 48 -42 48 -42 49 -26 c 0,5,6
 73 288 73 288 89 441 c 0,7,8
 99 541 99 541 147 606 c 0,9,10
 228 716 228 716 363 710 c 0,11,12
 515 703 515 703 491 580 c 0,13,14
 481 530 481 530 440.5 478.5 c 128,-1,15
 400 427 400 427 340 387 c 1,16,-1
 538 222 l 2,17,18
 540 220 540 220 541 216 c 0,19,20
 561 145 561 145 510 76 c 0,21,22
 454 -1 454 -1 365 -20 c 0,23,24
 278 -39 278 -39 178 -32 c 0,25,26
 163 -31 163 -31 170 -12 c 0,27,28
 179 13 179 13 201.5 29 c 128,-1,29
 224 45 224 45 234 44 c 0,30,31
 319 40 319 40 381 52.5 c 128,-1,32
 443 65 443 65 459 78 c 0,33,34
 465 87 465 87 467.5 109.5 c 128,-1,35
 470 132 470 132 466 152 c 1,36,-1
 238 342 l 2,37,38
 218 361 218 361 261 395 c 0,39,40
 271 403 271 403 287 412 c 0,41,42
 346 439 346 439 372 462 c 128,-1,43
 398 485 398 485 406 504 c 0,44,45
 455 627 455 627 307 634 c 0,46,47
 273 635 273 635 246 629 c 0,48,49
 210 620 210 620 199 604 c 0,50,51
 173 568 173 568 165 491 c 0,52,53
 149 339 149 339 125 26 c 0,54,0
 124 15 124 15 112 -1 c 128,-1,1
EndSplineSet
Validated: 33
EndChar

StartChar: ae
Encoding: 423 230 167
GlifName: ae
Width: 773
GlyphClass: 2
Flags: W
LayerCount: 2
Fore
SplineSet
411 205 m 128,-1,1
 425 211 425 211 431 205 c 128,-1,2
 437 199 437 199 431 185 c 0,3,4
 397 103 397 103 349 46 c 0,5,6
 301 -12 301 -12 249 -31 c 0,7,8
 196 -50 196 -50 150 -37 c 0,9,10
 7 3 7 3 64 293 c 0,11,12
 83 389 83 389 131 451 c 0,13,14
 213 557 213 557 332 541 c 0,15,16
 475 523 475 523 445 303 c 0,17,18
 443 291 443 291 431 275 c 128,-1,19
 419 259 419 259 406 251 c 128,-1,20
 393 243 393 243 385 241 c 128,-1,21
 377 239 377 239 372 242 c 0,22,23
 368 245 368 245 369 253 c 0,24,25
 395 449 395 449 272 465 c 0,26,27
 242 469 242 469 220 464 c 0,28,29
 190 458 190 458 179 445 c 0,30,31
 154 413 154 413 140 339 c 0,32,33
 89 74 89 74 212 39 c 0,34,35
 275 21 275 21 309 62 c 0,36,37
 335 93 335 93 361 155 c 0,38,39
 367 169 367 169 381 184 c 0,40,0
 397 199 397 199 411 205 c 128,-1,1
433 234 m 1,41,42
 429 49 429 49 594 38 c 0,43,44
 629 35 629 35 657 40 c 0,45,46
 693 46 693 46 697 54 c 0,47,48
 705 69 705 69 720.5 83 c 128,-1,49
 736 97 736 97 749 101.5 c 128,-1,50
 762 106 762 106 767 98 c 0,51,52
 774 85 774 85 748 51 c 128,-1,53
 722 17 722 17 694.5 -2.5 c 128,-1,54
 667 -22 667 -22 641 -29 c 0,55,56
 583 -45 583 -45 536 -38 c 0,57,58
 339 -25 339 -25 359 211 c 0,59,60
 365 284 365 284 381 337.5 c 128,-1,61
 397 391 397 391 432 438 c 0,62,63
 512 546 512 546 631 541 c 0,64,65
 820 534 820 534 789 290 c 0,66,67
 780 250 780 250 749 233 c 0,68,69
 737 226 737 226 723 227 c 2,70,-1
 433 234 l 1,41,42
440 309 m 1,71,72
 447 311 447 311 451 311 c 2,73,-1
 717 305 l 1,74,75
 714 460 714 460 574 465 c 0,76,77
 506 468 506 468 483 436 c 0,78,79
 453 396 453 396 440 309 c 1,71,72
EndSplineSet
Validated: 37
EndChar

StartChar: eth
Encoding: 433 240 177
GlifName: eth
Width: 536
GlyphClass: 2
Flags: W
LayerCount: 2
Fore
SplineSet
424 269 m 0,0,1
 423 270 423 270 422 271 c 0,2,3
 348 327 348 327 288 345.5 c 128,-1,4
 228 364 228 364 197 350 c 128,-1,5
 166 336 166 336 147 240.5 c 128,-1,6
 128 145 128 145 159 96.5 c 128,-1,7
 190 48 190 48 267 40 c 128,-1,8
 344 32 344 32 380 55 c 0,9,10
 408 73 408 73 421 151 c 0,11,12
 429 202 429 202 424 269 c 0,0,1
209.5 468.5 m 128,-1,14
 209 481 209 481 220.5 497.5 c 128,-1,15
 232 514 232 514 248 524 c 2,16,-1
 297 555 l 1,17,18
 236 591 236 591 144 601 c 0,19,20
 132 602 132 602 131 614.5 c 128,-1,21
 130 627 130 627 140.5 643 c 128,-1,22
 151 659 151 659 167.5 670 c 128,-1,23
 184 681 184 681 196 679 c 0,24,25
 317 665 317 665 389 612 c 1,26,-1
 483 671 l 2,27,28
 499 681 499 681 511 679 c 128,-1,29
 523 677 523 677 523.5 664.5 c 128,-1,30
 524 652 524 652 512.5 635.5 c 128,-1,31
 501 619 501 619 485 609 c 2,32,-1
 429 574 l 1,33,34
 471 524 471 524 485 451 c 0,35,36
 520 265 520 265 497 164 c 0,37,38
 473 57 473 57 397.5 3.5 c 128,-1,39
 322 -50 322 -50 223 -40 c 0,40,41
 24 -20 24 -20 68 200 c 0,42,43
 103 372 103 372 214 422 c 0,44,45
 274 449 274 449 340 428 c 0,46,47
 370 418 370 418 406 399 c 1,48,49
 391 473 391 473 343 520 c 1,50,-1
 250 462 l 2,51,52
 234 452 234 452 222 454 c 128,-1,13
 210 456 210 456 209.5 468.5 c 128,-1,14
EndSplineSet
Validated: 33
EndChar

StartChar: divide
Encoding: 440 247 184
GlifName: divide
Width: 475
GlyphClass: 2
Flags: W
LayerCount: 2
Fore
SplineSet
183 407 m 0,0,1
 186 416 186 416 195 429 c 128,-1,2
 204 442 204 442 220 453 c 128,-1,3
 236 464 236 464 247 464 c 2,4,-1
 345 464 l 2,5,6
 360 464 360 464 353 445 c 0,7,8
 345 420 345 420 322.5 404 c 128,-1,9
 300 388 300 388 289 388 c 2,10,-1
 191 388 l 2,11,12
 177 388 177 388 183 407 c 0,0,1
154 106 m 0,13,14
 157 115 157 115 166 128 c 128,-1,15
 175 141 175 141 191 152.5 c 128,-1,16
 207 164 207 164 218 164 c 2,17,-1
 301 166 l 2,18,19
 316 166 316 166 311 148 c 0,20,21
 303 123 303 123 280.5 106.5 c 128,-1,22
 258 90 258 90 247 90 c 2,23,-1
 164 88 l 2,24,25
 148 87 148 87 154 106 c 0,13,14
28 261 m 0,26,27
 31 270 31 270 40 283 c 128,-1,28
 49 296 49 296 65 307 c 128,-1,29
 81 318 81 318 92 318 c 2,30,-1
 459 318 l 2,31,32
 474 318 474 318 467 299 c 0,33,34
 459 274 459 274 436.5 258 c 128,-1,35
 414 242 414 242 403 242 c 2,36,-1
 36 242 l 2,37,38
 22 242 22 242 28 261 c 0,26,27
EndSplineSet
Validated: 1
EndChar

StartChar: oslash
Encoding: 441 248 185
GlifName: oslash
Width: 494
GlyphClass: 2
Flags: W
LayerCount: 2
Fore
SplineSet
489 611 m 128,-1,1
 502 614 502 614 505 606 c 0,2,3
 508 597 508 597 500 582 c 2,4,-1
 124 -76 l 2,5,6
 115 -91 115 -91 99 -104 c 128,-1,7
 83 -117 83 -117 71 -121 c 0,8,9
 58 -124 58 -124 55 -116 c 0,10,11
 52 -107 52 -107 60 -92 c 2,12,-1
 436 566 l 2,13,14
 445 581 445 581 461 594 c 0,15,0
 476 608 476 608 489 611 c 128,-1,1
360 541 m 0,16,17
 544 525 544 525 508 240 c 0,18,19
 493 126 493 126 441 57 c 0,20,21
 361 -49 361 -49 242 -38 c 0,22,23
 40 -20 40 -20 71 222 c 0,24,25
 80 291 80 291 97.5 343 c 128,-1,26
 115 395 115 395 150 440 c 0,27,28
 235 552 235 552 360 541 c 0,16,17
302 465 m 0,29,30
 226 472 226 472 199 436 c 0,31,32
 184 417 184 417 169 373.5 c 128,-1,33
 154 330 154 330 147 272 c 0,34,35
 119 54 119 54 300 38 c 0,36,37
 369 32 369 32 391 61 c 0,38,39
 402 76 402 76 414 110.5 c 128,-1,40
 426 145 426 145 432 190 c 0,41,42
 466 451 466 451 302 465 c 0,29,30
EndSplineSet
Validated: 37
EndChar

StartChar: thorn
Encoding: 447 254 191
GlifName: thorn
Width: 491
GlyphClass: 2
Flags: W
LayerCount: 2
Fore
SplineSet
185 679 m 1,0,-1
 162 406 l 1,1,2
 215 485 215 485 308 485 c 128,-1,3
 401 485 401 485 442 414 c 0,4,5
 478 346 478 346 469 239.5 c 128,-1,6
 460 133 460 133 409.5 62 c 128,-1,7
 359 -9 359 -9 268 -11 c 0,8,9
 168 -11 168 -11 132 71 c 1,10,-1
 111 -176 l 1,11,-1
 45 -182 l 1,12,-1
 120 679 l 1,13,-1
 185 679 l 1,0,-1
380 385 m 128,-1,15
 350 437 350 437 296 437 c 128,-1,16
 242 437 242 437 198.5 383 c 128,-1,17
 155 329 155 329 147 240 c 0,18,19
 129 38 129 38 262 38 c 0,20,21
 319 38 319 38 356.5 91.5 c 128,-1,22
 394 145 394 145 402 239 c 128,-1,14
 410 333 410 333 380 385 c 128,-1,15
EndSplineSet
Validated: 33
EndChar

StartChar: Dcroat
Encoding: 465 272 209
GlifName: D_croat
Width: 713
GlyphClass: 2
Flags: W
LayerCount: 2
Fore
SplineSet
55 331 m 0,0,1
 58 340 58 340 67 353 c 128,-1,2
 76 366 76 366 92 377 c 128,-1,3
 108 388 108 388 119 388 c 2,4,-1
 387 388 l 2,5,6
 402 388 402 388 395 369 c 0,7,8
 387 344 387 344 365 328 c 0,9,10
 342 312 342 312 331 312 c 2,11,-1
 63 312 l 2,12,13
 49 312 49 312 55 331 c 0,0,1
119 -26 m 2,14,-1
 189 694 l 2,15,16
 195 732 195 732 226 750 c 0,17,18
 238 757 238 757 253 758 c 0,19,20
 707 785 707 785 695 387 c 0,21,22
 690 237 690 237 611.5 132.5 c 128,-1,23
 533 28 533 28 413 -10 c 128,-1,24
 293 -48 293 -48 128 -38 c 0,25,26
 118 -38 118 -38 119 -26 c 2,14,-1
196 37 m 1,27,28
 342 29 342 29 435 59.5 c 128,-1,29
 528 90 528 90 563 138 c 0,30,31
 614 207 614 207 619 333 c 0,32,33
 624 507 624 507 535 594.5 c 128,-1,34
 446 682 446 682 259 684 c 1,35,-1
 196 37 l 1,27,28
EndSplineSet
Validated: 37
EndChar

StartChar: dcroat
Encoding: 466 273 210
GlifName: dcroat
Width: 475
GlyphClass: 2
Flags: W
LayerCount: 2
Fore
SplineSet
261 635 m 0,0,1
 264 644 264 644 273 657 c 128,-1,2
 282 670 282 670 298 681 c 128,-1,3
 314 692 314 692 325 692 c 2,4,-1
 557 690 l 2,5,6
 572 690 572 690 565 671 c 0,7,8
 557 646 557 646 535 630 c 0,9,10
 512 614 512 614 501 614 c 2,11,-1
 269 616 l 2,12,13
 255 616 255 616 261 635 c 0,0,1
442 801.5 m 128,-1,15
 454 817 454 817 467 826 c 128,-1,16
 480 835 480 835 488 837 c 0,17,18
 506 842 506 842 505 826 c 2,19,-1
 437 26 l 2,20,21
 436 15 436 15 424 -1 c 128,-1,22
 412 -17 412 -17 399 -26 c 128,-1,23
 386 -35 386 -35 378 -37 c 0,24,25
 360 -42 360 -42 361 -26 c 2,26,-1
 368 53 l 1,27,28
 317 -10 317 -10 263 -30 c 128,-1,29
 209 -50 209 -50 163 -37 c 0,30,31
 21 4 21 4 77 293 c 0,32,33
 96 389 96 389 144 451 c 0,34,35
 227 557 227 557 345 541 c 0,36,37
 382 536 382 536 407 519 c 1,38,-1
 429 774 l 2,39,14
 430 786 430 786 442 801.5 c 128,-1,15
393 347 m 1,40,41
 380 454 380 454 285 465 c 0,42,43
 256 468 256 468 234 464 c 0,44,45
 202 458 202 458 192 445 c 0,46,47
 167 412 167 412 153 339 c 0,48,49
 101 73 101 73 225 39 c 0,50,51
 288 21 288 21 322 62 c 0,52,53
 348 93 348 93 374 155 c 0,54,55
 375 158 375 158 377 161 c 2,56,-1
 393 347 l 1,40,41
EndSplineSet
Validated: 37
EndChar

StartChar: hcircumflex
Encoding: 481 293 225
GlifName: hcircumflex
Width: 513
GlyphClass: 2
Flags: W
LayerCount: 2
Fore
SplineSet
332 846 m 1,0,-1
 395 846 l 1,1,-1
 458 697 l 1,2,-1
 416 697 l 1,3,-1
 360 803 l 1,4,-1
 280 697 l 1,5,-1
 239 697 l 1,6,-1
 332 846 l 1,0,-1
398 397 m 128,-1,8
 376 436 376 436 313 436 c 128,-1,9
 250 436 250 436 211 396 c 0,10,11
 156 339 156 339 146 224 c 2,12,-1
 126 0 l 1,13,-1
 60 0 l 1,14,-1
 120 683 l 1,15,-1
 186 683 l 1,16,-1
 161 400 l 1,17,18
 222 485 222 485 331 485 c 0,19,20
 390 485 390 485 428 459 c 0,21,22
 491 411 491 411 479 271 c 2,23,-1
 455 0 l 1,24,-1
 389 0 l 1,25,-1
 413 275 l 2,26,7
 420 358 420 358 398 397 c 128,-1,8
EndSplineSet
Validated: 33
EndChar

StartChar: Hbar
Encoding: 482 294 226
GlifName: H_bar
Width: 675
GlyphClass: 2
Flags: W
LayerCount: 2
Fore
SplineSet
36 539 m 0,0,1
 39 548 39 548 48 560 c 0,2,3
 57 573 57 573 73 584 c 128,-1,4
 89 595 89 595 100 596 c 2,5,-1
 736 596 l 2,6,7
 751 596 751 596 744 576 c 0,8,9
 736 551 736 551 714 535 c 0,10,11
 691 519 691 519 680 519 c 2,12,-1
 44 519 l 2,13,14
 30 520 30 520 36 539 c 0,0,1
218 721.5 m 128,-1,16
 230 737 230 737 243 746 c 128,-1,17
 256 755 256 755 264 757 c 0,18,19
 282 762 282 762 281 746 c 2,20,-1
 252 400 l 1,21,-1
 570 400 l 1,22,-1
 595 694 l 2,23,24
 596 705 596 705 608 721 c 128,-1,25
 620 737 620 737 633 746 c 128,-1,26
 646 755 646 755 654 757 c 0,27,28
 672 762 672 762 671 746 c 2,29,-1
 610 26 l 2,30,31
 609 15 609 15 597 -1 c 128,-1,32
 585 -17 585 -17 572 -26 c 128,-1,33
 559 -35 559 -35 551 -37 c 0,34,35
 533 -42 533 -42 534 -26 c 2,36,-1
 564 324 l 1,37,-1
 245 324 l 1,38,-1
 220 26 l 2,39,40
 219 15 219 15 207 -1 c 128,-1,41
 195 -17 195 -17 182 -26 c 128,-1,42
 169 -35 169 -35 161 -37 c 0,43,44
 143 -42 143 -42 144 -26 c 2,45,-1
 205 694 l 2,46,15
 206 706 206 706 218 721.5 c 128,-1,16
EndSplineSet
Validated: 5
EndChar

StartChar: hbar
Encoding: 483 295 227
GlifName: hbar
Width: 518
GlyphClass: 2
Flags: W
LayerCount: 2
Fore
SplineSet
18 636 m 0,0,1
 21 645 21 645 30 657 c 0,2,3
 40 670 40 670 56 681 c 128,-1,4
 72 692 72 692 82 692 c 2,5,-1
 334 684 l 2,6,7
 349 684 349 684 342 664 c 0,8,9
 333 639 333 639 311 623 c 0,10,11
 288 607 288 607 278 608 c 2,12,-1
 26 616 l 2,13,14
 11 617 11 617 18 636 c 0,0,1
134 806 m 128,-1,16
 146 822 146 822 159 830.5 c 128,-1,17
 172 839 172 839 180 841 c 0,18,19
 198 846 198 846 197 830 c 2,20,-1
 163 455 l 1,21,22
 194 492 194 492 235.5 516.5 c 128,-1,23
 277 541 277 541 319 541 c 0,24,25
 490 543 490 543 465 306 c 1,26,-1
 441 26 l 2,27,28
 440 15 440 15 428 -1 c 128,-1,29
 416 -17 416 -17 403 -26 c 128,-1,30
 390 -35 390 -35 382 -37 c 0,31,32
 364 -42 364 -42 365 -26 c 2,33,-1
 389 254 l 1,34,35
 412 466 412 466 265 465 c 0,36,37
 236 465 236 465 222 457 c 0,38,39
 187 437 187 437 157 347 c 0,40,41
 155 341 155 341 151 334 c 2,42,-1
 123 26 l 2,43,44
 122 15 122 15 110 -1.5 c 128,-1,45
 98 -18 98 -18 85 -26.5 c 128,-1,46
 72 -35 72 -35 64 -37 c 0,47,48
 46 -42 46 -42 47 -26 c 2,49,-1
 121 778 l 2,50,15
 122 790 122 790 134 806 c 128,-1,16
EndSplineSet
Validated: 37
EndChar

StartChar: dotlessi
Encoding: 493 305 237
GlifName: dotlessi
Width: 190
GlyphClass: 2
Flags: W
LayerCount: 2
Fore
SplineSet
121 505 m 128,-1,1
 133 521 133 521 146 529.5 c 128,-1,2
 159 538 159 538 168 540 c 0,3,4
 186 544 186 544 184 529 c 2,5,-1
 131 25 l 2,6,7
 130 13 130 13 118 -2.5 c 128,-1,8
 106 -18 106 -18 93 -26.5 c 128,-1,9
 80 -35 80 -35 71 -37 c 0,10,11
 53 -41 53 -41 55 -25 c 2,12,-1
 108 478 l 2,13,0
 109 489 109 489 121 505 c 128,-1,1
EndSplineSet
Validated: 1
EndChar

StartChar: kgreenlandic
Encoding: 500 312 244
GlifName: kgreenlandic
Width: 468
GlyphClass: 2
Flags: W
LayerCount: 2
Fore
SplineSet
109 485.5 m 128,-1,1
 121 501 121 501 134 510 c 128,-1,2
 147 519 147 519 155 521 c 0,3,4
 173 526 173 526 172 510 c 2,5,-1
 146 215 l 1,6,-1
 449 494 l 2,7,8
 464 508 464 508 477.5 512.5 c 128,-1,9
 491 517 491 517 495.5 509.5 c 128,-1,10
 500 502 500 502 492 487 c 128,-1,11
 484 472 484 472 469 458 c 2,12,-1
 312 314 l 1,13,-1
 467 33 l 2,14,15
 471 26 471 26 463 11 c 128,-1,16
 455 -4 455 -4 440 -18 c 128,-1,17
 425 -32 425 -32 411 -36.5 c 128,-1,18
 397 -41 397 -41 393 -33 c 2,19,-1
 239 246 l 1,20,-1
 141 156 l 1,21,-1
 129 26 l 2,22,23
 128 15 128 15 116 -1 c 128,-1,24
 104 -17 104 -17 91 -26 c 128,-1,25
 78 -35 78 -35 70 -37 c 0,26,27
 52 -42 52 -42 53 -26 c 2,28,-1
 96 458 l 2,29,0
 97 470 97 470 109 485.5 c 128,-1,1
EndSplineSet
Validated: 1
EndChar

StartChar: Lslash
Encoding: 509 321 253
GlifName: L_slash
Width: 489
GlyphClass: 2
Flags: W
LayerCount: 2
Fore
SplineSet
136 684 m 128,-1,1
 148 700 148 700 161 708.5 c 128,-1,2
 174 717 174 717 182 719 c 0,3,4
 200 724 200 724 199 708 c 2,5,-1
 172 426 l 1,6,-1
 299 484 l 2,7,8
 314 491 314 491 320 485.5 c 128,-1,9
 326 480 326 480 320.5 466 c 128,-1,10
 315 452 315 452 300.5 437 c 128,-1,11
 286 422 286 422 271 416 c 2,12,-1
 166 368 l 1,13,-1
 134 38 l 1,14,-1
 505 38 l 2,15,16
 520 38 520 38 513 19 c 0,17,18
 505 -6 505 -6 482.5 -22 c 128,-1,19
 460 -38 460 -38 449 -38 c 2,20,-1
 67 -38 l 2,21,22
 55 -38 55 -38 57 -26 c 2,23,-1
 92 334 l 1,24,-1
 17 300 l 2,25,26
 2 293 2 293 -4 298.5 c 128,-1,27
 -10 304 -10 304 -4.5 318 c 128,-1,28
 1 332 1 332 15.5 347 c 128,-1,29
 30 362 30 362 45 368 c 2,30,-1
 97 393 l 1,31,-1
 123 656 l 2,32,0
 124 668 124 668 136 684 c 128,-1,1
EndSplineSet
Validated: 1
EndChar

StartChar: lslash
Encoding: 510 322 254
GlifName: lslash
Width: 196
GlyphClass: 2
Flags: W
LayerCount: 2
Fore
SplineSet
-21 308 m 128,-1,1
 -17 321 -17 321 -3 337 c 0,2,3
 11 352 11 352 26 361 c 2,4,-1
 268 491 l 2,5,6
 283 499 283 499 291 495 c 128,-1,7
 299 491 299 491 295 478 c 128,-1,8
 291 465 291 465 277 449 c 0,9,10
 263 434 263 434 248 425 c 2,11,-1
 6 295 l 2,12,13
 -9 287 -9 287 -17 291 c 128,-1,0
 -25 295 -25 295 -21 308 c 128,-1,1
138 806 m 128,-1,15
 150 822 150 822 163 830.5 c 128,-1,16
 176 839 176 839 184 841 c 0,17,18
 202 846 202 846 201 830 c 2,19,-1
 127 26 l 2,20,21
 126 15 126 15 114 -1.5 c 128,-1,22
 102 -18 102 -18 89 -26.5 c 128,-1,23
 76 -35 76 -35 68 -37 c 0,24,25
 50 -42 50 -42 51 -26 c 2,26,-1
 125 778 l 2,27,14
 126 790 126 790 138 806 c 128,-1,15
EndSplineSet
Validated: 5
EndChar

StartChar: uni0237
Encoding: 588 567 332
GlifName: uni0237
Width: 326
GlyphClass: 2
Flags: W
LayerCount: 2
Fore
SplineSet
46.5 -68.5 m 128,-1,1
 61 -54 61 -54 75.5 -47.5 c 128,-1,2
 90 -41 90 -41 96 -47 c 0,3,4
 144 -93 144 -93 179 -97 c 1,5,6
 187 -65 187 -65 192 -10 c 2,7,-1
 244 532 l 2,8,9
 245 544 245 544 257 559.5 c 128,-1,10
 269 575 269 575 282 584 c 128,-1,11
 295 593 295 593 303 595 c 0,12,13
 321 600 321 600 320 583 c 2,14,-1
 268 42 l 2,15,16
 268 37 268 37 266 10.5 c 128,-1,17
 264 -16 264 -16 263 -23.5 c 128,-1,18
 262 -31 262 -31 257.5 -52 c 128,-1,19
 253 -73 253 -73 247 -84 c 0,20,21
 212 -148 212 -148 159 -169 c 0,22,23
 137 -177 137 -177 122 -177 c 128,-1,24
 107 -177 107 -177 87 -166 c 0,25,26
 62 -152 62 -152 26 -117 c 0,27,28
 20 -111 20 -111 26 -97 c 128,-1,0
 32 -83 32 -83 46.5 -68.5 c 128,-1,1
EndSplineSet
Validated: 1
EndChar

StartChar: circumflex
Encoding: 589 710 333
GlifName: circumflex
Width: 389
GlyphClass: 2
Flags: W
LayerCount: 2
Fore
SplineSet
183 610.5 m 128,-1,1
 167 599 167 599 158 599 c 128,-1,2
 149 599 149 599 146 604 c 0,3,4
 141 615 141 615 156 636 c 2,5,-1
 244 760 l 1,6,-1
 266 786 l 2,7,8
 295 815 295 815 308 794 c 2,9,-1
 380 667 l 2,10,11
 384 660 384 660 376 644.5 c 128,-1,12
 368 629 368 629 353 615 c 128,-1,13
 338 601 338 601 324 596.5 c 128,-1,14
 310 592 310 592 306 599 c 2,15,-1
 252 696 l 1,16,-1
 210 638 l 2,17,0
 199 622 199 622 183 610.5 c 128,-1,1
EndSplineSet
Validated: 33
EndChar

StartChar: caron
Encoding: 590 711 334
GlifName: caron
Width: 388
GlyphClass: 2
Flags: W
LayerCount: 2
Fore
SplineSet
159.5 783 m 128,-1,1
 174 797 174 797 188 801.5 c 128,-1,2
 202 806 202 806 207 799 c 2,3,-1
 268 696 l 1,4,-1
 321 766 l 2,5,6
 333 782 333 782 348.5 793 c 128,-1,7
 364 804 364 804 372.5 803.5 c 128,-1,8
 381 803 381 803 383 797 c 0,9,10
 387 785 387 785 371 764 c 2,11,-1
 273 633 l 2,12,13
 227 571 227 571 211 600 c 2,14,-1
 133 731 l 2,15,16
 129 738 129 738 137 753.5 c 128,-1,0
 145 769 145 769 159.5 783 c 128,-1,1
EndSplineSet
Validated: 33
EndChar

StartChar: breve
Encoding: 591 728 335
GlifName: breve
Width: 373
GlyphClass: 2
Flags: W
LayerCount: 2
Fore
SplineSet
325.5 743 m 128,-1,1
 338 759 338 759 350.5 767.5 c 128,-1,2
 363 776 363 776 371.5 777.5 c 128,-1,3
 380 779 380 779 384 775.5 c 128,-1,4
 388 772 388 772 387 765 c 0,5,6
 379 708 379 708 349 667 c 0,7,8
 294 592 294 592 215 594 c 0,9,10
 102 597 102 597 113 714 c 0,11,12
 114 725 114 725 126 741.5 c 128,-1,13
 138 758 138 758 151 766.5 c 128,-1,14
 164 775 164 775 172 777 c 0,15,16
 190 782 190 782 189 766 c 0,17,18
 180 673 180 673 271 670 c 0,19,20
 288 669 288 669 300 673 c 1,21,22
 308 689 308 689 310.5 708 c 128,-1,0
 313 727 313 727 325.5 743 c 128,-1,1
EndSplineSet
Validated: 33
EndChar

StartChar: dotaccent
Encoding: 592 729 336
GlifName: dotaccent
Width: 250
GlyphClass: 2
Flags: W
LayerCount: 2
Fore
SplineSet
187 772 m 0,0,1
 246 769 246 769 237 705.5 c 128,-1,2
 228 642 228 642 169 646 c 0,3,4
 116 650 116 650 125 714 c 0,5,6
 134 775 134 775 187 772 c 0,0,1
EndSplineSet
Validated: 33
EndChar

StartChar: ring
Encoding: 593 730 337
GlifName: ring
Width: 337
GlyphClass: 2
Flags: W
LayerCount: 2
Fore
SplineSet
251 847 m 0,0,1
 338 843 338 843 340 759 c 0,2,3
 340 720 340 720 332 697.5 c 128,-1,4
 324 675 324 675 310 656 c 0,5,6
 262 591 262 591 196 595 c 0,7,8
 109 601 109 601 108 703 c 0,9,10
 107 750 107 750 134 787 c 0,11,12
 181 851 181 851 251 847 c 0,0,1
262 671 m 0,13,14
 280 774 280 774 184 771 c 1,15,16
 184 765 184 765 184 759 c 0,17,18
 185 676 185 676 254 671 c 0,19,20
 258 671 258 671 262 671 c 0,13,14
EndSplineSet
Validated: 33
EndChar

StartChar: ogonek
Encoding: 594 731 338
GlifName: ogonek
Width: 215
GlyphClass: 2
Flags: W
LayerCount: 2
Fore
SplineSet
182 -135 m 0,0,1
 180 -144 180 -144 170.5 -156.5 c 128,-1,2
 161 -169 161 -169 145.5 -180.5 c 128,-1,3
 130 -192 130 -192 118 -193 c 0,4,5
 66 -196 66 -196 42.5 -180 c 128,-1,6
 19 -164 19 -164 29 -123 c 0,7,8
 48 -56 48 -56 105 9 c 0,9,10
 118 24 118 24 133.5 32.5 c 128,-1,11
 149 41 149 41 157 37.5 c 128,-1,12
 165 34 165 34 161 20 c 128,-1,13
 157 6 157 6 136 -17.5 c 128,-1,14
 115 -41 115 -41 103 -81 c 0,15,16
 99 -98 99 -98 114.5 -108.5 c 128,-1,17
 130 -119 130 -119 172 -117 c 0,18,19
 187 -116 187 -116 182 -135 c 0,0,1
EndSplineSet
Validated: 33
EndChar

StartChar: tilde
Encoding: 595 732 339
GlifName: tilde
Width: 370
GlyphClass: 2
Flags: W
LayerCount: 2
Fore
SplineSet
267 702 m 1,0,1
 289 734 289 734 316 741 c 0,2,3
 334 746 334 746 333 730 c 0,4,5
 333 729 333 729 332.5 724.5 c 128,-1,6
 332 720 332 720 332 718.5 c 128,-1,7
 332 717 332 717 331 712.5 c 128,-1,8
 330 708 330 708 329.5 705.5 c 128,-1,9
 329 703 329 703 327.5 698.5 c 128,-1,10
 326 694 326 694 324 690 c 128,-1,11
 322 686 322 686 320 682 c 0,12,13
 305 654 305 654 284.5 639 c 128,-1,14
 264 624 264 624 255.5 620.5 c 128,-1,15
 247 617 247 617 235 617 c 0,16,17
 218 618 218 618 211 622 c 2,18,-1
 171 644 l 1,19,-1
 130 664 l 1,20,21
 109 632 109 632 83 623 c 0,22,23
 63 616 63 616 62 630 c 2,24,25
 62 630 62 630 62 636 c 0,26,27
 61 642 61 642 60.5 645 c 128,-1,28
 60 648 60 648 60.5 655.5 c 128,-1,29
 61 663 61 663 63 668.5 c 128,-1,30
 65 674 65 674 68.5 682.5 c 128,-1,31
 72 691 72 691 77 698 c 0,32,33
 100 728 100 728 133 745 c 0,34,35
 149 753 149 753 160.5 751 c 128,-1,36
 172 749 172 749 173.5 749 c 128,-1,37
 175 749 175 749 176 748 c 2,38,-1
 237 718 l 1,39,-1
 267 702 l 1,0,1
EndSplineSet
Validated: 1
EndChar

StartChar: hungarumlaut
Encoding: 596 733 340
GlifName: hungarumlaut
Width: 346
GlyphClass: 2
Flags: W
LayerCount: 2
Fore
SplineSet
201.5 806.5 m 128,-1,1
 215 811 215 811 219.5 803.5 c 128,-1,2
 224 796 224 796 216 781 c 2,3,-1
 148 648 l 2,4,5
 140 633 140 633 125 619 c 128,-1,6
 110 605 110 605 96.5 600.5 c 128,-1,7
 83 596 83 596 78.5 603.5 c 128,-1,8
 74 611 74 611 82 626 c 2,9,-1
 150 759 l 2,10,11
 158 774 158 774 173 788 c 128,-1,0
 188 802 188 802 201.5 806.5 c 128,-1,1
343 806 m 128,-1,13
 357 811 357 811 361.5 804 c 128,-1,14
 366 797 366 797 359 782 c 2,15,-1
 289 641 l 2,16,17
 282 626 282 626 266.5 612 c 128,-1,18
 251 598 251 598 237 593 c 128,-1,19
 223 588 223 588 218.5 595 c 128,-1,20
 214 602 214 602 221 617 c 2,21,-1
 291 758 l 2,22,23
 298 773 298 773 313.5 787 c 128,-1,12
 329 801 329 801 343 806 c 128,-1,13
EndSplineSet
Validated: 1
EndChar

StartChar: uni0307
Encoding: 597 775 341
GlifName: uni0307
Width: 250
GlyphClass: 2
Flags: W
LayerCount: 2
Fore
SplineSet
128 644 m 0,0,1
 114 686 114 686 144 714 c 0,2,3
 161 730 161 730 187 730 c 128,-1,4
 213 730 213 730 226.5 713.5 c 128,-1,5
 240 697 240 697 237.5 672 c 128,-1,6
 235 647 235 647 218.5 630.5 c 128,-1,7
 202 614 202 614 170.5 614 c 128,-1,8
 139 614 139 614 128 644 c 0,0,1
EndSplineSet
Validated: 33
EndChar

StartChar: uni030F
Encoding: 598 783 342
GlifName: uni030F_
Width: 345
GlyphClass: 2
Flags: W
LayerCount: 2
Fore
SplineSet
124 788.5 m 128,-1,1
 139 802 139 802 152.5 806.5 c 128,-1,2
 166 811 166 811 170 803 c 2,3,-1
 238 666 l 2,4,5
 242 658 242 658 233.5 643 c 128,-1,6
 225 628 225 628 210 614.5 c 128,-1,7
 195 601 195 601 181.5 596.5 c 128,-1,8
 168 592 168 592 164 600 c 2,9,-1
 96 737 l 2,10,11
 92 745 92 745 100.5 760 c 128,-1,0
 109 775 109 775 124 788.5 c 128,-1,1
259.5 790.5 m 128,-1,13
 275 804 275 804 288 807.5 c 128,-1,14
 301 811 301 811 304 802 c 2,15,-1
 354 669 l 2,16,17
 357 661 357 661 348.5 645.5 c 128,-1,18
 340 630 340 630 324.5 617 c 128,-1,19
 309 604 309 604 296 600 c 128,-1,20
 283 596 283 596 280 605 c 2,21,-1
 230 738 l 2,22,23
 227 746 227 746 235.5 761.5 c 128,-1,12
 244 777 244 777 259.5 790.5 c 128,-1,13
EndSplineSet
Validated: 1
EndChar

StartChar: uni0311
Encoding: 599 785 343
GlifName: uni0311
Width: 373
GlyphClass: 2
Flags: W
LayerCount: 2
Fore
SplineSet
189 641 m 128,-1,1
 178 625 178 625 165.5 615 c 128,-1,2
 153 605 153 605 144 602 c 0,3,4
 124 595 124 595 123 609 c 0,5,6
 122 628 122 628 122 644 c 0,7,8
 121 681 121 681 155 723 c 0,9,10
 196 773 196 773 236 777 c 0,11,12
 265 780 265 780 296 773 c 0,13,14
 381 754 381 754 365 650 c 0,15,16
 363 638 363 638 350.5 622.5 c 128,-1,17
 338 607 338 607 325 598.5 c 128,-1,18
 312 590 312 590 304 588.5 c 128,-1,19
 296 587 296 587 292 590.5 c 128,-1,20
 288 594 288 594 289 602 c 0,21,22
 301 683 301 683 234 697 c 0,23,24
 215 701 215 701 200 701 c 1,25,26
 198 686 198 686 199 671.5 c 128,-1,0
 200 657 200 657 189 641 c 128,-1,1
EndSplineSet
Validated: 33
EndChar

StartChar: uni0326
Encoding: 600 806 344
GlifName: uni0326
Width: 190
GlyphClass: 2
Flags: W
LayerCount: 2
Fore
SplineSet
107.5 22 m 128,-1,1
 123 35 123 35 135.5 37.5 c 128,-1,2
 148 40 148 40 151 31 c 0,3,4
 182 -93 182 -93 82 -192 c 0,5,6
 67 -206 67 -206 52.5 -212 c 128,-1,7
 38 -218 38 -218 32.5 -212 c 128,-1,8
 27 -206 27 -206 33.5 -191.5 c 128,-1,9
 40 -177 40 -177 52 -165 c 128,-1,10
 64 -153 64 -153 71 -138 c 0,11,12
 93 -90 93 -90 75 -31 c 0,13,14
 73 -22 73 -22 82.5 -6.5 c 128,-1,0
 92 9 92 9 107.5 22 c 128,-1,1
EndSplineSet
Validated: 33
EndChar

StartChar: uni03BC
Encoding: 601 956 345
GlifName: uni03B_C_
Width: 519
GlyphClass: 2
Flags: W
LayerCount: 2
Fore
SplineSet
429 -2 m 128,-1,1
 417 -18 417 -18 404 -26.5 c 128,-1,2
 391 -35 391 -35 382 -37 c 0,3,4
 364 -41 364 -41 366 -25 c 2,5,-1
 373 40 l 1,6,7
 345 8 345 8 305 -15 c 128,-1,8
 265 -38 265 -38 214 -38.5 c 128,-1,9
 163 -39 163 -39 127 -10 c 1,10,-1
 112 -160 l 2,11,12
 111 -172 111 -172 99 -188 c 128,-1,13
 87 -204 87 -204 74.5 -212.5 c 128,-1,14
 62 -221 62 -221 54 -223 c 0,15,16
 36 -228 36 -228 37 -212 c 2,17,-1
 82 254 l 1,18,-1
 101 477 l 2,19,20
 102 488 102 488 114 504.5 c 128,-1,21
 126 521 126 521 139 529.5 c 128,-1,22
 152 538 152 538 160 540 c 0,23,24
 178 545 178 545 177 529 c 2,25,-1
 153 249 l 1,26,27
 130 37 130 37 277 38 c 0,28,29
 306 38 306 38 320 46 c 0,30,31
 355 66 355 66 385 156 c 0,32,33
 385 157 385 157 385 159 c 2,34,-1
 419 478 l 2,35,36
 420 490 420 490 432 505.5 c 128,-1,37
 444 521 444 521 457 529.5 c 128,-1,38
 470 538 470 538 479 540 c 0,39,40
 497 544 497 544 495 529 c 2,41,-1
 442 25 l 2,42,0
 441 14 441 14 429 -2 c 128,-1,1
EndSplineSet
Validated: 33
EndChar

StartChar: uni0964
Encoding: 602 2404 346
GlifName: uni0964
Width: 237
GlyphClass: 2
Flags: W
LayerCount: 2
Fore
SplineSet
139 595 m 128,-1,1
 151 611 151 611 164 620 c 128,-1,2
 177 629 177 629 185 631 c 0,3,4
 203 636 203 636 202 620 c 2,5,-1
 138 -116 l 2,6,7
 137 -127 137 -127 125 -143 c 128,-1,8
 113 -159 113 -159 100 -168 c 128,-1,9
 87 -177 87 -177 79 -179 c 0,10,11
 61 -184 61 -184 62 -168 c 2,12,-1
 126 568 l 2,13,0
 127 579 127 579 139 595 c 128,-1,1
EndSplineSet
Validated: 1
EndChar

StartChar: uni0965
Encoding: 603 2405 347
GlifName: uni0965
Width: 349
GlyphClass: 2
Flags: W
LayerCount: 2
Fore
SplineSet
122 595 m 128,-1,1
 134 611 134 611 147 620 c 128,-1,2
 160 629 160 629 168 631 c 0,3,4
 186 636 186 636 185 619 c 2,5,-1
 117 -119 l 2,6,7
 116 -130 116 -130 104 -146.5 c 128,-1,8
 92 -163 92 -163 79 -171.5 c 128,-1,9
 66 -180 66 -180 58 -182 c 0,10,11
 40 -187 40 -187 41 -171 c 2,12,-1
 109 568 l 2,13,0
 110 579 110 579 122 595 c 128,-1,1
268 595 m 128,-1,15
 280 611 280 611 293 620 c 128,-1,16
 306 629 306 629 314 631 c 0,17,18
 332 636 332 636 331 619 c 2,19,-1
 265 -117 l 2,20,21
 264 -128 264 -128 252 -144 c 128,-1,22
 240 -160 240 -160 227 -169 c 128,-1,23
 214 -178 214 -178 206 -180 c 0,24,25
 188 -185 188 -185 189 -169 c 2,26,-1
 255 568 l 2,27,14
 256 579 256 579 268 595 c 128,-1,15
EndSplineSet
Validated: 1
EndChar

StartChar: tm_Anusvara
Encoding: 604 2946 348
GlifName: tm_A_nusvara
Width: 0
GlyphClass: 4
Flags: W
AnchorPoint: "Anchor-0" 0 0 mark 0
LayerCount: 2
Fore
SplineSet
82 754 m 0,0,1
 180 755 180 755 177 675 c 0,2,3
 175 627 175 627 149 590 c 0,4,5
 100 520 100 520 22 519 c 0,6,7
 -66 518 -66 518 -63 619 c 0,8,9
 -61 655 -61 655 -40 686 c 0,10,11
 6 753 6 753 82 754 c 0,0,1
98 598 m 1,12,13
 109 644 109 644 85 663.5 c 128,-1,14
 61 683 61 683 13 677 c 1,15,16
 7 595 7 595 76 596 c 0,17,18
 88 596 88 596 98 598 c 1,12,13
EndSplineSet
Validated: 33
EndChar

StartChar: tm_Visarga
Encoding: 605 2947 349
GlifName: tm_V_isarga
Width: 676
GlyphClass: 2
Flags: W
LayerCount: 2
Fore
SplineSet
213 164 m 0,0,1
 196 173 196 173 165.5 174 c 128,-1,2
 135 175 135 175 113 165 c 1,3,4
 107 152 107 152 104 131 c 0,5,6
 93 49 93 49 191 38 c 0,7,8
 214 35 214 35 230 40 c 1,9,10
 238 58 238 58 240 72 c 2,11,-1
 242 87 l 2,12,13
 249 145 249 145 213 164 c 0,0,1
318 137 m 0,14,15
 310 74 310 74 277 30 c 0,16,17
 217 -48 217 -48 133 -38 c 0,18,19
 15 -25 15 -25 28 81 c 0,20,21
 34 129 34 129 62 168 c 0,22,23
 123 252 123 252 226 250 c 0,24,25
 333 247 333 247 318 137 c 0,14,15
403 484 m 0,26,27
 386 493 386 493 355 494 c 128,-1,28
 324 495 324 495 303 485 c 1,29,30
 297 472 297 472 294 451 c 0,31,32
 283 369 283 369 381 358 c 0,33,34
 404 355 404 355 420 360 c 1,35,36
 428 378 428 378 430 392 c 2,37,-1
 432 407 l 2,38,39
 440 465 440 465 403 484 c 0,26,27
508 457 m 0,40,41
 500 394 500 394 467 350 c 0,42,43
 407 272 407 272 323 282 c 0,44,45
 205 295 205 295 218 401 c 0,46,47
 224 449 224 449 252 488 c 0,48,49
 314 573 314 573 416 570 c 0,50,51
 523 567 523 567 508 457 c 0,40,41
535 164 m 0,52,53
 518 173 518 173 487 174 c 128,-1,54
 456 175 456 175 435 165 c 1,55,56
 429 152 429 152 426 131 c 0,57,58
 415 49 415 49 513 38 c 0,59,60
 536 35 536 35 552 40 c 1,61,62
 560 58 560 58 562 72 c 2,63,-1
 564 87 l 2,64,65
 571 145 571 145 535 164 c 0,52,53
640 137 m 0,66,67
 632 74 632 74 599 30 c 0,68,69
 539 -48 539 -48 455 -38 c 0,70,71
 337 -25 337 -25 350 81 c 0,72,73
 356 129 356 129 384 168 c 0,74,75
 446 253 446 253 548 250 c 0,76,77
 655 247 655 247 640 137 c 0,66,67
EndSplineSet
Validated: 33
EndChar

StartChar: tm_A
Encoding: 606 2949 350
GlifName: tm_A_
Width: 961
GlyphClass: 2
Flags: W
LayerCount: 2
Fore
SplineSet
672 149 m 1,0,1
 437 152 437 152 295 130.5 c 128,-1,2
 153 109 153 109 118 80 c 0,3,4
 115 75 115 75 114 66 c 0,5,6
 105 -8 105 -8 168.5 -51 c 128,-1,7
 232 -94 232 -94 372 -101 c 0,8,9
 464 -105 464 -105 529 -70 c 0,10,11
 622 -20 622 -20 672 149 c 1,0,1
691 226 m 0,12,13
 692 229 692 229 692 229.5 c 128,-1,14
 692 230 692 230 692 232 c 0,15,16
 722 378 722 378 666 444 c 128,-1,17
 610 510 610 510 466 497 c 0,18,19
 410 492 410 492 368.5 479.5 c 128,-1,20
 327 467 327 467 316 458 c 0,21,22
 312 451 312 451 310 438 c 0,23,24
 291 299 291 299 396 311 c 0,25,26
 438 316 438 316 459 328 c 1,27,28
 466 343 466 343 465 366 c 0,29,30
 464 415 464 415 341 389 c 0,31,32
 329 386 329 386 326.5 395.5 c 128,-1,33
 324 405 324 405 333.5 420.5 c 128,-1,34
 343 436 343 436 358.5 449 c 128,-1,35
 374 462 374 462 387 465 c 0,36,37
 540 497 540 497 541 422 c 0,38,39
 543 336 543 336 462 277 c 0,40,41
 415 242 415 242 347 235 c 0,42,43
 212 220 212 220 234 388 c 0,44,45
 240 433 240 433 277 475 c 0,46,47
 298 500 298 500 328 519 c 0,48,49
 396 563 396 563 518 573 c 0,50,51
 674 586 674 586 737 512 c 128,-1,52
 800 438 800 438 768 278 c 0,53,54
 763 251 763 251 755 225 c 1,55,56
 756 225 756 225 756.5 225 c 128,-1,57
 757 225 757 225 758 225 c 2,58,-1
 853 224 l 1,59,-1
 880 494 l 2,60,61
 881 506 881 506 893 521.5 c 128,-1,62
 905 537 905 537 918 546 c 128,-1,63
 931 555 931 555 939 557 c 0,64,65
 957 562 957 562 956 545 c 2,66,-1
 893 -82 l 2,67,68
 892 -94 892 -94 880 -110 c 128,-1,69
 868 -126 868 -126 855 -134.5 c 128,-1,70
 842 -143 842 -143 834 -145 c 0,71,72
 816 -150 816 -150 817 -134 c 2,73,-1
 845 147 l 1,74,-1
 732 148 l 1,75,76
 697 51 697 51 638 -25 c 0,77,78
 512 -186 512 -186 316 -177 c 0,79,80
 167 -170 167 -170 96.5 -123 c 128,-1,81
 26 -76 26 -76 38 16 c 0,82,83
 43 55 43 55 71 88 c 128,-1,84
 99 121 99 121 131 142 c 0,85,86
 209 193 209 193 341 211 c 128,-1,87
 473 229 473 229 691 226 c 0,12,13
EndSplineSet
Validated: 33
EndChar

StartChar: tm_Aa
Encoding: 607 2950 351
GlifName: tm_A_a
Width: 1118
GlyphClass: 2
Flags: W
LayerCount: 2
Fore
SplineSet
672 149 m 1,0,1
 437 152 437 152 295 130.5 c 128,-1,2
 153 109 153 109 118 80 c 0,3,4
 115 75 115 75 114 66 c 0,5,6
 105 -8 105 -8 168.5 -51 c 128,-1,7
 232 -94 232 -94 372 -101 c 0,8,9
 464 -105 464 -105 529 -70 c 0,10,11
 622 -20 622 -20 672 149 c 1,0,1
691 226 m 0,12,13
 692 229 692 229 692 229.5 c 128,-1,14
 692 230 692 230 692 232 c 0,15,16
 722 378 722 378 666 444 c 128,-1,17
 610 510 610 510 466 497 c 0,18,19
 410 492 410 492 368.5 479.5 c 128,-1,20
 327 467 327 467 316 458 c 0,21,22
 312 451 312 451 310 438 c 0,23,24
 291 299 291 299 396 311 c 0,25,26
 438 316 438 316 459 328 c 1,27,28
 466 343 466 343 465 366 c 0,29,30
 464 415 464 415 341 389 c 0,31,32
 329 386 329 386 326.5 395.5 c 128,-1,33
 324 405 324 405 333.5 420.5 c 128,-1,34
 343 436 343 436 358.5 449 c 128,-1,35
 374 462 374 462 387 465 c 0,36,37
 540 497 540 497 541 422 c 0,38,39
 543 336 543 336 462 277 c 0,40,41
 415 242 415 242 347 235 c 0,42,43
 212 220 212 220 234 388 c 0,44,45
 240 433 240 433 277 475 c 0,46,47
 298 500 298 500 328 519 c 0,48,49
 396 563 396 563 518 573 c 0,50,51
 674 586 674 586 737 512 c 128,-1,52
 800 438 800 438 768 278 c 0,53,54
 763 251 763 251 755 225 c 1,55,56
 756 225 756 225 756.5 225 c 128,-1,57
 757 225 757 225 758 225 c 2,58,-1
 853 224 l 1,59,-1
 880 494 l 2,60,61
 881 506 881 506 893 521.5 c 128,-1,62
 905 537 905 537 918 546 c 128,-1,63
 931 555 931 555 939 557 c 0,64,65
 957 562 957 562 956 545 c 2,66,-1
 914 131 l 2,67,68
 917 132 917 132 920 131 c 0,69,70
 1147 111 1147 111 1096 -86 c 0,71,72
 1085 -130 1085 -130 1059 -168 c 0,73,74
 970 -302 970 -302 769 -323 c 0,75,76
 532 -348 532 -348 533 -206 c 0,77,78
 533 -195 533 -195 544.5 -179.5 c 128,-1,79
 556 -164 556 -164 568.5 -154.5 c 128,-1,80
 581 -145 581 -145 590 -142 c 0,81,82
 609 -136 609 -136 609 -152 c 0,83,84
 608 -270 608 -270 820 -247 c 0,85,86
 900 -238 900 -238 944 -217 c 128,-1,87
 988 -196 988 -196 1001.5 -176 c 128,-1,88
 1015 -156 1015 -156 1022 -128 c 0,89,90
 1060 18 1060 18 906 49 c 1,91,-1
 893 -82 l 2,92,93
 892 -94 892 -94 880 -110 c 128,-1,94
 868 -126 868 -126 855 -134.5 c 128,-1,95
 842 -143 842 -143 834 -145 c 0,96,97
 816 -150 816 -150 817 -134 c 2,98,-1
 845 147 l 1,99,-1
 732 148 l 1,100,101
 697 51 697 51 638 -25 c 0,102,103
 512 -186 512 -186 316 -177 c 0,104,105
 167 -170 167 -170 96.5 -123 c 128,-1,106
 26 -76 26 -76 38 16 c 0,107,108
 43 55 43 55 71 88 c 128,-1,109
 99 121 99 121 131 142 c 0,110,111
 209 193 209 193 341 211 c 128,-1,112
 473 229 473 229 691 226 c 0,12,13
EndSplineSet
Validated: 33
EndChar

StartChar: tm_I
Encoding: 608 2951 352
GlifName: tm_I_
Width: 988
GlyphClass: 2
Flags: W
LayerCount: 2
Fore
SplineSet
264 95 m 1,0,1
 326 -24 326 -24 478 -87 c 1,2,3
 541 -60 541 -60 579 -19 c 128,-1,4
 617 22 617 22 646 84 c 1,5,6
 561 107 561 107 409 106 c 0,7,8
 328 105 328 105 264 95 c 1,0,1
333 -121 m 1,9,10
 215 -48 215 -48 171 72 c 1,11,12
 134 57 134 57 125 47 c 128,-1,13
 116 37 116 37 111 19 c 0,14,15
 70 -114 70 -114 246 -122 c 0,16,17
 291 -124 291 -124 333 -121 c 1,9,10
536 -108 m 1,18,19
 587 -124 587 -124 630 -127 c 0,20,21
 703 -132 703 -132 725 -117 c 1,22,23
 735 -104 735 -104 741.5 -67.5 c 128,-1,24
 748 -31 748 -31 748 -2 c 0,25,26
 747 41 747 41 692 67 c 1,27,28
 632 -40 632 -40 536 -108 c 1,18,19
676 167 m 1,29,30
 685 199 685 199 692 232 c 0,31,32
 722 375 722 375 685.5 440.5 c 128,-1,33
 649 506 649 506 547 497 c 0,34,35
 491 492 491 492 449.5 479.5 c 128,-1,36
 408 467 408 467 397 458 c 0,37,38
 393 451 393 451 391 438 c 0,39,40
 372 299 372 299 477 311 c 0,41,42
 515 315 515 315 536 326 c 1,43,44
 540 338 540 338 540 354 c 0,45,46
 539 411 539 411 408 387 c 0,47,48
 396 385 396 385 394 394.5 c 128,-1,49
 392 404 392 404 402 419.5 c 128,-1,50
 412 435 412 435 427.5 448 c 128,-1,51
 443 461 443 461 456 463 c 0,52,53
 615 492 615 492 616 411.5 c 128,-1,54
 617 331 617 331 539 275 c 0,55,56
 493 242 493 242 426 235 c 0,57,58
 292 220 292 220 315 388 c 0,59,60
 321 433 321 433 358 475 c 0,61,62
 380 500 380 500 410 519 c 0,63,64
 478 563 478 563 596 573 c 0,65,66
 832 594 832 594 768 278 c 0,67,68
 754 211 754 211 731 152 c 1,69,70
 823 120 823 120 824 52.5 c 128,-1,71
 825 -15 825 -15 805.5 -70 c 128,-1,72
 786 -125 786 -125 726 -169 c 0,73,74
 656 -220 656 -220 570 -207 c 0,75,76
 504 -197 504 -197 425 -166 c 1,77,78
 321 -204 321 -204 190 -198 c 0,79,80
 -15 -188 -15 -188 37 -19 c 0,81,82
 49 18 49 18 81.5 56.5 c 128,-1,83
 114 95 114 95 157 120 c 1,84,85
 140 196 140 196 148 287 c 0,86,87
 161 428 161 428 208.5 533.5 c 128,-1,88
 256 639 256 639 356.5 707 c 128,-1,89
 457 775 457 775 603 762 c 0,90,91
 959 731 959 731 969 466 c 0,92,93
 975 320 975 320 933 178 c 0,94,95
 929 165 929 165 915 149.5 c 128,-1,96
 901 134 901 134 886 125.5 c 128,-1,97
 871 117 871 117 863 121 c 128,-1,98
 855 125 855 125 859 138 c 0,99,100
 899 271 899 271 893 410 c 0,101,102
 883 657 883 657 545 686 c 0,103,104
 482 691 482 691 430.5 680 c 128,-1,105
 379 669 379 669 342 644 c 128,-1,106
 305 619 305 619 270.5 542.5 c 128,-1,107
 236 466 236 466 225 352 c 0,108,109
 214 236 214 236 239 155 c 1,110,111
 328 181 328 181 460.5 182 c 128,-1,112
 593 183 593 183 676 167 c 1,29,30
EndSplineSet
Validated: 33
EndChar

StartChar: tm_Ii
Encoding: 609 2952 353
GlifName: tm_I_i
Width: 588
GlyphClass: 2
Flags: W
LayerCount: 2
Fore
SplineSet
109.5 -3 m 128,-1,1
 97 -19 97 -19 84.5 -27.5 c 128,-1,2
 72 -36 72 -36 63.5 -37.5 c 128,-1,3
 55 -39 55 -39 51 -35.5 c 128,-1,4
 47 -32 47 -32 48 -25 c 2,5,-1
 120 501 l 2,6,7
 128 540 128 540 159 557 c 0,8,9
 171 564 171 564 186 564 c 2,10,-1
 581 564 l 2,11,12
 596 564 596 564 589 545 c 0,13,14
 581 520 581 520 558.5 504 c 128,-1,15
 536 488 536 488 525 488 c 2,16,-1
 422 488 l 1,17,-1
 368 25 l 2,18,19
 367 13 367 13 354.5 -2.5 c 128,-1,20
 342 -18 342 -18 329 -26.5 c 128,-1,21
 316 -35 316 -35 308 -37 c 128,-1,22
 300 -39 300 -39 295.5 -36 c 128,-1,23
 291 -33 291 -33 292 -25 c 2,24,-1
 352 487 l 1,25,26
 352 487 352 487 352 488 c 2,27,-1
 188 488 l 1,28,-1
 124 25 l 2,29,0
 122 13 122 13 109.5 -3 c 128,-1,1
215 171 m 128,-1,31
 200 163 200 163 192.5 167.5 c 128,-1,32
 185 172 185 172 190 185 c 2,33,-1
 214 258 l 2,34,35
 218 271 218 271 232 286.5 c 128,-1,36
 246 302 246 302 261 310 c 128,-1,37
 276 318 276 318 283.5 313.5 c 128,-1,38
 291 309 291 309 286 296 c 2,39,-1
 262 223 l 2,40,41
 258 210 258 210 244 194.5 c 128,-1,30
 230 179 230 179 215 171 c 128,-1,31
436 162 m 128,-1,43
 421 154 421 154 413.5 158.5 c 128,-1,44
 406 163 406 163 411 176 c 2,45,-1
 435 249 l 2,46,47
 439 262 439 262 453 277.5 c 128,-1,48
 467 293 467 293 482 301 c 128,-1,49
 497 309 497 309 504.5 304.5 c 128,-1,50
 512 300 512 300 507 287 c 2,51,-1
 483 214 l 2,52,53
 479 201 479 201 465 185.5 c 128,-1,42
 451 170 451 170 436 162 c 128,-1,43
EndSplineSet
Validated: 1
EndChar

StartChar: tm_U
Encoding: 610 2953 354
GlifName: tm_U_
Width: 887
GlyphClass: 2
Flags: W
LayerCount: 2
Fore
SplineSet
866 19 m 0,0,1
 863 10 863 10 854 -3 c 128,-1,2
 845 -16 845 -16 829 -27 c 128,-1,3
 813 -38 813 -38 802 -38 c 2,4,-1
 243 -37 l 2,5,6
 142 -38 142 -38 95 -16.5 c 128,-1,7
 48 5 48 5 59 58 c 0,8,9
 68 103 68 103 130 150 c 0,10,11
 141 158 141 158 158.5 163.5 c 128,-1,12
 176 169 176 169 186 173 c 128,-1,13
 196 177 196 177 217.5 178 c 128,-1,14
 239 179 239 179 247.5 180 c 128,-1,15
 256 181 256 181 281 179 c 0,16,17
 308 177 308 177 350.5 173.5 c 128,-1,18
 393 170 393 170 423 186 c 128,-1,19
 453 202 453 202 475 273 c 0,20,21
 542 484 542 484 321 497 c 0,22,23
 250 501 250 501 202 485 c 0,24,25
 185 480 185 480 180 475 c 0,26,27
 172 463 172 463 168 438 c 0,28,29
 151 310 151 310 256 311 c 0,30,31
 297 311 297 311 321 321 c 1,32,33
 326 338 326 338 323 365 c 0,34,35
 317 413 317 413 213 388 c 0,36,37
 200 385 200 385 197.5 393.5 c 128,-1,38
 195 402 195 402 204 417.5 c 128,-1,39
 213 433 213 433 228.5 446 c 128,-1,40
 244 459 244 459 257 462 c 0,41,42
 391 493 391 493 399 423 c 0,43,44
 409 334 409 334 332 275 c 0,45,46
 300 251 300 251 270.5 243 c 128,-1,47
 241 235 241 235 201 235 c 0,48,49
 71 234 71 234 92 388 c 0,50,51
 100 451 100 451 148 500 c 0,52,53
 202 556 202 556 274 569 c 0,54,55
 318 577 318 577 379 573 c 0,56,57
 628 558 628 558 549 311 c 0,58,59
 530 252 530 252 493 200.5 c 128,-1,60
 456 149 456 149 403 121 c 128,-1,61
 350 93 350 93 288 98 c 0,62,63
 185 107 185 107 134 93 c 1,64,65
 136 69 136 69 177.5 54 c 128,-1,66
 219 39 219 39 298 39 c 2,67,-1
 858 38 l 2,68,69
 872 38 872 38 866 19 c 0,0,1
EndSplineSet
Validated: 33
EndChar

StartChar: tm_Uu
Encoding: 611 2954 355
GlifName: tm_U_u
Width: 1221
GlyphClass: 2
Flags: W
LayerCount: 2
Fore
SplineSet
921 387 m 1,0,-1
 893 144 l 2,1,2
 895 131 895 131 880.5 113 c 128,-1,3
 866 95 866 95 850 85 c 128,-1,4
 834 75 834 75 825.5 76.5 c 128,-1,5
 817 78 817 78 814.5 89 c 128,-1,6
 812 100 812 100 814.5 124 c 128,-1,7
 817 148 817 148 821 173 c 0,8,9
 837 274 837 274 844 331 c 0,10,11
 847 355 847 355 817 374.5 c 128,-1,12
 787 394 787 394 746 394 c 0,13,14
 684 395 684 395 661 373 c 0,15,16
 633 347 633 347 621 296 c 1,17,18
 674 343 674 343 716 341 c 0,19,20
 800 337 800 337 785 222 c 0,21,22
 777 167 777 167 728 120 c 128,-1,23
 679 73 679 73 620 74 c 0,24,25
 589 74 589 74 568 96 c 0,26,27
 532 135 532 135 538 209 c 0,28,29
 549 322 549 322 637 405 c 0,30,31
 707 471 707 471 789 471 c 0,32,33
 858 470 858 470 894 441 c 1,34,35
 929 465 929 465 969 464 c 0,36,37
 1101 460 1101 460 1180 463 c 0,38,39
 1196 464 1196 464 1190 445 c 0,40,41
 1183 421 1183 421 1160 404 c 128,-1,42
 1137 387 1137 387 1126.5 386.5 c 128,-1,43
 1116 386 1116 386 1104 386 c 1,44,-1
 1075 135 l 2,45,46
 1074 123 1074 123 1062 107.5 c 128,-1,47
 1050 92 1050 92 1037 83.5 c 128,-1,48
 1024 75 1024 75 1015.5 73 c 128,-1,49
 1007 71 1007 71 1003 74 c 128,-1,50
 999 77 999 77 999 85 c 2,51,-1
 1034 385 l 1,52,53
 984 385 984 385 921 387 c 1,0,-1
617 212 m 1,54,55
 622 185 622 185 638 168 c 0,56,57
 664 140 664 140 704 154 c 1,58,59
 708 162 708 162 709 173 c 0,60,61
 715 217 715 217 703 240.5 c 128,-1,62
 691 264 691 264 663 265 c 0,63,64
 649 266 649 266 641 260 c 0,65,66
 628 243 628 243 625 232 c 128,-1,67
 622 221 622 221 617 212 c 1,54,55
1200 19 m 0,68,69
 1197 10 1197 10 1188 -3 c 128,-1,70
 1179 -16 1179 -16 1163 -27 c 128,-1,71
 1146.982112 -38.0122979978 1146.982112 -38.0122979978 1136 -38 c 2,72,-1
 243 -37 l 2,73,74
 140 -37 140 -37 95 -16.5 c 0,75,76
 48 5 48 5 59 58 c 0,77,78
 68 105 68 105 130 150 c 0,79,80
 141 158 141 158 158.5 163.5 c 128,-1,81
 176 169 176 169 186 173 c 128,-1,82
 196 177 196 177 217.5 178 c 128,-1,83
 239 179 239 179 247.5 180 c 128,-1,84
 256 181 256 181 281 179 c 0,85,86
 308 177 308 177 350.5 173.5 c 128,-1,87
 393 170 393 170 423 186 c 128,-1,88
 453 202 453 202 475 273 c 0,89,90
 542 484 542 484 321 497 c 0,91,92
 255 501 255 501 202 485 c 0,93,94
 183 479 183 479 180 475 c 0,95,96
 172 463 172 463 168 438 c 0,97,98
 151 310 151 310 256 311 c 0,99,100
 297 311 297 311 321 321 c 1,101,102
 326 338 326 338 323 365 c 0,103,104
 317 413 317 413 213 388 c 0,105,106
 200 385 200 385 197.5 393.5 c 128,-1,107
 195 402 195 402 204 417.5 c 128,-1,108
 213 433 213 433 228.5 446 c 128,-1,109
 244 459 244 459 257 462 c 0,110,111
 391 493 391 493 399 423 c 0,112,113
 409 334 409 334 332 275 c 0,114,115
 300 251 300 251 270.5 243 c 128,-1,116
 241 235 241 235 201 235 c 0,117,118
 72 234 72 234 92 388 c 0,119,120
 100 451 100 451 148 500 c 0,121,122
 202 556 202 556 274 569 c 0,123,124
 318 577 318 577 379 573 c 0,125,126
 628 558 628 558 549 311 c 0,127,128
 530 252 530 252 493 200.5 c 128,-1,129
 456 149 456 149 403 121 c 128,-1,130
 350 93 350 93 288 98 c 0,131,132
 185 107 185 107 134 93 c 1,133,134
 136 69 136 69 177.5 54 c 0,135,136
 218.754759322 39.0886412088 218.754759322 39.0886412088 298 39 c 2,137,-1
 1192 38 l 2,138,139
 1206 38 1206 38 1200 19 c 0,68,69
EndSplineSet
Validated: 524321
EndChar

StartChar: tm_E
Encoding: 612 2958 356
GlifName: tm_E_
Width: 744
GlyphClass: 2
Flags: W
LayerCount: 2
Fore
SplineSet
119 151 m 1,0,1
 126 100 126 100 149.5 67 c 128,-1,2
 173 34 173 34 204.5 33.5 c 128,-1,3
 236 33 236 33 254.5 46 c 128,-1,4
 273 59 273 59 280.5 123.5 c 128,-1,5
 288 188 288 188 269.5 229 c 128,-1,6
 251 270 251 270 212 271 c 0,7,8
 194 272 194 272 182.5 265.5 c 128,-1,9
 171 259 171 259 153.5 224.5 c 128,-1,10
 136 190 136 190 132 177 c 128,-1,11
 128 164 128 164 119 151 c 1,0,1
122 260 m 1,12,13
 153 300 153 300 193 324 c 128,-1,14
 233 348 233 348 268 347 c 0,15,16
 322 345 322 345 343.5 296.5 c 128,-1,17
 365 248 365 248 355 161 c 0,18,19
 350 116 350 116 324 68.5 c 128,-1,20
 298 21 298 21 249.5 -11 c 128,-1,21
 201 -43 201 -43 160 -42.5 c 128,-1,22
 119 -42 119 -42 96 -24.5 c 128,-1,23
 73 -7 73 -7 61 22 c 0,24,25
 21 120 21 120 55 256 c 0,26,27
 98 429 98 429 225 515 c 0,28,29
 292 560 292 560 363 560 c 2,30,-1
 737 561 l 2,31,32
 752 561 752 561 745 542 c 0,33,34
 737 517 737 517 714.5 501 c 128,-1,35
 692 485 692 485 681 485 c 2,36,-1
 612 485 l 1,37,-1
 567 22 l 2,38,39
 566 11 566 11 554 -5.5 c 128,-1,40
 542 -22 542 -22 529 -30.5 c 128,-1,41
 516 -39 516 -39 508 -41 c 0,42,43
 490 -46 490 -46 491 -30 c 2,44,-1
 541 484 l 1,45,-1
 308 484 l 2,46,47
 259 484 259 484 226 463 c 128,-1,48
 193 442 193 442 163.5 387.5 c 128,-1,49
 134 333 134 333 122 260 c 1,12,13
EndSplineSet
Validated: 33
EndChar

StartChar: tm_Ee
Encoding: 613 2959 357
GlifName: tm_E_e
Width: 728
GlyphClass: 2
Flags: W
LayerCount: 2
Fore
SplineSet
119 150 m 1,0,1
 126 97 126 97 150 65 c 0,2,3
 181 24 181 24 232 36 c 0,4,5
 250 40 250 40 255 45 c 0,6,7
 274 66 274 66 281 127 c 128,-1,8
 288 188 288 188 269.5 229 c 128,-1,9
 251 270 251 270 212 271 c 0,10,11
 190 272 190 272 181 266 c 0,12,13
 165 255 165 255 146 211 c 2,14,-1
 130 169 l 2,15,16
 127 161 127 161 119 150 c 1,0,1
122 261 m 1,17,18
 156 305 156 305 195.5 326.5 c 128,-1,19
 235 348 235 348 268 347 c 0,20,21
 321 345 321 345 343 296.5 c 128,-1,22
 365 248 365 248 355.5 167 c 128,-1,23
 346 86 346 86 288 21.5 c 128,-1,24
 230 -43 230 -43 150 -43 c 0,25,26
 107 -43 107 -43 81 -7 c 0,27,28
 32 57 32 57 41 171 c 0,29,30
 49 274 49 274 96 364 c 0,31,32
 159 486 159 486 262 536 c 0,33,34
 311 560 311 560 363 560 c 2,35,-1
 737 561 l 2,36,37
 752 561 752 561 745 542 c 0,38,39
 737 517 737 517 714.5 501 c 128,-1,40
 692 485 692 485 681 485 c 2,41,-1
 612 485 l 1,42,-1
 567 5 l 2,43,44
 566 -6 566 -6 554 -23 c 0,45,46
 537 -45 537 -45 516 -55 c 0,47,48
 515 -56 515 -56 514 -56 c 2,49,-1
 275 -207 l 2,50,51
 260 -217 260 -217 250 -215 c 128,-1,52
 240 -213 240 -213 242 -201 c 128,-1,53
 244 -189 244 -189 257 -173 c 128,-1,54
 270 -157 270 -157 285 -147 c 2,55,-1
 494 -16 l 1,56,-1
 541 484 l 1,57,-1
 308 484 l 2,58,59
 269 484 269 484 241 470.5 c 128,-1,60
 213 457 213 457 196 438 c 128,-1,61
 179 419 179 419 161 384 c 0,62,63
 133 329 133 329 122 261 c 1,17,18
EndSplineSet
Validated: 33
EndChar

StartChar: tm_Ai
Encoding: 614 2960 358
GlifName: tm_A_i
Width: 742
GlyphClass: 2
Flags: W
LayerCount: 2
Fore
SplineSet
362 17 m 128,-1,1
 374 33 374 33 387 41.5 c 128,-1,2
 400 50 400 50 408 51.5 c 128,-1,3
 416 53 416 53 421 50 c 0,4,5
 426 46 426 46 423 29.5 c 128,-1,6
 420 13 420 13 420 12 c 0,7,8
 408 -62 408 -62 436.5 -97 c 128,-1,9
 465 -132 465 -132 538 -128 c 0,10,11
 573 -126 573 -126 592 -115 c 1,12,13
 599 -103 599 -103 602 -82 c 0,14,15
 619 24 619 24 539 61 c 0,16,17
 531 65 531 65 535 78.5 c 128,-1,18
 539 92 539 92 552.5 107 c 128,-1,19
 566 122 566 122 581.5 130.5 c 128,-1,20
 597 139 597 139 605 135 c 0,21,22
 699 92 699 92 678 -34 c 0,23,24
 671 -77 671 -77 647 -113 c 0,25,26
 588 -199 588 -199 484 -204 c 0,27,28
 377 -210 377 -210 349 -139 c 1,29,30
 276 -219 276 -219 178 -198 c 0,31,32
 14 -163 14 -163 54 2 c 0,33,34
 66 53 66 53 99.5 96 c 128,-1,35
 133 139 133 139 175.5 164.5 c 128,-1,36
 218 190 218 190 269 198 c 0,37,38
 357 212 357 212 483 194 c 0,39,40
 542 185 542 185 575 204.5 c 128,-1,41
 608 224 608 224 629 318 c 0,42,43
 661 466 661 466 547 482 c 0,44,45
 514 487 514 487 496 476 c 1,46,47
 481 456 481 456 474.5 427 c 128,-1,48
 468 398 468 398 461 388 c 1,49,-1
 457 332 l 2,50,51
 456 321 456 321 444.5 305 c 128,-1,52
 433 289 433 289 420 280 c 128,-1,53
 407 271 407 271 398 269 c 0,54,55
 380 264 380 264 381 280 c 2,56,-1
 389 389 l 1,57,58
 382 489 382 489 300 486 c 0,59,60
 214 484 214 484 169 459 c 0,61,62
 168 458 168 458 165 456.5 c 128,-1,63
 162 455 162 455 161.5 454.5 c 128,-1,64
 161 454 161 454 158.5 452.5 c 128,-1,65
 156 451 156 451 155.5 450.5 c 128,-1,66
 155 450 155 450 153.5 448 c 128,-1,67
 152 446 152 446 151 443.5 c 128,-1,68
 150 441 150 441 149 438 c 0,69,70
 147 434 147 434 144 422 c 0,71,72
 123 351 123 351 144 322 c 0,73,74
 168 287 168 287 249 303 c 1,75,76
 245 373 245 373 191 347 c 0,77,78
 177 341 177 341 171.5 347.5 c 128,-1,79
 166 354 166 354 172.5 368 c 128,-1,80
 179 382 179 382 194 397 c 128,-1,81
 209 412 209 412 223 417 c 0,82,83
 278 439 278 439 302.5 417.5 c 128,-1,84
 327 396 327 396 325 339 c 0,85,86
 325 323 325 323 310.5 298.5 c 128,-1,87
 296 274 296 274 265 252.5 c 128,-1,88
 234 231 234 231 181 224 c 0,89,90
 101 214 101 214 72.5 254 c 128,-1,91
 44 294 44 294 70 382 c 0,92,93
 80 420 80 420 112 459 c 0,94,95
 190 557 190 557 354 562 c 0,96,97
 434 564 434 564 457 493 c 1,98,99
 480 520 480 520 518 542.5 c 128,-1,100
 556 565 556 565 607 557 c 0,101,102
 742 538 742 538 703 364 c 0,103,104
 669 208 669 208 561 143 c 0,105,106
 499 107 499 107 418 119.5 c 128,-1,107
 337 132 337 132 275 126 c 0,108,109
 167 114 167 114 146 88 c 0,110,111
 135 74 135 74 128 46 c 0,112,113
 95 -91 95 -91 240 -122 c 0,114,115
 272 -130 272 -130 291.5 -125 c 128,-1,116
 311 -120 311 -120 315 -117 c 0,117,118
 325 -106 325 -106 334.5 -72.5 c 128,-1,119
 344 -39 344 -39 347 -19 c 128,-1,0
 350 1 350 1 362 17 c 128,-1,1
EndSplineSet
Validated: 33
EndChar

StartChar: tm_O
Encoding: 615 2962 359
GlifName: tm_O_
Width: 762
GlyphClass: 2
Flags: W
LayerCount: 2
Fore
SplineSet
507 -88 m 1,0,1
 362 -47 362 -47 455 210 c 0,2,3
 464 234 464 234 491 254 c 1,4,5
 519 282 519 282 536 277 c 0,6,7
 545 274 545 274 542 262 c 0,8,9
 502 92 502 92 611 92 c 0,10,11
 633 92 633 92 644 99 c 1,12,13
 661 123 661 123 671 182 c 0,14,15
 721 502 721 502 390 500 c 0,16,17
 244 499 244 499 188 421 c 0,18,19
 172 398 172 398 158 366 c 0,20,21
 99 220 99 220 122 150 c 128,-1,22
 145 80 145 80 250 82 c 0,23,24
 256 82 256 82 262 83 c 1,25,26
 272 109 272 109 274.5 148.5 c 128,-1,27
 277 188 277 188 251.5 201 c 128,-1,28
 226 214 226 214 170 202 c 0,29,30
 158 200 158 200 155.5 209.5 c 128,-1,31
 153 219 153 219 162.5 234 c 128,-1,32
 172 249 172 249 188 262 c 128,-1,33
 204 275 204 275 216 278 c 0,34,35
 356 306 356 306 351 207 c 0,36,37
 349 167 349 167 341 137.5 c 128,-1,38
 333 108 333 108 309.5 74 c 128,-1,39
 286 40 286 40 254 23.5 c 128,-1,40
 222 7 222 7 196 6 c 0,41,42
 76 4 76 4 48.5 87.5 c 128,-1,43
 21 171 21 171 88 334 c 0,44,45
 107 381 107 381 135 420 c 0,46,47
 246 575 246 575 444 576 c 0,48,49
 801 578 801 578 747 230 c 0,50,51
 734 151 734 151 700 103 c 128,-1,52
 666 55 666 55 627.5 35.5 c 128,-1,53
 589 16 589 16 560.5 16 c 128,-1,54
 532 16 532 16 514 22 c 1,55,56
 553 -31 553 -31 668 -16 c 0,57,58
 684 -14 684 -14 680 -32 c 0,59,60
 675 -55 675 -55 652.5 -72.5 c 128,-1,61
 630 -90 630 -90 612 -92.5 c 128,-1,62
 594 -95 594 -95 573 -95 c 1,63,64
 552 -158 552 -158 492 -203 c 0,65,66
 423 -255 423 -255 294 -256 c 0,67,68
 189 -257 189 -257 167 -155 c 0,69,70
 161 -126 161 -126 178.5 -98 c 128,-1,71
 196 -70 196 -70 215.5 -53.5 c 128,-1,72
 235 -37 235 -37 259 -28 c 0,73,74
 293 -16 293 -16 332 -10 c 0,75,76
 340 -9 340 -9 343 -13 c 0,77,78
 350 -22 350 -22 338 -40.5 c 128,-1,79
 326 -59 326 -59 310 -71.5 c 128,-1,80
 294 -84 294 -84 277 -86.5 c 128,-1,81
 260 -89 260 -89 243 -94 c 1,82,83
 262 -181 262 -181 348 -180 c 0,84,85
 396 -180 396 -180 432.5 -171.5 c 128,-1,86
 469 -163 469 -163 481 -155 c 2,87,-1
 493 -147 l 1,88,89
 507 -128 507 -128 507 -88 c 1,0,1
EndSplineSet
Validated: 33
EndChar

StartChar: tm_Oo
Encoding: 616 2963 360
GlifName: tm_O_o
Width: 762
GlyphClass: 2
Flags: W
LayerCount: 2
Fore
SplineSet
507 -88 m 1,0,1
 362 -47 362 -47 455 210 c 0,2,3
 464 234 464 234 491 254 c 1,4,5
 519 282 519 282 536 277 c 0,6,7
 545 274 545 274 542 262 c 0,8,9
 502 92 502 92 611 92 c 0,10,11
 633 92 633 92 644 99 c 1,12,13
 661 123 661 123 671 182 c 0,14,15
 721 502 721 502 390 500 c 0,16,17
 244 499 244 499 188 421 c 0,18,19
 172 398 172 398 158 366 c 0,20,21
 99 220 99 220 122 150 c 128,-1,22
 145 80 145 80 250 82 c 0,23,24
 256 82 256 82 262 83 c 1,25,26
 272 109 272 109 274.5 148.5 c 128,-1,27
 277 188 277 188 251.5 201 c 128,-1,28
 226 214 226 214 170 202 c 0,29,30
 158 200 158 200 155.5 209.5 c 128,-1,31
 153 219 153 219 162.5 234 c 128,-1,32
 172 249 172 249 188 262 c 128,-1,33
 204 275 204 275 216 278 c 0,34,35
 356 306 356 306 351 207 c 0,36,37
 349 167 349 167 341 137.5 c 128,-1,38
 333 108 333 108 309.5 74 c 128,-1,39
 286 40 286 40 254 23.5 c 128,-1,40
 222 7 222 7 196 6 c 0,41,42
 76 4 76 4 48.5 87.5 c 128,-1,43
 21 171 21 171 88 334 c 0,44,45
 107 381 107 381 135 420 c 0,46,47
 246 575 246 575 444 576 c 0,48,49
 801 578 801 578 747 230 c 0,50,51
 734 151 734 151 700 103 c 128,-1,52
 666 55 666 55 627.5 35.5 c 128,-1,53
 589 16 589 16 560.5 16 c 128,-1,54
 532 16 532 16 514 22 c 1,55,56
 553 -31 553 -31 668 -16 c 0,57,58
 684 -14 684 -14 680 -32 c 0,59,60
 675 -55 675 -55 652.5 -72.5 c 128,-1,61
 630 -90 630 -90 612 -92.5 c 128,-1,62
 594 -95 594 -95 573 -95 c 1,63,64
 553 -157 553 -157 491 -202 c 0,65,66
 449 -233 449 -233 403 -244.5 c 128,-1,67
 357 -256 357 -256 304 -256 c 128,-1,68
 251 -256 251 -256 222 -245 c 0,69,70
 152 -217 152 -217 170 -119 c 0,71,72
 178 -75 178 -75 199 -50 c 128,-1,73
 220 -25 220 -25 250.5 -3.5 c 128,-1,74
 281 18 281 18 325 18 c 0,75,76
 415 19 415 19 423 -38 c 0,77,78
 426 -57 426 -57 414.5 -84.5 c 128,-1,79
 403 -112 403 -112 370.5 -136.5 c 128,-1,80
 338 -161 338 -161 297 -171 c 0,81,82
 295 -172 295 -172 291 -172 c 1,83,84
 315 -180 315 -180 357 -179.5 c 128,-1,85
 399 -179 399 -179 438 -169.5 c 128,-1,86
 477 -160 477 -160 484.5 -154.5 c 128,-1,87
 492 -149 492 -149 495 -145.5 c 128,-1,88
 498 -142 498 -142 502.5 -126 c 128,-1,89
 507 -110 507 -110 507 -88 c 1,0,1
283 -169 m 1,90,91
 276 -161 276 -161 286.5 -143.5 c 128,-1,92
 297 -126 297 -126 312.5 -113 c 128,-1,93
 328 -100 328 -100 336 -98 c 128,-1,94
 344 -96 344 -96 347 -95 c 0,95,96
 339 -57 339 -57 271 -58 c 0,97,98
 258 -58 258 -58 248 -61 c 1,99,100
 243 -76 243 -76 243 -97 c 0,101,102
 241 -150 241 -150 283 -169 c 1,90,91
EndSplineSet
Validated: 33
EndChar

StartChar: tm_Au
Encoding: 617 2964 361
GlifName: tm_A_u
Width: 1632
GlyphClass: 2
Flags: W
LayerCount: 2
Fore
SplineSet
507 -88 m 1,0,1
 362 -47 362 -47 455 210 c 0,2,3
 464 234 464 234 491 254 c 1,4,5
 519 282 519 282 536 277 c 0,6,7
 545 274 545 274 542 262 c 0,8,9
 502 92 502 92 611 92 c 0,10,11
 633 92 633 92 644 99 c 1,12,13
 661 123 661 123 671 182 c 0,14,15
 721 502 721 502 390 500 c 0,16,17
 244 499 244 499 188 421 c 0,18,19
 172 398 172 398 158 366 c 0,20,21
 99 220 99 220 122 150 c 128,-1,22
 145 80 145 80 250 82 c 0,23,24
 256 82 256 82 262 83 c 1,25,26
 272 109 272 109 274.5 148.5 c 128,-1,27
 277 188 277 188 251.5 201 c 128,-1,28
 226 214 226 214 170 202 c 0,29,30
 158 200 158 200 155.5 209.5 c 128,-1,31
 153 219 153 219 162.5 234 c 128,-1,32
 172 249 172 249 188 262 c 128,-1,33
 204 275 204 275 216 278 c 0,34,35
 356 306 356 306 351 207 c 0,36,37
 349 167 349 167 341 137.5 c 128,-1,38
 333 108 333 108 309.5 74 c 128,-1,39
 286 40 286 40 254 23.5 c 128,-1,40
 222 7 222 7 196 6 c 0,41,42
 76 4 76 4 48.5 87.5 c 128,-1,43
 21 171 21 171 88 334 c 0,44,45
 107 381 107 381 135 420 c 0,46,47
 246 575 246 575 444 576 c 0,48,49
 801 578 801 578 747 230 c 0,50,51
 734 151 734 151 700 103 c 128,-1,52
 666 55 666 55 627.5 35.5 c 128,-1,53
 589 16 589 16 560.5 16 c 128,-1,54
 532 16 532 16 514 22 c 1,55,56
 553 -31 553 -31 668 -16 c 0,57,58
 684 -14 684 -14 680 -32 c 0,59,60
 675 -55 675 -55 652.5 -72.5 c 128,-1,61
 630 -90 630 -90 612 -92.5 c 128,-1,62
 594 -95 594 -95 573 -95 c 1,63,64
 553 -157 553 -157 491 -202 c 0,65,66
 449 -233 449 -233 403 -244.5 c 128,-1,67
 357 -256 357 -256 304 -256 c 128,-1,68
 251 -256 251 -256 222 -245 c 0,69,70
 164 -222 164 -222 167 -151 c 0,71,72
 170 -59 170 -59 244 -8 c 0,73,74
 281 17 281 17 325 18 c 0,75,76
 415 19 415 19 423 -38 c 0,77,78
 426 -57 426 -57 414.5 -84.5 c 128,-1,79
 403 -112 403 -112 370.5 -136.5 c 128,-1,80
 338 -161 338 -161 297 -171 c 0,81,82
 295 -172 295 -172 291 -172 c 1,83,84
 315 -180 315 -180 357 -179.5 c 128,-1,85
 399 -179 399 -179 438 -169.5 c 128,-1,86
 477 -160 477 -160 484.5 -154.5 c 128,-1,87
 492 -149 492 -149 495 -145.5 c 128,-1,88
 498 -142 498 -142 502.5 -126 c 128,-1,89
 507 -110 507 -110 507 -88 c 1,0,1
283 -169 m 1,90,91
 276 -161 276 -161 286.5 -143.5 c 128,-1,92
 297 -126 297 -126 312.5 -113 c 128,-1,93
 328 -100 328 -100 336 -98 c 128,-1,94
 344 -96 344 -96 347 -95 c 0,95,96
 339 -57 339 -57 271 -58 c 0,97,98
 258 -58 258 -58 248 -61 c 1,99,100
 243 -76 243 -76 243 -97 c 0,101,102
 241 -150 241 -150 283 -169 c 1,90,91
839 152 m 1,103,104
 846 99 846 99 870 67 c 128,-1,105
 894 35 894 35 926 35 c 0,106,107
 961 35 961 35 974 46 c 0,108,109
 993 67 993 67 999 112 c 0,110,111
 1009 189 1009 189 990 230.5 c 128,-1,112
 971 272 971 272 932 272 c 0,113,114
 903 273 903 273 891 258 c 0,115,116
 868 227 868 227 860.5 203 c 128,-1,117
 853 179 853 179 850.5 171.5 c 128,-1,118
 848 164 848 164 839 152 c 1,103,104
842 262 m 1,119,120
 871 299 871 299 910 324 c 128,-1,121
 949 349 949 349 987 349 c 0,122,123
 1040 348 1040 348 1063 298.5 c 128,-1,124
 1086 249 1086 249 1075.5 168 c 128,-1,125
 1065 87 1065 87 1007.5 23 c 128,-1,126
 950 -41 950 -41 870 -41 c 0,127,128
 827 -41 827 -41 801 -6 c 0,129,130
 751 59 751 59 761 172 c 0,131,132
 775 339 775 339 880 459 c 0,133,134
 924 509 924 509 977.5 535.5 c 128,-1,135
 1031 562 1031 562 1084 561 c 0,136,137
 1180 560 1180 560 1230 510 c 1,138,139
 1272 546 1272 546 1340 550 c 128,-1,140
 1408 554 1408 554 1642 549 c 0,141,142
 1657 549 1657 549 1650 529 c 0,143,144
 1642 504 1642 504 1619.5 488 c 128,-1,145
 1597 472 1597 472 1586 472 c 0,146,147
 1552 473 1552 473 1522 474 c 1,148,-1
 1478 20 l 2,149,150
 1477 8 1477 8 1464.5 -7.5 c 128,-1,151
 1452 -23 1452 -23 1439.5 -32 c 128,-1,152
 1427 -41 1427 -41 1418 -43 c 0,153,154
 1400 -48 1400 -48 1402 -31 c 2,155,-1
 1451 475 l 1,156,157
 1287 477 1287 477 1256 470 c 1,158,159
 1264 448 1264 448 1262 423 c 0,160,161
 1226 58 1226 58 1225.5 39.5 c 128,-1,162
 1225 21 1225 21 1217 7 c 128,-1,163
 1209 -7 1209 -7 1193 -20 c 128,-1,164
 1177 -33 1177 -33 1166 -35.5 c 128,-1,165
 1155 -38 1155 -38 1150.5 -30.5 c 128,-1,166
 1146 -23 1146 -23 1145.5 -3.5 c 128,-1,167
 1145 16 1145 16 1146.5 40 c 128,-1,168
 1148 64 1148 64 1153 102 c 128,-1,169
 1158 140 1158 140 1163 178 c 0,170,171
 1177 283 1177 283 1186 372 c 0,172,173
 1190 416 1190 416 1147 450 c 128,-1,174
 1104 484 1104 484 1028 485 c 0,175,176
 989 486 989 486 961 472 c 128,-1,177
 933 458 933 458 916 439 c 0,178,179
 861 376 861 376 842 262 c 1,119,120
EndSplineSet
Validated: 33
EndChar

StartChar: tm_Ka
Encoding: 618 2965 362
GlifName: tm_K_a
Width: 826
GlyphClass: 2
Flags: W
AnchorPoint: "Anchor-1" 582 -6 basechar 0
AnchorPoint: "Anchor-0" 502 0 basechar 0
LayerCount: 2
Fore
SplineSet
462 275 m 1,0,1
 338 282 338 282 254 267.5 c 128,-1,2
 170 253 170 253 143 233 c 0,3,4
 126 221 126 221 128 177 c 0,5,6
 131 38 131 38 338 38 c 0,7,8
 399 38 399 38 419 62 c 0,9,10
 424 68 424 68 432 91 c 0,11,12
 444 123 444 123 462 275 c 1,0,1
347 350 m 1,13,14
 402 354 402 354 471 353 c 1,15,16
 478 418 478 418 482 481 c 1,17,-1
 358 481 l 1,18,-1
 347 350 l 1,13,14
554 481 m 1,19,20
 549 416 549 416 541 349 c 1,21,22
 687 337 687 337 744.5 289 c 128,-1,23
 802 241 802 241 776 153 c 0,24,25
 761 103 761 103 730 57 c 128,-1,26
 699 11 699 11 659.5 -10.5 c 128,-1,27
 620 -32 620 -32 589 -36 c 0,28,29
 537 -42 537 -42 465 -11 c 0,30,31
 457 -8 457 -8 461 5.5 c 128,-1,32
 465 19 465 19 478.5 34.5 c 128,-1,33
 492 50 492 50 507.5 58.5 c 128,-1,34
 523 67 523 67 531 63 c 0,35,36
 593 37 593 37 640 42 c 0,37,38
 659 44 659 44 672.5 51 c 128,-1,39
 686 58 686 58 703 115 c 128,-1,40
 720 172 720 172 678.5 212.5 c 128,-1,41
 637 253 637 253 531 268 c 1,42,43
 526 232 526 232 522 197 c 0,44,45
 503 61 503 61 401 -5 c 0,46,47
 349 -38 349 -38 282 -38 c 0,48,49
 55 -38 55 -38 51 122 c 0,50,51
 50 162 50 162 71.5 205.5 c 128,-1,52
 93 249 93 249 146.5 288 c 128,-1,53
 200 327 200 327 275 341 c 1,54,-1
 288 494 l 1,55,56
 297 534 297 534 327 551 c 0,57,58
 339 558 339 558 354 558 c 2,59,-1
 706 558 l 2,60,61
 721 558 721 558 714 538 c 0,62,63
 706 513 706 513 683.5 497 c 128,-1,64
 661 481 661 481 650 481 c 2,65,-1
 554 481 l 1,19,20
EndSplineSet
Validated: 33
EndChar

StartChar: tm_Nga
Encoding: 619 2969 363
GlifName: tm_N_ga
Width: 763
GlyphClass: 2
Flags: W
AnchorPoint: "Anchor-1" 798 0 basechar 0
AnchorPoint: "Anchor-0" 335 1 basechar 0
LayerCount: 2
Fore
SplineSet
100 -1.5 m 128,-1,1
 88 -17 88 -17 75 -26 c 128,-1,2
 62 -35 62 -35 54 -37 c 0,3,4
 36 -42 36 -42 37 -26 c 2,5,-1
 84 504 l 1,6,7
 93 544 93 544 124 561 c 0,8,9
 136 568 136 568 150 568 c 2,10,-1
 545 560 l 2,11,12
 560 560 560 560 553 541 c 0,13,14
 545 516 545 516 522.5 500 c 128,-1,15
 500 484 500 484 489 484 c 2,16,-1
 388 486 l 1,17,-1
 377 358 l 1,18,19
 385 362 385 362 391 362 c 0,20,21
 485 366 485 366 528.5 325.5 c 128,-1,22
 572 285 572 285 561.5 195 c 128,-1,23
 551 105 551 105 476 38 c 1,24,-1
 632 38 l 1,25,-1
 670 494 l 2,26,27
 671 505 671 505 683 521 c 128,-1,28
 695 537 695 537 707.5 545.5 c 128,-1,29
 720 554 720 554 729 556 c 0,30,31
 747 561 747 561 746 545 c 2,32,-1
 703 26 l 1,33,34
 694 -14 694 -14 664 -31 c 0,35,36
 652 -38 652 -38 637 -38 c 2,37,-1
 244 -38 l 2,38,39
 243 -38 243 -38 256 -21 c 128,-1,40
 269 -4 269 -4 284 17 c 128,-1,41
 299 38 299 38 300 38 c 0,42,43
 402 38 402 38 450 70 c 0,44,45
 479 89 479 89 487 155.5 c 128,-1,46
 495 222 495 222 462 252 c 128,-1,47
 429 282 429 282 371 286 c 1,48,-1
 362 178 l 2,49,50
 361 167 361 167 349 151 c 128,-1,51
 337 135 337 135 324.5 126 c 128,-1,52
 312 117 312 117 303 115 c 0,53,54
 285 110 285 110 286 126 c 2,55,-1
 316 486 l 2,56,57
 316 487 316 487 316 488 c 2,58,-1
 154 491 l 1,59,-1
 113 26 l 2,60,0
 112 14 112 14 100 -1.5 c 128,-1,1
EndSplineSet
Validated: 33
EndChar

StartChar: tm_Ca
Encoding: 620 2970 364
GlifName: tm_C_a
Width: 684
GlyphClass: 2
Flags: W
AnchorPoint: "Anchor-1" 562 6 basechar 0
AnchorPoint: "Anchor-0" 461 0 basechar 0
LayerCount: 2
Fore
SplineSet
428 258 m 1,0,-1
 297 259 l 2,1,2
 244 259 244 259 198 251 c 0,3,4
 122 238 122 238 107 222 c 0,5,6
 96 206 96 206 96 177 c 0,7,8
 93 38 93 38 306 38 c 0,9,10
 370 38 370 38 388 63.5 c 128,-1,11
 406 89 406 89 414 143 c 0,12,13
 421 203 421 203 428 258 c 1,0,-1
450 481 m 1,14,-1
 327 481 l 1,15,-1
 315 335 l 1,16,17
 333 335 333 335 353 335 c 2,18,-1
 437 335 l 1,19,20
 445 409 445 409 450 481 c 1,14,-1
522 481 m 1,21,22
 516 408 516 408 507 334 c 1,23,-1
 651 333 l 2,24,25
 666 333 666 333 659 314 c 0,26,27
 651 289 651 289 628.5 273 c 128,-1,28
 606 257 606 257 595 257 c 2,29,-1
 498 258 l 1,30,31
 494 227 494 227 490 197 c 0,32,33
 479 118 479 118 440 63 c 0,34,35
 368 -38 368 -38 250 -38 c 0,36,37
 15 -38 15 -38 19 122 c 0,38,39
 20 175 20 175 50 217 c 0,40,41
 106 295 106 295 189 317 c 0,42,43
 217 325 217 325 243 329 c 1,44,-1
 256 493 l 1,45,46
 265 533 265 533 295 551 c 0,47,48
 307 558 307 558 322 558 c 2,49,-1
 674 558 l 2,50,51
 689 558 689 558 682 538 c 0,52,53
 674 513 674 513 651.5 497 c 128,-1,54
 629 481 629 481 618 481 c 2,55,-1
 522 481 l 1,21,22
EndSplineSet
Validated: 33
EndChar

StartChar: tm_Ja
Encoding: 621 2972 365
GlifName: tm_J_a
Width: 742
GlyphClass: 2
Flags: W
AnchorPoint: "Anchor-1" 695 14 basechar 0
AnchorPoint: "Anchor-0" 405 0 basechar 0
LayerCount: 2
Fore
SplineSet
444.5 305 m 128,-1,1
 433 289 433 289 420 280 c 128,-1,2
 407 271 407 271 398 269 c 0,3,4
 380 264 380 264 381 280 c 2,5,-1
 389 389 l 1,6,7
 382 489 382 489 300 486 c 0,8,9
 214 484 214 484 169 459 c 0,10,11
 168 458 168 458 165 456.5 c 128,-1,12
 162 455 162 455 161.5 454.5 c 128,-1,13
 161 454 161 454 158.5 452.5 c 128,-1,14
 156 451 156 451 155.5 450.5 c 128,-1,15
 155 450 155 450 153.5 448 c 128,-1,16
 152 446 152 446 151 443.5 c 128,-1,17
 150 441 150 441 149 438 c 0,18,19
 147 434 147 434 144 422 c 0,20,21
 123 351 123 351 144 322 c 0,22,23
 168 287 168 287 249 303 c 1,24,25
 245 373 245 373 191 347 c 0,26,27
 177 341 177 341 171.5 347.5 c 128,-1,28
 166 354 166 354 172.5 368 c 128,-1,29
 179 382 179 382 194 397 c 128,-1,30
 209 412 209 412 223 417 c 0,31,32
 278 439 278 439 302.5 417.5 c 128,-1,33
 327 396 327 396 325 339 c 0,34,35
 325 323 325 323 310.5 298.5 c 128,-1,36
 296 274 296 274 265 252.5 c 128,-1,37
 234 231 234 231 181 224 c 0,38,39
 101 214 101 214 72.5 254 c 128,-1,40
 44 294 44 294 70 382 c 0,41,42
 80 420 80 420 112 459 c 0,43,44
 190 557 190 557 354 562 c 0,45,46
 436 564 436 564 458 489 c 1,47,48
 521 558 521 558 599 557.5 c 128,-1,49
 677 557 677 557 701.5 507.5 c 128,-1,50
 726 458 726 458 703 363 c 0,51,52
 667 209 667 209 558 145 c 0,53,54
 498 110 498 110 416 119.5 c 128,-1,55
 334 129 334 129 272 120 c 0,56,57
 162 105 162 105 143 81 c 0,58,59
 134 69 134 69 128 46 c 0,60,61
 95 -91 95 -91 240 -122 c 0,62,63
 277 -130 277 -130 309 -111 c 0,64,65
 348 -88 348 -88 396.5 -22.5 c 128,-1,66
 445 43 445 43 498 74 c 128,-1,67
 551 105 551 105 599 106 c 0,68,69
 677 107 677 107 682 29 c 0,70,71
 685 -30 685 -30 668.5 -80 c 128,-1,72
 652 -130 652 -130 598 -170.5 c 128,-1,73
 544 -211 544 -211 473 -212 c 0,74,75
 458 -212 458 -212 463 -193 c 0,76,77
 471 -168 471 -168 494 -152 c 128,-1,78
 517 -136 517 -136 527 -136 c 0,79,80
 570 -135 570 -135 592 -123 c 1,81,82
 598 -113 598 -113 603 -87 c 128,-1,83
 608 -61 608 -61 606 -29 c 0,84,85
 603 30 603 30 545 30 c 0,86,87
 510 30 510 30 490 18 c 128,-1,88
 470 6 470 6 455 -14 c 0,89,90
 374 -124 374 -124 302 -166 c 128,-1,91
 230 -208 230 -208 178 -198 c 0,92,93
 14 -163 14 -163 54 2 c 0,94,95
 64 47 64 47 96 88 c 128,-1,96
 128 129 128 129 170 155.5 c 128,-1,97
 212 182 212 182 264 192 c 0,98,99
 353 208 353 208 482 194 c 0,100,101
 539 188 539 188 573 207.5 c 128,-1,102
 607 227 607 227 627.5 314.5 c 128,-1,103
 648 402 648 402 628.5 441.5 c 128,-1,104
 609 481 609 481 549 481 c 0,105,106
 518 481 518 481 495 469 c 0,107,108
 490 464 490 464 482.5 445 c 128,-1,109
 475 426 475 426 471.5 412 c 128,-1,110
 468 398 468 398 461 388 c 1,111,-1
 457 332 l 2,112,0
 456 321 456 321 444.5 305 c 128,-1,1
EndSplineSet
Validated: 33
EndChar

